<svg width="400" height="400" viewBox="0 0 400 400" fill="none" xmlns="http://www.w3.org/2000/svg">
<path d="M384.94 314.58L385.98 313.7C384.472 306.301 382.116 299.1 378.96 292.24C374.3 282.94 369.5 280.12 369.3 273.9C368.38 243.06 363.98 235.9 362.6 234.44C365.06 230.26 364.26 224.88 363.18 220.22C361.849 214.445 360.152 208.76 358.1 203.2C363.3 204.02 389.06 203.2 389.06 203.2C389.42 203.2 389.38 202.5 389.06 202.52C383.9 202.78 363.32 202.88 358.18 202.96C357.68 201.62 357.18 200.3 356.64 198.96C354.26 193.14 351.74 186.66 347.5 181.94C342.6 176.48 333.82 175.7 331.5 175.68C330.55 170.888 330.287 165.986 330.72 161.12C331.1 158.5 330.24 157.66 330.24 157.66L308.36 156.7C307.3 159.16 308.36 164.7 308.36 164.7C308.86 170.5 311.44 175.4 318.02 175.68C318.02 176.42 317.88 177.16 317.82 177.92C314.963 177.695 312.178 176.913 309.62 175.62C307.06 174.1 305.9 171.44 304.14 169.18C305.36 163.18 306.78 155.94 306.84 155.7L330.46 156.32C330.926 156.8 331.253 157.399 331.404 158.051C331.556 158.702 331.527 159.383 331.32 160.02C331.73 160.189 332.176 160.255 332.617 160.214C333.059 160.172 333.484 160.024 333.856 159.782C334.227 159.54 334.535 159.211 334.752 158.824C334.968 158.437 335.088 158.003 335.1 157.56C335.82 153.92 330.3 151.56 330.3 151.56C329.019 151.241 327.783 150.764 326.62 150.14C327.46 146.86 331.08 148.3 331.08 148.3V145.16C329.873 144.779 328.57 144.835 327.4 145.32C326.782 145.8 326.303 146.438 326.015 147.166C325.726 147.894 325.638 148.686 325.76 149.46C325.389 149.198 325.082 148.856 324.86 148.46C322.32 144.06 313.4 141.38 309.26 143.52C310.42 136.12 310.62 127.64 306.1 121.64C303.28 117.88 298.82 116.5 294.38 115.98C280.38 114.34 130.9 89.2 124.68 88.24C122.373 87.7512 119.973 87.9529 117.78 88.82C105.92 93.86 102.52 112.42 70.6601 172.52C69.379 169.657 69.0836 166.449 69.8201 163.4C70.4401 162.86 72.4001 160.86 70.6601 158.88C69.6527 158.067 68.4552 157.523 67.1801 157.3C67.4659 159.129 67.3568 160.997 66.8601 162.78C67.7711 162.911 68.6682 163.125 69.5401 163.42C69.5401 163.66 69.4001 163.9 69.3401 164.16C69.2748 164.054 69.1858 163.965 69.0801 163.9C67.4755 163.344 65.7731 163.126 64.0801 163.26C62.5555 162.96 61.0574 162.539 59.6001 162C57.7407 161.396 55.7709 161.211 53.8314 161.456C51.8919 161.701 50.0305 162.372 48.3801 163.42C48.3801 163.42 47.3001 163.94 47.4401 164.74C47.5801 165.54 49.4401 174.02 52.0401 176.74C52.8471 177.639 53.9067 178.273 55.0801 178.56C55.8201 178.7 56.5201 178.46 57.2201 178.56C58.2601 178.7 58.6801 179 58.8801 179.48C50.4801 182.88 46.6601 190.66 44.6001 198.98C39.6001 198.74 17.8401 199.52 11.8801 199.68C11.8495 199.691 11.8231 199.712 11.8044 199.739C11.7858 199.766 11.7758 199.797 11.7758 199.83C11.7758 199.863 11.7858 199.895 11.8044 199.921C11.8231 199.948 11.8495 199.969 11.8801 199.98C17.8801 200.26 41.0801 199.98 44.4201 199.62C43.5578 203.457 42.8903 207.335 42.4201 211.24C35.0911 211.326 27.786 212.096 20.6001 213.54V214.8C20.1897 214.076 19.6927 213.404 19.1201 212.8C18.6163 212.041 17.8684 211.476 17.0001 211.2C15.2401 210.8 15.9001 213.02 16.5401 214.2C15.7393 213.856 14.8707 213.699 14.0001 213.74C13.3201 213.74 12.0001 213.52 11.5001 213.98C11.0001 214.44 11.1201 214.84 11.6601 215.2C11.4997 215.216 11.3471 215.278 11.2197 215.377C11.0924 215.476 10.9955 215.609 10.9401 215.76C10.7601 216.22 11.0801 216.64 11.3801 216.98C11.6309 217.252 11.9128 217.494 12.2201 217.7C10.8001 218.54 14.2201 220.72 15.0401 220.94C17.03 221.58 19.1702 221.58 21.1601 220.94C21.1759 222.206 21.3919 223.462 21.8001 224.66C22.2601 225.74 23.4401 225.9 24.5801 226.34C27.7371 227.576 30.9873 228.559 34.3001 229.28C39.8601 230.732 45.6561 231.045 51.3401 230.2C54.6201 229.56 61.0001 227.18 61.5401 223.16C62.385 225.197 63.4945 227.113 64.8401 228.86C47.3001 239.08 35.3601 252.4 32.4001 266C29.4401 279.6 29.8201 308.1 29.8201 308.1L33.2201 308.4C33.2201 310.02 33.4601 313.9 33.4601 313.9C33.1112 314.983 32.5267 315.975 31.7486 316.805C30.9705 317.635 30.0182 318.282 28.9601 318.7C25.1401 320.44 27.2201 321.7 27.2201 321.7C29.8512 322.588 32.6319 322.946 35.4021 322.753C38.1722 322.561 40.8768 321.823 43.3601 320.58C43.4601 320.58 44.0801 310.68 44.2601 309.04C45.7977 309.189 47.3491 309.101 48.8601 308.78C50.1001 308 56.0601 282.78 58.0201 274.42C58.1941 273.71 58.5873 273.073 59.1437 272.599C59.7001 272.125 60.3916 271.839 61.1201 271.78C64.7819 271.167 68.3166 269.95 71.5801 268.18C71.5801 268.18 74.8401 257.54 77.7401 254C78.9801 252.46 78.9201 253.62 78.9201 253.62C78.9201 253.62 74.6801 258.82 70.0001 276C65.3201 293.18 77.0601 302 77.0601 302L103.06 325.42L106.28 322C107.18 322.9 109.08 325.36 109.08 325.36C109.564 326.389 109.814 327.513 109.814 328.65C109.814 329.787 109.564 330.911 109.08 331.94C107.52 335.84 109.88 335.3 109.88 335.3C112.336 334.134 114.505 332.442 116.233 330.344C117.961 328.246 119.206 325.793 119.88 323.16C119.88 323.06 114.62 315.78 113.88 314.44L115.88 312.44L101.88 285.02C101.88 285.02 100.3 283.02 101.54 281.62C102.78 280.22 108 268.46 108 268.46C115.88 247.16 110 233.7 107.88 229.78C140 236 270.38 258.7 281.04 258C284.74 257.74 286.62 257.14 288.22 253.58C290.776 245.815 292.63 237.836 293.76 229.74C293.92 231.12 294.1 232.58 294.14 232.6C299.934 233.736 305.803 234.451 311.7 234.74C311.786 235.657 312.055 236.547 312.492 237.358C312.928 238.168 313.522 238.883 314.24 239.46C311.92 240.5 304.8 244.5 293.64 257.46C279.86 273.46 282.52 317.28 282.52 317.28L285.22 317.78V325.12C284.98 326.22 281.6 328.78 279.54 330.26C277.48 331.74 279.36 332.62 279.36 332.62C284.583 333.491 289.942 333.002 294.92 331.2C294.92 331.2 295.74 321.38 295.92 319.46L299.34 320.02C299.34 320.02 311.54 288.72 312.52 285.24C313.5 281.76 332.74 270 332.74 270C330.852 265.51 329.509 260.81 328.74 256C328.74 256 329.14 254.2 329.64 255.66C330.02 256.72 330 258.32 330.64 260.46C332.14 265.46 334.54 272.08 334.54 272.08C342.825 292.597 356.45 310.524 374 324L376.4 322C377.197 323.225 377.912 324.501 378.54 325.82C378.717 327.164 378.595 328.53 378.18 329.82C377.92 331.04 376.74 330.44 376.18 331.38C375.2 332.8 377.74 333.7 377.74 333.7C379.531 334.062 381.392 333.764 382.98 332.86C385.812 330.495 388.191 327.636 390 324.42C390 324.42 385.46 316.22 384.94 314.58ZM12.4801 217.84C13.787 218.47 15.2743 218.619 16.6801 218.26V218.12C13.3601 218.54 9.4801 215.78 12.4201 215.6C12.4201 215.6 15.4801 216.44 15.7201 216.46C15.9601 216.48 15.8801 216.26 15.7201 216.22C14.7001 215.96 13.7201 215.76 12.6801 215.4C12.5001 215.4 11.7801 215.1 11.7001 214.84C11.4401 214.1 12.2801 214.18 12.6401 214.18C13.2194 214.14 13.8008 214.14 14.3801 214.18C15.2177 214.3 16.033 214.543 16.8001 214.9C16.8001 214.9 16.9801 214.7 16.9601 214.68C16.6401 214 16.0001 213.22 16.0001 212.4C16.1001 211.2 17.3001 211.88 17.8001 212.4C18.9709 213.343 19.9028 214.549 20.5201 215.92C20.6201 217.22 21.0801 220.42 21.1001 220.78C19.3001 221.82 11.2401 220.26 12.4801 217.84ZM24.2801 225.84C22.2801 225.04 22.2801 225.12 22.0001 223.22C21.4801 220.08 21.2601 216.9 20.7401 213.76C22.1401 213.76 23.5401 213.76 24.9201 213.54L26.5401 226.68C25.7801 226.36 25.0401 226 24.2801 225.78V225.84ZM29.3001 227.62C29.3001 226.04 28.6801 216.78 28.3001 213.16L31.4201 212.74L32.6801 228.58C32.2201 228.4 30.0001 227.78 29.3001 227.56V227.62ZM36.0601 229.32C35.9601 227.68 35.2001 216.26 34.8001 212.3C36.2801 212.12 37.7401 211.98 39.2401 211.9L41.0601 230.1C39.3801 229.86 37.7201 229.6 36.0001 229.26L36.0601 229.32ZM43.0001 314.3C42.1275 314.985 41.1072 315.458 40.0201 315.68C39.0059 315.932 37.9422 315.901 36.9443 315.59C35.9465 315.28 35.0528 314.702 34.3601 313.92C34.1601 312.12 33.8801 310.32 33.6001 308.54C36.5201 308.76 40.6401 309.06 43.8601 309.14C43.6201 310.8 43.3201 312.52 43.0001 314.24V314.3ZM113.64 314.72C114.381 316.166 115.237 317.551 116.2 318.86C116.065 320.024 115.646 321.136 114.98 322.1C114.408 322.996 113.598 323.715 112.641 324.178C111.684 324.64 110.618 324.828 109.56 324.72C108.5 323.8 107.56 322.72 106.62 321.72L113.64 314.72ZM294.34 325.66C293.341 326.621 292.006 327.152 290.62 327.14C288.837 326.955 287.192 326.096 286.02 324.74C285.88 322.38 285.66 320.04 285.56 317.7L295.56 319.34C295.36 321.24 294.34 325.6 294.34 325.6V325.66ZM318.52 161.02C318.715 161.441 318.824 161.896 318.84 162.36C318.826 162.385 318.806 162.406 318.781 162.42C318.757 162.435 318.729 162.443 318.7 162.443C318.672 162.443 318.643 162.435 318.619 162.42C318.594 162.406 318.574 162.385 318.56 162.36C318.344 161.951 318.215 161.502 318.18 161.04C318.181 161 318.195 160.961 318.22 160.93C318.245 160.898 318.28 160.876 318.319 160.867C318.358 160.858 318.399 160.862 318.435 160.879C318.472 160.896 318.502 160.924 318.52 160.96V161.02ZM309.68 161.02C309.691 160.989 309.712 160.963 309.739 160.944C309.766 160.926 309.797 160.916 309.83 160.916C309.863 160.916 309.895 160.926 309.921 160.944C309.948 160.963 309.969 160.989 309.98 161.02C310.13 161.543 310.13 162.097 309.98 162.62C309.969 162.651 309.948 162.677 309.921 162.696C309.895 162.714 309.863 162.724 309.83 162.724C309.797 162.724 309.766 162.714 309.739 162.696C309.712 162.677 309.691 162.651 309.68 162.62C309.51 162.066 309.51 161.474 309.68 160.92V161.02ZM308.72 164.9C309.64 165.08 311.36 165.36 311.4 165.04C311.529 164.632 311.755 164.261 312.06 163.96C312.299 163.717 312.576 163.515 312.88 163.36C312.638 164.403 312.504 165.469 312.48 166.54C312.66 167.3 314.08 167.18 314.6 166.96C314.632 166.96 314.662 166.947 314.685 166.925C314.707 166.902 314.72 166.872 314.72 166.84C314.72 166.808 314.707 166.778 314.685 166.755C314.662 166.733 314.632 166.72 314.6 166.72C314.182 166.78 313.758 166.78 313.34 166.72C312.74 166.52 312.8 166.12 312.88 165.56C312.96 165 313.02 164.06 313.1 163.32C315.7 162.12 318.08 165.32 318.08 165.32C318.08 165.32 323.52 164.8 323.5 163.74C323.474 163.028 323.677 162.327 324.08 161.74C324.268 161.524 324.5 161.351 324.76 161.232C325.021 161.113 325.304 161.051 325.59 161.051C325.876 161.051 326.159 161.113 326.42 161.232C326.68 161.351 326.912 161.524 327.1 161.74C327.473 162.102 327.749 162.551 327.903 163.048C328.057 163.544 328.083 164.071 327.98 164.58C327.64 165.36 326.84 165.74 326.2 166.24C326.04 166.36 326.2 166.58 326.4 166.54C326.888 166.389 327.329 166.115 327.679 165.743C328.03 165.372 328.278 164.916 328.4 164.42C328.437 163.97 328.384 163.516 328.243 163.087C328.102 162.658 327.877 162.261 327.58 161.92L330.22 161.3C329.343 166.18 329.458 171.186 330.56 176.02C329.702 178.177 328.271 180.058 326.42 181.46C324.3 183.18 319.7 184.56 318.06 181.46C318.439 179.342 318.56 177.187 318.42 175.04C312 174.76 309.76 170 308.72 164.8V164.9ZM312.72 177.84C313.56 178.08 314.42 178.26 315.28 178.42C314.951 179.095 314.76 179.828 314.719 180.578C314.678 181.327 314.787 182.077 315.04 182.784C315.294 183.491 315.687 184.139 316.195 184.692C316.703 185.244 317.317 185.689 318 186C321.56 188 325.3 186.34 327.42 184.9C325.593 188.064 324.308 191.512 323.62 195.1C322.246 200.589 321.654 206.245 321.86 211.9L307.2 215.9V215.62L316.74 213.02H316.36C313.106 213.283 309.868 212.344 307.26 210.38V206.38C310.5 210.26 321.26 209.18 321.26 209.18L321.44 204.64H320.98C311.98 205.66 308.16 201.96 307.64 201.4C307.64 200.62 307.86 199.84 308 199.04C308.28 197.48 308.64 195.96 309.06 194.46C311.68 198.72 322.24 197.94 322.24 197.94L323.22 193.66H322.4C313.82 192.52 311.14 191.08 310.4 190.06C311.12 187.9 311.88 185.76 312.64 183.56C312.64 183.4 312.42 183.28 312.34 183.44C309.746 188.548 308.009 194.048 307.2 199.72C306.86 201.72 306.54 203.72 306.34 205.72C305.58 204.58 304.76 203.5 303.98 202.4C304.18 199.84 305.5 184.44 312.76 177.74L312.72 177.84ZM323.82 211.34C323.82 211.34 339.66 219.22 352.42 216.48C352.122 219.611 351.083 222.626 349.39 225.276C347.696 227.926 345.396 230.135 342.68 231.72L323.82 211.34ZM337.38 234.24C334.24 235.18 324.88 234.74 323.38 234.68L320.5 213.12L321.74 212.78C322.4 213.42 335.42 231.36 337.42 234.14L337.38 234.24ZM322.42 206.46C322.523 204.37 322.737 202.287 323.06 200.22C325.7 200.22 345.3 201.1 351.32 203.2C351.76 205.8 352.22 208.42 352.42 211.04C348.96 211.02 325.32 211 322.46 206.36L322.42 206.46ZM306.42 216.16C302.344 217.27 298.364 218.708 294.52 220.46C294.78 217.28 296.84 205.98 299.18 193.66C300.269 198.628 302.712 203.197 306.24 206.86C305.945 209.904 306.019 212.973 306.46 216L306.42 216.16ZM308.42 175.92C307.02 176.78 301.28 181.18 300.18 195.04C299.88 194.24 299.6 193.42 299.32 192.6C300.82 184.72 302.44 176.6 303.74 169.88C304.863 172.197 306.497 174.228 308.52 175.82L308.42 175.92ZM298.6 117.92C310.34 120.84 310.04 135.48 307.5 147.92C283.5 145 128.16 118.98 118.96 117.76C119.92 116.54 135.6 99.64 142.18 92.58C142.32 92.44 293.12 116.52 298.7 118L298.6 117.92ZM70.6201 173.2C70.6384 173.148 70.6384 173.092 70.6201 173.04C106.42 104.12 106.94 94.66 117.22 89.62C122.36 87.1 128.56 89.82 140.82 92.1C129.345 104.063 118.656 116.756 108.82 130.1C98.8201 143.82 78.7001 174.94 77.7601 176.1C72.9601 182.4 67.7601 188.32 62.6801 194.38C62.1601 194.66 61.8201 195.32 61.5001 195.7C60.8601 196.48 60.1801 196.22 59.9001 195.7C62.0275 189.136 64.9492 182.856 68.6001 177C68.9401 176.4 69.6601 175.04 70.6201 173.2ZM78.3001 202.86L77.3601 201.28C86.3601 199.04 98.5001 202.64 100.46 203.28C100.983 205.664 101.231 208.1 101.2 210.54C94.8772 205.062 86.6473 202.302 78.3001 202.86ZM100.7 215.06C99.0201 223.28 92.9201 224 85.9001 221.68L83.1401 206.54C83.1401 206.54 94.0001 208.62 100.7 215.06ZM52.3601 217.68C51.8657 218.82 51.5098 220.015 51.3001 221.24C50.0734 219.317 48.4337 217.691 46.5001 216.48C50.6001 212.14 52.7201 206.28 55.9001 201.28L56.2801 201.7C54.1401 205.58 52.9401 210.38 50.2801 213.94C50.2801 213.94 50.1601 214.12 50.2801 214.22C50.6401 215.14 52.2201 217.4 52.3601 217.68ZM50.6201 214.16C51.9106 212.307 52.9465 210.289 53.7001 208.16C54.6401 206.06 55.7001 203.98 56.4801 201.82C57.0541 202.359 57.6844 202.835 58.3601 203.24C55.4201 207.98 55.3201 213.78 53.5001 218.92C53.2728 218.165 52.9431 217.445 52.5201 216.78C51.9724 215.848 51.3361 214.97 50.6201 214.16ZM55.2601 197.3C55.8001 198.86 57.2601 199.3 56.9201 198.86C55.6601 197.1 54.5801 196.36 56.9201 194.6C56.846 194.92 56.8471 195.253 56.9235 195.572C56.9998 195.891 57.1493 196.188 57.3601 196.44C57.3815 196.455 57.4065 196.464 57.4325 196.465C57.4585 196.466 57.4844 196.461 57.5072 196.448C57.5301 196.436 57.549 196.417 57.5619 196.394C57.5748 196.372 57.5811 196.346 57.5801 196.32C57.4001 195.42 56.9401 194.56 57.5801 193.74C57.8934 193.389 58.3121 193.148 58.7736 193.054C59.2351 192.96 59.7145 193.019 60.1401 193.22C59.3801 195.42 59.2801 195.58 59.4801 195.74C59.4801 196.8 60.8801 197.26 61.7801 196.04C62.1801 195.54 62.1401 195.28 62.7801 194.82C62.5401 195.36 62.0601 197.04 62.5601 197.18C62.0801 199.9 61.3601 203.8 61.3601 203.8C57.5201 203.78 54.0001 199.28 55.2601 197.3ZM62.8801 197.12C64.3201 197.64 65.8001 198.1 67.2801 198.58C67.4201 200.02 67.8201 205.96 65.2801 209.94C63.6601 208.76 62.3001 207.72 61.2801 206.94C62.3502 203.777 62.8908 200.459 62.8801 197.12ZM64.0001 197.1C67.3827 197.482 70.7975 197.482 74.1801 197.1C73.6235 195.964 73.1943 194.77 72.9001 193.54C71.0601 193.68 65.0201 193.8 63.6001 193.82C67.208 190.177 70.5814 186.309 73.7001 182.24L73.5801 183.74C77.1601 181.62 83.2401 181.44 85.1201 181.44C87.0311 182.743 88.8673 184.151 90.6201 185.66C88.5001 185.34 80.1201 184.38 73.7201 188.54C73.6599 187.434 73.6599 186.326 73.7201 185.22C73.7201 185.22 73.5401 185.08 73.5401 185.22C72.7969 191.341 74.2114 197.53 77.5401 202.72C73.4115 200.029 68.8211 198.123 64.0001 197.1ZM70.2001 199.6C70.4001 199.6 72.8601 200.78 73.8401 201.3C73.8401 202.96 74.2401 210.26 71.6601 214.32C70.2201 213.36 68.8601 212.32 67.6601 211.52C68.916 209.833 69.7931 207.894 70.2314 205.837C70.6698 203.78 70.6591 201.653 70.2001 199.6ZM76.9201 203L78.1801 203.76L80.8601 219.6C78.468 218.428 76.1382 217.133 73.8801 215.72C74.4401 214.98 78.6601 209.1 76.9201 203ZM75.4601 197C74.9799 195.622 74.5989 194.212 74.3201 192.78C76.5201 192.08 89.3001 188.28 95.8801 191.96C95.8801 191.96 97.8801 195.56 98.6401 197.34C91.3401 194.3 77.7201 196.62 75.4601 197.04V197ZM77.4601 177.44L77.8801 176.9C82.9001 170.18 87.6201 163.22 92.1001 156.12C93.6001 153.76 95.1001 151.4 96.6401 149.06C95.5401 155.06 91.8401 179.06 91.3601 185.48C87.4229 181.733 82.6415 178.989 77.4201 177.48L77.4601 177.44ZM56.1401 164.64L56.9001 164.14C57.1601 163.98 57.4001 163.8 57.7201 163.9C57.7863 163.919 57.8425 163.963 57.8762 164.023C57.91 164.083 57.9186 164.154 57.9001 164.22C57.9001 164.82 56.8401 165.02 56.3401 165.14C56.2796 165.146 56.2186 165.133 56.1665 165.101C56.1145 165.07 56.0741 165.022 56.0514 164.966C56.0288 164.909 56.0253 164.847 56.0413 164.788C56.0573 164.729 56.092 164.677 56.1401 164.64ZM50.4601 164.86L51.2201 165.12C51.4655 165.17 51.6974 165.273 51.9001 165.42C51.9306 165.447 51.953 165.482 51.9649 165.521C51.9767 165.56 51.9775 165.601 51.9671 165.641C51.9568 165.68 51.9356 165.716 51.9062 165.744C51.8767 165.772 51.84 165.792 51.8001 165.8C51.3201 165.96 50.6801 165.54 50.2801 165.28C49.8801 165.02 50.2001 164.78 50.4601 164.86ZM57.1201 178C51.9401 178.54 50.1601 173.28 48.9801 168.86C49.3932 168.931 49.8169 168.911 50.2213 168.8C50.6257 168.69 51.0008 168.492 51.3201 168.22C51.8125 167.723 52.4495 167.394 53.1401 167.28C52.9277 167.931 52.7804 168.6 52.7001 169.28C52.7089 169.428 52.755 169.571 52.834 169.697C52.9131 169.822 53.0225 169.926 53.1522 169.997C53.2818 170.069 53.4276 170.107 53.5758 170.108C53.724 170.108 53.87 170.071 54.0001 170C54.0307 169.989 54.0571 169.968 54.0758 169.941C54.0944 169.915 54.1044 169.883 54.1044 169.85C54.1044 169.817 54.0944 169.786 54.0758 169.759C54.0571 169.732 54.0307 169.711 54.0001 169.7C53.3001 169.7 53.0801 169.36 53.2001 168.62C53.2001 168.26 53.5201 167.34 53.5401 167.24C54.0795 167.14 54.6365 167.202 55.1401 167.42C56.9508 168.214 58.962 168.43 60.9001 168.04C60.9001 168.04 61.8001 164.82 64.4201 165.7C64.6444 165.974 64.8109 166.29 64.9095 166.63C65.0081 166.97 65.0368 167.327 64.9938 167.678C64.9508 168.03 64.8371 168.369 64.6594 168.675C64.4817 168.981 64.2438 169.248 63.9601 169.46C63.8601 169.46 63.9601 169.72 64.1201 169.66C64.4986 169.439 64.8135 169.124 65.0343 168.746C65.2551 168.367 65.3742 167.938 65.3801 167.5C65.3801 167.5 68.9001 165.64 69.0201 165.5C68.7682 168.024 69.2546 170.567 70.4201 172.82C69.9001 173.78 69.4801 174.56 69.1601 175.1C67.6601 177.72 66.1801 180.34 64.8001 183.1C63.7135 183.383 62.5597 183.238 61.5771 182.694C60.5945 182.151 59.8582 181.251 59.5201 180.18C59.3801 178.46 59.3801 177.84 57.1201 178ZM55.7801 181.7C55.9853 183.343 56.7491 184.866 57.9434 186.013C59.1377 187.16 60.69 187.861 62.3401 188C61.6001 189.68 60.9001 191.4 60.3401 193.16C60.0522 192.975 59.7248 192.861 59.3845 192.826C59.0442 192.791 58.7005 192.837 58.3812 192.96C58.0619 193.083 57.7759 193.279 57.5464 193.532C57.3169 193.786 57.1503 194.09 57.0601 194.42H56.8401C56.4401 191.72 56.4201 189 56.2001 186.28C56.2001 186.243 56.1854 186.207 56.1591 186.181C56.1328 186.155 56.0972 186.14 56.0601 186.14C56.023 186.14 55.9874 186.155 55.9611 186.181C55.9348 186.207 55.9201 186.243 55.9201 186.28C55.8 188.89 55.961 191.505 56.4001 194.08L50.7801 186.6C52.1971 184.747 53.8823 183.116 55.7801 181.76V181.7ZM48.2601 190.52L55.1601 196.06C55.1212 196.372 55.1212 196.688 55.1601 197C53.9601 198.18 54.8601 199.86 55.7201 201C55.4401 201.3 55.2001 201.64 54.9401 201.98C54.6001 201.16 52.8201 197.98 45.3001 198.14C46.0157 195.522 47.008 192.988 48.2601 190.58V190.52ZM44.4401 202C45.1601 202 51.3201 202 53.4201 204.34C52.2001 206.34 51.1801 208.48 50.0601 210.56C48.2278 208.937 45.8867 208.003 43.4401 207.92C43.7201 205.88 44.0001 204 44.4401 202ZM54.4401 229.06C52.0512 229.91 49.5357 230.349 47.0001 230.36H44.3601C44.2201 228.66 43.1001 215.7 42.6801 211.88C42.8401 211.88 43.0601 211.16 43.0801 211.02C44.1201 211.3 47.8001 212.4 48.2401 213.7C47.6372 214.633 46.9688 215.522 46.2401 216.36V216.8C48.2599 218.193 50.0029 219.95 51.3801 221.98C51.8865 220.817 52.3141 219.621 52.6601 218.4C52.8601 218.86 53.0401 219.34 53.2001 219.82C53.2001 219.94 53.6601 219.94 53.7001 219.82C53.7087 219.74 53.7087 219.66 53.7001 219.58C55.5773 221.922 56.9034 224.656 57.5801 227.58C56.5695 228.143 55.5122 228.618 54.4201 229L54.4401 229.06ZM60.4401 225.06C60.1601 223.92 58.4401 217.82 55.1801 215.06C55.4601 213.92 55.7201 212.76 56.0001 211.6C56.5001 209.6 57.3201 207.6 58.0001 205.6C57.7318 210.231 58.4475 214.866 60.1001 219.2C60.5001 220.32 60.9401 221.5 61.4201 222.7C61.264 223.553 60.8922 224.352 60.3401 225.02L60.4401 225.06ZM60.7001 218.82C60.2801 217.64 59.9001 216.44 59.5801 215.22C64.4851 216.707 69.4916 217.837 74.5601 218.6L68.9201 214C65.4307 213.272 62.0011 212.282 58.6601 211.04C58.3382 208.782 58.2177 206.5 58.3001 204.22C58.3001 203.94 58.4801 203.66 58.5601 203.4C58.9743 203.705 59.4506 203.916 59.9554 204.016C60.4601 204.116 60.9807 204.104 61.4801 203.98C61.3201 204.96 61.1201 205.98 60.9001 206.9C60.8438 206.959 60.8125 207.038 60.8125 207.12C60.8125 207.202 60.8438 207.281 60.9001 207.34C66.7772 212.062 73.1082 216.188 79.8001 219.66C84.5601 221.96 91.5201 225.26 96.6601 222.22C100.46 219.98 101.5 215.18 101.64 210.86C102.52 214.06 103.9 217 104.98 220.02C104.2 221.24 100.98 223.82 88.2401 224.16C71.4801 224.66 62.4201 219.86 60.6001 218.78L60.7001 218.82ZM66.0001 229.08C64.9801 227.58 64.0001 226.06 63.1601 224.48C87.4201 235.38 103.7 225.32 106.16 223.62C106.585 225.333 106.767 227.097 106.7 228.86C86.0001 243 69.2801 231.66 66.0001 229.08ZM293.2 228.2C292.173 236.058 290.501 243.817 288.2 251.4C286.44 256.06 286.04 256.7 281.38 257.06C271.22 257.88 124.48 232.26 107.54 229.26L107.34 228.94C108.48 222.26 101.9 212.66 101.7 208.14C101.327 201.597 99.0775 195.299 95.2201 190C94.1463 188.582 92.9698 187.245 91.7001 186C93.1401 179.74 96.4001 154.74 96.9201 148.72C103.8 138 110.96 128 118.7 118.12C118.7 118.12 296.7 147.32 307.46 148.58C307.06 150.58 294.46 213.96 294 220.58C293.7 220.74 293.44 220.9 293.2 221.06C293.087 221.538 293.04 222.029 293.06 222.52C292.664 221.757 292.216 221.022 291.72 220.32C291.264 219.545 290.559 218.946 289.72 218.62C287.86 218.12 288.62 220.62 289.24 221.86C288.529 221.611 287.79 221.449 287.04 221.38C286.18 221.144 285.278 221.103 284.4 221.26C283.74 221.54 283.86 222.18 284.4 222.58C284.221 222.613 284.057 222.7 283.928 222.828C283.8 222.957 283.713 223.121 283.68 223.3C283.58 223.92 284.3 224.56 284.72 224.86C284.827 224.938 284.94 225.005 285.06 225.06C283.86 225.74 286.22 227.62 286.82 227.94C287.803 228.41 288.874 228.667 289.963 228.695C291.052 228.722 292.135 228.52 293.14 228.1C293.14 228.1 293.18 228.18 293.18 228.2H293.2ZM288.76 228.2C288.16 228.06 283.9 226.2 285.36 225.3C286.452 225.76 287.603 226.063 288.78 226.2V226.06C287.42 225.806 286.114 225.319 284.92 224.62C284.677 224.459 284.473 224.248 284.32 224C283.98 223.3 284.5 223.08 285.06 223.08C286.165 223.578 287.351 223.876 288.56 223.96C288.7 223.96 288.72 223.76 288.56 223.72C287.318 223.532 286.106 223.175 284.96 222.66C284.56 222.42 284.24 221.94 284.78 221.76C285.32 221.58 289.9 222.5 289.92 222.48C289.94 222.46 290.06 222.48 290.04 222.34C289.735 221.733 289.493 221.097 289.32 220.44C289.14 219.3 289.72 219 290.36 219.5C291.429 220.776 292.367 222.156 293.16 223.62C293.16 225.02 293.38 226.42 293.54 227.8C291.987 228.281 290.345 228.397 288.74 228.14L288.76 228.2ZM294.54 232.38C294.54 232.38 294.18 225.08 293.54 221.54C295.149 220.643 296.82 219.861 298.54 219.2L300.64 232.94L294.54 232.38ZM304.26 233.28L302.4 217.9C304 217.44 305.62 217 307.24 216.58L309.4 233.76L304.26 233.28ZM311.28 215.52L316.58 214.14L319.52 234.42L313.52 234.08L311.28 215.52ZM362 234.18C333.38 249.42 315.22 239.1 315.12 239.06C313.644 238.024 312.604 236.478 312.2 234.72L318.52 235.08C325.74 235.48 334.18 237.08 340.86 233.62C346.4 230.72 351.56 225.82 352.86 219.62C354.1 213.86 352.66 201.94 351.06 197.32C350.96 197 340.08 191.62 323.8 196.5C324.18 194.84 324.58 193.08 325.12 191.32C326.92 190.5 341.36 184.3 349.12 192.28C349.12 192.28 346.44 184.5 334.8 184.62C332.152 184.766 329.545 185.34 327.08 186.32C327.689 185.385 328.357 184.49 329.08 183.64C329.08 183.64 332.86 178.48 333.08 176.6C339.08 177.06 344.3 178.74 348.02 184C351.246 189.353 354.048 194.95 356.4 200.74C355.198 201.533 353.829 202.04 352.4 202.22L353.12 206C354.755 205.852 356.325 205.288 357.68 204.36C358.28 206.04 358.84 207.74 359.38 209.44C357.683 210.612 355.795 211.478 353.8 212C353.886 214.13 353.799 216.264 353.54 218.38C356.45 217.952 359.095 216.454 360.96 214.18C361.2 215.1 362.32 219.34 362.62 220.6C361 221.92 351.68 229.38 347.5 229.68C345.352 231.853 342.782 233.561 339.947 234.7C337.112 235.838 334.074 236.383 331.02 236.3L313.02 235.38C323.842 239.275 335.656 239.437 346.58 235.84C359.56 231.48 362.76 227.84 363.52 226.26C363.851 228.994 363.319 231.763 362 234.18ZM384.18 324C382.738 324.937 380.995 325.294 379.3 325C378.5 323.88 377.62 322.8 376.78 321.7L384.62 314.96C385.12 316.62 386.18 320.52 386.18 320.52C385.997 321.898 385.279 323.149 384.18 324Z" fill="#171717"/>
<path d="M147.2 197.36C148.86 202.26 152.18 197.86 152.18 197.86C152.18 197.86 155.68 178.34 156.76 178.5L165.32 179.74C169.46 177 166.14 174.26 166.14 174.26L159 173.36C159 173.36 166.14 145.86 164.74 141.54C163.34 137.22 157.84 141.04 157.84 141.04L130.34 167.04C124.84 172.24 129.44 173.94 129.44 173.94L150.54 177.42L147.2 197.36ZM136.74 170.86C136.74 170.86 135.08 170.44 136.74 168.86C138.4 167.28 156 149.18 156 149.18C156 149.18 158.94 147.52 158 150.92L152.52 173.1L136.74 170.86ZM256.84 191.48L249.7 190.58C249.7 190.58 256.84 163.08 255.44 158.76C254.04 154.44 248.54 158.26 248.54 158.26L221.04 184.26C215.54 189.46 220.14 191.16 220.14 191.16L241.24 194.64L237.9 214.64C239.56 219.54 242.9 215.14 242.9 215.14C242.9 215.14 246.38 195.62 247.46 195.78L256.02 197.04C260.18 194.22 256.84 191.48 256.84 191.48ZM248.84 168.14L243.32 190.14L227.48 188.14C227.48 188.14 225.82 187.72 227.48 186.14C229.14 184.56 246.76 166.46 246.76 166.46C246.76 166.46 249.64 164.74 248.8 168.14H248.84ZM196.9 199.56C202.9 197.9 209.48 188 207.98 167.44C206.48 146.88 188.6 144.72 181.98 152.64C175.36 160.56 173.34 176.42 176.5 186.78C179.66 197.14 190.82 201.24 196.9 199.56ZM186.7 155.12C191.06 152.96 203.54 152.32 204.7 168.96C205.86 185.6 200.88 192.84 196 194.18C191.12 195.52 182.54 192.18 180 183.86C177.46 175.54 180.16 158.36 186.7 155.12ZM242.82 223.76C227.32 221.88 135.2 204.46 130.58 204.24C130.548 204.24 130.518 204.253 130.495 204.275C130.473 204.298 130.46 204.328 130.46 204.36C130.46 204.392 130.473 204.422 130.495 204.445C130.518 204.467 130.548 204.48 130.58 204.48C130.7 204.48 235.6 223.76 242.88 224.66C243.4 224.72 243.4 223.84 242.82 223.76ZM218.32 229.56C206.82 227.56 161.38 220.12 150.12 218.84C149.88 218.84 149.82 219.24 150.12 219.28C161.34 221.64 206.78 228.68 218.12 230.42C218.64 230.52 218.88 229.66 218.32 229.56ZM290.96 137.28C292.005 137.025 292.972 136.517 293.774 135.801C294.577 135.084 295.191 134.181 295.563 133.172C295.934 132.162 296.052 131.076 295.905 130.011C295.758 128.945 295.351 127.931 294.72 127.06C288.72 119.06 277.44 127.46 282.92 134.56C283.87 135.722 285.128 136.593 286.549 137.074C287.971 137.555 289.5 137.626 290.96 137.28ZM284.2 126.46C284.876 125.773 285.696 125.247 286.602 124.918C287.508 124.59 288.475 124.468 289.434 124.562C290.393 124.656 291.318 124.963 292.143 125.461C292.967 125.959 293.67 126.635 294.2 127.44C297.44 132.16 293.28 137.58 287.62 136.52C286.176 136.254 284.865 135.506 283.9 134.4C282.925 133.289 282.413 131.847 282.469 130.37C282.525 128.893 283.144 127.494 284.2 126.46ZM275.58 134.14C276.515 133.771 277.353 133.194 278.032 132.452C278.711 131.711 279.212 130.825 279.497 129.861C279.782 128.898 279.844 127.882 279.678 126.89C279.513 125.899 279.123 124.958 278.54 124.14C277.672 122.652 276.286 121.536 274.647 121.006C273.008 120.476 271.231 120.569 269.656 121.268C268.081 121.966 266.819 123.22 266.112 124.791C265.404 126.361 265.3 128.138 265.82 129.78C266.536 131.652 267.967 133.163 269.797 133.981C271.627 134.798 273.707 134.856 275.58 134.14ZM268.7 122.88C271.86 120.46 275.4 121.88 277.9 124.54C281.12 128 278.02 133.86 272.92 133.88C271.29 133.925 269.702 133.356 268.473 132.285C267.243 131.214 266.46 129.721 266.28 128.1C266.202 127.095 266.384 126.088 266.808 125.174C267.232 124.26 267.883 123.47 268.7 122.88ZM258.22 131.54C259.204 131.235 260.102 130.701 260.84 129.982C261.577 129.262 262.133 128.377 262.461 127.4C262.789 126.424 262.88 125.383 262.727 124.364C262.574 123.345 262.181 122.377 261.58 121.54C255.94 114.58 246.64 119.96 248.74 127.22C249.84 130.94 254.66 132.62 258.22 131.54ZM251.24 120.56C251.955 119.992 252.776 119.572 253.656 119.327C254.536 119.081 255.456 119.014 256.362 119.13C257.267 119.245 258.141 119.541 258.931 120C259.721 120.458 260.411 121.07 260.96 121.8C261.649 122.749 262.038 123.883 262.077 125.056C262.116 126.228 261.804 127.385 261.181 128.379C260.557 129.372 259.65 130.157 258.578 130.631C257.505 131.105 256.314 131.247 255.16 131.04C253.943 131.042 252.754 130.673 251.752 129.984C250.749 129.294 249.979 128.316 249.546 127.179C249.112 126.043 249.034 124.801 249.322 123.618C249.61 122.436 250.251 121.369 251.16 120.56H251.24Z" fill="#171717"/>
<path d="M285.32 132.88C286.559 132.553 287.726 131.997 288.76 131.24C289.372 132.262 290.126 133.191 291 134C291.053 134.042 291.118 134.066 291.186 134.066C291.254 134.066 291.319 134.044 291.373 134.002C291.426 133.961 291.464 133.902 291.479 133.836C291.495 133.771 291.488 133.701 291.46 133.64C290.932 132.597 290.259 131.634 289.46 130.78C290.26 130.2 291.02 129.58 291.76 129.08C292.16 128.8 291.76 128.14 291.38 128.42L288.92 130.12C288.12 129.14 287.28 128.12 286.46 127.18C286.32 127.02 286.02 127.18 286.16 127.44C286.88 128.46 287.58 129.44 288.32 130.54C287.3 131.22 286.32 131.9 285.24 132.54C285.204 132.558 285.176 132.588 285.159 132.625C285.142 132.661 285.138 132.702 285.147 132.741C285.157 132.78 285.178 132.815 285.21 132.84C285.241 132.865 285.28 132.879 285.32 132.88ZM68.6401 184.98C66.0446 188.039 63.608 191.23 61.3401 194.54C61.3401 194.54 61.3401 194.72 61.5201 194.54C63.8801 191.32 66.3601 188.2 68.8201 185.06C68.9201 185.02 68.7201 184.88 68.6401 184.98ZM63.1801 190.2C67.4601 183.88 72.1001 177.92 76.5201 171.72C76.5201 171.72 76.5201 171.54 76.3801 171.72C71.4521 177.527 66.9789 183.705 63.0001 190.2C62.9201 190.22 63.1001 190.32 63.1801 190.2Z" fill="#171717"/>
<path d="M55.8 131C56.32 111.56 57.12 40 57.8 39.32C58.48 38.64 104.18 38.66 114.9 39.48C114.6 50.96 115.06 62.46 114.9 73.94C114.9 74.2 153.88 74.18 155.44 74.18C157 74.18 156.82 73.86 156.68 75.24C156.537 79.1275 156.604 83.0198 156.88 86.9C156.885 86.9622 156.911 87.0205 156.955 87.0646C156.999 87.1086 157.058 87.1354 157.12 87.14C177.62 87.26 198.08 87.36 218.56 86.42C218.618 86.42 218.674 86.3969 218.716 86.3556C218.757 86.3143 218.78 86.2584 218.78 86.2C218.66 79.36 218.5 56.7 218.5 55.74C218.5 54.28 218.12 53.32 219.82 53.24C224.16 53.06 279.82 54.3 279.92 54.4C280.02 54.5 281.32 87.66 281.44 96.12C281.44 96.1455 281.445 96.1706 281.455 96.1939C281.466 96.2171 281.481 96.2379 281.5 96.2549C281.518 96.2719 281.541 96.2848 281.565 96.2925C281.589 96.3003 281.615 96.3029 281.64 96.3C289.84 96.66 336.22 98.78 336.36 98.88C336.5 98.98 336.98 122.88 337.44 129.84C337.437 129.863 337.439 129.886 337.446 129.907C337.453 129.929 337.464 129.949 337.479 129.966C337.494 129.983 337.513 129.997 337.534 130.006C337.555 130.016 337.577 130.02 337.6 130.02C352.52 130.02 367.44 130.02 382.36 130.36C382.56 130.36 382.56 130.04 382.36 130.04C370.08 129.8 338.36 129.28 338.12 129.14C337.32 128.8 337.7 108.18 337.04 98.18C337.04 98.1323 337.021 98.0865 336.987 98.0527C336.954 98.019 336.908 98 336.86 98C327.98 97.62 282.66 96 282.22 95.66C282.22 95.66 281.16 61.4 280.68 53.94C280.675 53.8885 280.653 53.8402 280.616 53.8036C280.58 53.7671 280.532 53.7445 280.48 53.74C259.82 52.8 238.96 51.84 218.3 52.9C218.247 52.9 218.196 52.9211 218.159 52.9586C218.121 52.9961 218.1 53.047 218.1 53.1C218.1 59.68 218.8 85.26 218.32 86.06C218.16 86.32 160.88 86.9 158.1 86.66C157.08 86.66 157.22 77.52 157.14 73.92C157.14 73.8564 157.115 73.7953 157.07 73.7503C157.025 73.7053 156.964 73.68 156.9 73.68C143.08 73.68 129.26 73.46 115.44 73.68C115.68 62.28 116 50.7 115.14 39.34C115.14 39.3061 115.128 39.2732 115.106 39.2475C115.084 39.2217 115.054 39.2049 115.02 39.2C95.8127 37.2635 76.4736 36.9958 57.22 38.4C57.151 38.4 57.0849 38.4274 57.0362 38.4762C56.9874 38.5249 56.96 38.5911 56.96 38.66C56.28 53.98 54.96 115.32 55.32 130.66C40.28 130.66 25.32 131.38 10.22 131.48C10.1617 131.48 10.1057 131.503 10.0644 131.544C10.0232 131.586 10 131.642 10 131.7C10 131.758 10.0232 131.814 10.0644 131.856C10.1057 131.897 10.1617 131.92 10.22 131.92C25.26 132 55.78 131.26 55.8 131Z" fill="#171717"/>
<path d="M101.6 60.76H106.92C107.157 58.4815 107.231 56.189 107.14 53.9C107.14 53.8311 107.113 53.7649 107.064 53.7162C107.015 53.6674 106.949 53.64 106.88 53.64C105.054 53.6947 103.232 53.8415 101.42 54.08C101.2 56.22 101.42 58.4 101.32 60.54C101.334 60.6035 101.37 60.6601 101.421 60.7003C101.472 60.7404 101.535 60.7615 101.6 60.76ZM106.62 54.58C106.84 55.38 106.62 59.3 106.74 60.24H101.9C101.9 58.24 101.9 56.24 101.8 54.24C102.7 54.14 106.42 53.82 106.62 54.58ZM91.5201 71.88H96.8401C97.0985 69.6031 97.1721 67.3089 97.0601 65.02C97.0554 64.9526 97.0265 64.8892 96.9787 64.8414C96.931 64.7936 96.8675 64.7647 96.8001 64.76C94.9799 64.818 93.1641 64.9716 91.3601 65.22C91.1201 67.34 91.3601 69.54 91.2401 71.68C91.2578 71.7398 91.295 71.7919 91.3457 71.8281C91.3965 71.8643 91.4578 71.8826 91.5201 71.88ZM96.5601 65.7C96.7801 66.5 96.5601 70.42 96.6801 71.38H91.8201V65.38C92.6201 65.28 96.3601 64.96 96.5601 65.7ZM62.2001 97.88H67.5201C67.5963 97.8802 67.6697 97.8514 67.7254 97.7994C67.7812 97.7473 67.815 97.6761 67.8201 97.6V90.94C67.8202 90.9041 67.8129 90.8686 67.7986 90.8357C67.7843 90.8028 67.7633 90.7732 67.737 90.7487C67.7107 90.7243 67.6796 90.7056 67.6457 90.6938C67.6118 90.6819 67.5759 90.6773 67.5401 90.68C65.7801 90.8 64.0401 90.68 62.2801 90.92C62.244 90.9239 62.2092 90.936 62.1784 90.9553C62.1476 90.9746 62.1216 91.0006 62.1023 91.0314C62.0831 91.0623 62.0711 91.097 62.0672 91.1332C62.0634 91.1693 62.0678 91.2058 62.0801 91.24C61.9201 93.24 62.0801 95.48 62.0801 97.6C62.0681 97.6534 62.0732 97.7092 62.0948 97.7594C62.1163 97.8097 62.1532 97.8519 62.2001 97.88ZM67.2001 91.26V97.26C66.2201 97.26 62.9001 97.4 62.7001 97.26C62.3701 95.2782 62.2561 93.2664 62.3601 91.26C64.0001 91.3 65.6001 91.34 67.2001 91.26ZM78.1001 98C78.221 95.7016 78.221 93.3984 78.1001 91.1C76.2769 90.9394 74.4432 90.9394 72.6201 91.1C72.5493 91.1051 72.4832 91.1368 72.4349 91.1888C72.3866 91.2408 72.3599 91.3091 72.3601 91.38C72.2513 93.5872 72.298 95.7994 72.5001 98H78.1001ZM73.2401 91.5C73.6401 91.36 76.6001 91.36 77.5601 91.28V97.46H72.7001C72.9001 95.78 72.7401 91.66 73.2401 91.46V91.5ZM71.7601 50.78H77.0801C77.317 48.5015 77.3905 46.209 77.3001 43.92C77.2954 43.8526 77.2665 43.7892 77.2187 43.7414C77.171 43.6936 77.1075 43.6647 77.0401 43.66C75.2138 43.7137 73.3914 43.8605 71.5801 44.1C71.3601 46.24 71.5801 48.42 71.4601 50.56C71.478 50.6251 71.5174 50.6822 71.5719 50.7221C71.6263 50.7621 71.6926 50.7825 71.7601 50.78ZM76.7801 44.6C77.0001 45.4 76.7801 49.32 76.9001 50.26H72.0601C72.0601 48.26 72.0601 46.26 71.9601 44.26C72.8601 44.16 76.5801 43.84 76.7801 44.6ZM226.52 68.46C226.374 70.6747 226.441 72.8982 226.72 75.1C228.549 75.27 230.391 75.27 232.22 75.1C232.3 72.764 232.22 70.4251 231.98 68.1C230.152 67.967 228.315 68.0882 226.52 68.46ZM231.86 74.7C230.203 74.5501 228.537 74.5501 226.88 74.7C227.025 72.7027 227.025 70.6974 226.88 68.7C228.521 68.8273 230.171 68.7736 231.8 68.54C231.645 70.5913 231.665 72.6522 231.86 74.7ZM242.62 68.2C240.792 68.0726 238.955 68.1937 237.16 68.56C236.99 70.6833 236.99 72.8168 237.16 74.94C237.14 74.9646 237.128 74.9944 237.125 75.0258C237.122 75.0573 237.129 75.0889 237.143 75.1167C237.158 75.1445 237.181 75.1672 237.209 75.182C237.237 75.1969 237.269 75.2031 237.3 75.2C239.07 75.36 240.85 75.36 242.62 75.2C242.656 75.1974 242.691 75.1859 242.722 75.1664C242.753 75.1469 242.778 75.1202 242.796 75.0885C242.814 75.0567 242.824 75.0211 242.824 74.9847C242.825 74.9484 242.817 74.9124 242.8 74.88C242.964 72.653 242.904 70.415 242.62 68.2ZM242.48 74.78C240.823 74.64 239.157 74.64 237.5 74.78C237.65 72.7428 237.65 70.6973 237.5 68.66C239.147 68.8039 240.804 68.757 242.44 68.52C242.261 70.6035 242.274 72.699 242.48 74.78ZM242.62 82.54C240.792 82.4126 238.955 82.5337 237.16 82.9C236.99 85.0233 236.99 87.1568 237.16 89.28C237.14 89.3046 237.128 89.3344 237.125 89.3658C237.122 89.3973 237.129 89.4289 237.143 89.4567C237.158 89.4845 237.181 89.5072 237.209 89.522C237.237 89.5369 237.269 89.5431 237.3 89.54C239.07 89.7 240.85 89.7 242.62 89.54C242.656 89.5374 242.691 89.5259 242.722 89.5064C242.753 89.4869 242.778 89.4602 242.796 89.4284C242.814 89.3967 242.824 89.3611 242.824 89.3247C242.825 89.2884 242.817 89.2524 242.8 89.22C242.964 86.993 242.904 84.755 242.62 82.54ZM242.48 89.12C240.823 88.9701 239.157 88.9701 237.5 89.12C237.65 87.0828 237.65 85.0373 237.5 83C239.147 83.1473 240.806 83.0936 242.44 82.84C242.261 84.9302 242.274 87.0323 242.48 89.12ZM265.72 82.76C265.536 84.9495 265.536 87.1505 265.72 89.34C267.596 89.51 269.484 89.51 271.36 89.34C271.453 86.9982 271.387 84.6527 271.16 82.32C269.335 82.2207 267.505 82.3687 265.72 82.76ZM271.04 88.98C269.383 88.8401 267.717 88.8401 266.06 88.98C266.205 86.9827 266.205 84.9774 266.06 82.98C267.701 83.1174 269.352 83.0637 270.98 82.82C270.825 84.8713 270.845 86.9322 271.04 88.98ZM317.1 110C316.951 112.214 317.011 114.437 317.28 116.64C319.116 116.81 320.964 116.81 322.8 116.64C322.89 114.284 322.81 111.925 322.56 109.58C320.729 109.473 318.893 109.615 317.1 110ZM322.42 116.22C320.763 116.07 319.097 116.07 317.44 116.22C317.59 114.183 317.59 112.137 317.44 110.1C319.087 110.247 320.746 110.194 322.38 109.94C322.202 112.024 322.216 114.119 322.42 116.2V116.22ZM78.8001 128C78.8432 125.662 78.7363 123.324 78.4801 121C76.6531 120.869 74.8167 120.983 73.0201 121.34C72.8699 123.554 72.9302 125.777 73.2001 127.98C75.0623 128.157 76.9367 128.163 78.8001 128ZM73.4201 121.4C75.061 121.527 76.7109 121.474 78.3401 121.24C78.1601 123.316 78.1601 125.404 78.3401 127.48C76.683 127.34 75.0171 127.34 73.3601 127.48C73.5292 125.458 73.5492 123.425 73.4201 121.4ZM26.6001 141.3C24.9001 141.44 21.1601 141.3 21.1601 141.56C20.9808 143.843 20.9808 146.137 21.1601 148.42C23.0291 148.6 24.9111 148.6 26.7801 148.42C26.9311 146.116 26.9311 143.804 26.7801 141.5C26.7693 141.454 26.7471 141.412 26.7157 141.377C26.6842 141.342 26.6445 141.316 26.6001 141.3ZM26.4801 148C24.8235 147.85 23.1567 147.85 21.5001 148C21.6402 145.949 21.6402 143.891 21.5001 141.84C22.4001 141.84 26.1001 141.54 26.3201 142.3C26.5401 143.06 26.4201 147.04 26.4801 148ZM369.26 141.4C367.433 141.443 365.61 141.59 363.8 141.84C363.65 144.061 363.71 146.291 363.98 148.5C365.75 148.66 367.53 148.66 369.3 148.5C369.537 146.222 369.611 143.929 369.52 141.64C369.515 141.575 369.485 141.513 369.437 141.469C369.389 141.424 369.326 141.4 369.26 141.4ZM369.12 148C367.463 147.86 365.797 147.86 364.14 148C364.29 145.956 364.29 143.904 364.14 141.86C365.04 141.86 368.74 141.56 368.94 142.32C369.14 143.08 369.08 147.12 369.12 148ZM349.78 361.7C307.02 361.5 45.6201 359.94 21.6001 360.2C21.4601 360.2 21.4601 360.44 21.6001 360.44C64.3401 361.36 325.74 362.3 349.78 362.44C349.864 362.421 349.938 362.373 349.991 362.306C350.044 362.239 350.073 362.156 350.073 362.07C350.073 361.984 350.044 361.901 349.991 361.834C349.938 361.767 349.864 361.72 349.78 361.7ZM50.9801 172.84C51.0172 172.84 51.0528 172.825 51.0791 172.799C51.1053 172.773 51.1201 172.737 51.1201 172.7C51.1201 172.663 51.1053 172.627 51.0791 172.601C51.0528 172.575 51.0172 172.56 50.9801 172.56C50.943 172.56 50.9073 172.575 50.8811 172.601C50.8548 172.627 50.8401 172.663 50.8401 172.7C50.8401 172.737 50.8548 172.773 50.8811 172.799C50.9073 172.825 50.943 172.84 50.9801 172.84ZM52.0001 173.12C51.947 173.12 51.8962 173.141 51.8587 173.179C51.8212 173.216 51.8001 173.267 51.8001 173.32C51.8001 173.373 51.8212 173.424 51.8587 173.461C51.8962 173.499 51.947 173.52 52.0001 173.52C52.0531 173.52 52.104 173.499 52.1415 173.461C52.179 173.424 52.2001 173.373 52.2001 173.32C52.2001 173.267 52.179 173.216 52.1415 173.179C52.104 173.141 52.0531 173.12 52.0001 173.12ZM51.6601 174.58C51.6972 174.58 51.7328 174.565 51.7591 174.539C51.7853 174.513 51.8001 174.477 51.8001 174.44C51.8001 174.403 51.7853 174.367 51.7591 174.341C51.7328 174.315 51.6972 174.3 51.6601 174.3C51.4801 174.28 51.4801 174.58 51.6601 174.58ZM52.3601 172.18C52.3248 172.192 52.2942 172.215 52.2725 172.246C52.2509 172.276 52.2392 172.313 52.2392 172.35C52.2392 172.387 52.2509 172.424 52.2725 172.454C52.2942 172.485 52.3248 172.508 52.3601 172.52C52.5601 172.52 52.5601 172.18 52.3601 172.18ZM53.4601 174.36C53.4972 174.36 53.5328 174.345 53.5591 174.319C53.5853 174.293 53.6001 174.257 53.6001 174.22C53.6001 174.183 53.5853 174.147 53.5591 174.121C53.5328 174.095 53.4972 174.08 53.4601 174.08C53.423 174.08 53.3873 174.095 53.3611 174.121C53.3348 174.147 53.3201 174.183 53.3201 174.22C53.3201 174.257 53.3348 174.293 53.3611 174.319C53.3873 174.345 53.423 174.36 53.4601 174.36ZM54.4401 176C54.2001 176 54.2001 176.36 54.4401 176.36C54.4878 176.36 54.5336 176.341 54.5674 176.307C54.6011 176.274 54.6201 176.228 54.6201 176.18C54.6201 176.132 54.6011 176.087 54.5674 176.053C54.5336 176.019 54.4878 176 54.4401 176ZM54.9801 174.58C54.9401 174.593 54.9052 174.619 54.8805 174.653C54.8558 174.687 54.8425 174.728 54.8425 174.77C54.8425 174.812 54.8558 174.853 54.8805 174.887C54.9052 174.921 54.9401 174.947 54.9801 174.96C55.0101 174.97 55.0421 174.973 55.0733 174.968C55.1046 174.963 55.1342 174.951 55.1598 174.932C55.1854 174.913 55.2063 174.889 55.2207 174.861C55.235 174.833 55.2425 174.802 55.2425 174.77C55.2425 174.738 55.235 174.707 55.2207 174.679C55.2063 174.651 55.1854 174.627 55.1598 174.608C55.1342 174.589 55.1046 174.577 55.0733 174.572C55.0421 174.568 55.0101 174.57 54.9801 174.58ZM57.0601 176.14C57.0177 176.14 56.977 176.157 56.9469 176.187C56.9169 176.217 56.9001 176.258 56.9001 176.3C56.9001 176.342 56.9169 176.383 56.9469 176.413C56.977 176.443 57.0177 176.46 57.0601 176.46C57.1025 176.46 57.1432 176.443 57.1732 176.413C57.2032 176.383 57.2201 176.342 57.2201 176.3C57.2201 176.258 57.2032 176.217 57.1732 176.187C57.1432 176.157 57.1025 176.14 57.0601 176.14ZM58.1001 174.92C58.0553 174.934 58.0162 174.962 57.9884 175C57.9606 175.037 57.9457 175.083 57.9457 175.13C57.9457 175.177 57.9606 175.223 57.9884 175.26C58.0162 175.298 58.0553 175.326 58.1001 175.34C58.1448 175.326 58.184 175.298 58.2117 175.26C58.2395 175.223 58.2545 175.177 58.2545 175.13C58.2545 175.083 58.2395 175.037 58.2117 175C58.184 174.962 58.1448 174.934 58.1001 174.92ZM59.2201 176.42C59.1706 176.435 59.1271 176.465 59.0962 176.507C59.0653 176.548 59.0486 176.598 59.0486 176.65C59.0486 176.702 59.0653 176.752 59.0962 176.793C59.1271 176.835 59.1706 176.865 59.2201 176.88C59.2696 176.865 59.3131 176.835 59.344 176.793C59.3748 176.752 59.3915 176.702 59.3915 176.65C59.3915 176.598 59.3748 176.548 59.344 176.507C59.3131 176.465 59.2696 176.435 59.2201 176.42ZM60.9401 175.38C60.9701 175.39 61.0021 175.393 61.0333 175.388C61.0646 175.383 61.0942 175.371 61.1198 175.352C61.1454 175.333 61.1663 175.309 61.1807 175.281C61.195 175.253 61.2025 175.222 61.2025 175.19C61.2025 175.158 61.195 175.127 61.1807 175.099C61.1663 175.071 61.1454 175.047 61.1198 175.028C61.0942 175.009 61.0646 174.997 61.0333 174.992C61.0021 174.988 60.9701 174.99 60.9401 175C60.9001 175.013 60.8652 175.039 60.8405 175.073C60.8158 175.107 60.8025 175.148 60.8025 175.19C60.8025 175.232 60.8158 175.273 60.8405 175.307C60.8652 175.341 60.9001 175.367 60.9401 175.38ZM60.5401 176.82C60.5754 176.808 60.606 176.785 60.6276 176.754C60.6493 176.724 60.6609 176.687 60.6609 176.65C60.6609 176.613 60.6493 176.576 60.6276 176.546C60.606 176.515 60.5754 176.492 60.5401 176.48C60.513 176.471 60.484 176.468 60.4555 176.472C60.4271 176.476 60.4 176.487 60.3766 176.503C60.3532 176.52 60.3341 176.542 60.321 176.567C60.3078 176.593 60.3009 176.621 60.3009 176.65C60.3009 176.679 60.3078 176.707 60.321 176.733C60.3341 176.758 60.3532 176.78 60.3766 176.797C60.4 176.813 60.4271 176.824 60.4555 176.828C60.484 176.832 60.513 176.829 60.5401 176.82ZM62.5401 176.24C62.5984 176.24 62.6544 176.217 62.6956 176.176C62.7369 176.134 62.7601 176.078 62.7601 176.02C62.7601 175.962 62.7369 175.906 62.6956 175.864C62.6544 175.823 62.5984 175.8 62.5401 175.8C62.4817 175.8 62.4258 175.823 62.3845 175.864C62.3433 175.906 62.3201 175.962 62.3201 176.02C62.3201 176.078 62.3433 176.134 62.3845 176.176C62.4258 176.217 62.4817 176.24 62.5401 176.24ZM64.4801 174.74C64.4324 174.74 64.3866 174.759 64.3528 174.793C64.319 174.827 64.3001 174.872 64.3001 174.92C64.3001 174.968 64.319 175.014 64.3528 175.047C64.3866 175.081 64.4324 175.1 64.4801 175.1C64.5278 175.1 64.5736 175.081 64.6074 175.047C64.6411 175.014 64.6601 174.968 64.6601 174.92C64.6601 174.872 64.6411 174.827 64.6074 174.793C64.5736 174.759 64.5278 174.74 64.4801 174.74ZM63.2401 174C63.2801 173.987 63.3149 173.961 63.3396 173.927C63.3643 173.893 63.3776 173.852 63.3776 173.81C63.3776 173.768 63.3643 173.727 63.3396 173.693C63.3149 173.659 63.2801 173.633 63.2401 173.62C63.21 173.61 63.1781 173.608 63.1469 173.612C63.1156 173.617 63.086 173.629 63.0604 173.648C63.0347 173.667 63.0139 173.691 62.9995 173.719C62.9851 173.747 62.9776 173.778 62.9776 173.81C62.9776 173.842 62.9851 173.873 62.9995 173.901C63.0139 173.929 63.0347 173.953 63.0604 173.972C63.086 173.991 63.1156 174.003 63.1469 174.008C63.1781 174.013 63.21 174.01 63.2401 174ZM64.4801 172.4C64.5278 172.4 64.5736 172.381 64.6074 172.347C64.6411 172.314 64.6601 172.268 64.6601 172.22C64.6601 172.172 64.6411 172.127 64.6074 172.093C64.5736 172.059 64.5278 172.04 64.4801 172.04C64.4324 172.04 64.3866 172.059 64.3528 172.093C64.319 172.127 64.3001 172.172 64.3001 172.22C64.3001 172.268 64.319 172.314 64.3528 172.347C64.3866 172.381 64.4324 172.4 64.4801 172.4ZM65.3201 170.6C65.3678 170.6 65.4136 170.581 65.4474 170.547C65.4811 170.514 65.5001 170.468 65.5001 170.42C65.5001 170.372 65.4811 170.327 65.4474 170.293C65.4136 170.259 65.3678 170.24 65.3201 170.24C65.2723 170.24 65.2266 170.259 65.1928 170.293C65.159 170.327 65.1401 170.372 65.1401 170.42C65.1401 170.468 65.159 170.514 65.1928 170.547C65.2266 170.581 65.2723 170.6 65.3201 170.6ZM63.0201 171C63.0625 171 63.1032 170.983 63.1332 170.953C63.1632 170.923 63.1801 170.882 63.1801 170.84C63.1801 170.798 63.1632 170.757 63.1332 170.727C63.1032 170.697 63.0625 170.68 63.0201 170.68C62.9776 170.68 62.937 170.697 62.9069 170.727C62.8769 170.757 62.8601 170.798 62.8601 170.84C62.8601 170.882 62.8769 170.923 62.9069 170.953C62.937 170.983 62.9776 171 63.0201 171ZM61.4401 172.76C61.6801 172.76 61.7001 172.36 61.4401 172.36C61.387 172.36 61.3362 172.381 61.2987 172.419C61.2612 172.456 61.2401 172.507 61.2401 172.56C61.2401 172.613 61.2612 172.664 61.2987 172.701C61.3362 172.739 61.387 172.76 61.4401 172.76ZM55.7601 173C55.6911 173 55.625 173.027 55.5762 173.076C55.5275 173.125 55.5001 173.191 55.5001 173.26C55.5001 173.329 55.5275 173.395 55.5762 173.444C55.625 173.493 55.6911 173.52 55.7601 173.52C55.829 173.52 55.8952 173.493 55.9439 173.444C55.9927 173.395 56.0201 173.329 56.0201 173.26C56.0201 173.191 55.9927 173.125 55.9439 173.076C55.8952 173.027 55.829 173 55.7601 173ZM55.5401 172C55.4977 172 55.457 172.017 55.4269 172.047C55.3969 172.077 55.3801 172.118 55.3801 172.16C55.3801 172.202 55.3969 172.243 55.4269 172.273C55.457 172.303 55.4977 172.32 55.5401 172.32C55.5825 172.32 55.6232 172.303 55.6532 172.273C55.6832 172.243 55.7001 172.202 55.7001 172.16C55.7001 172.118 55.6832 172.077 55.6532 172.047C55.6232 172.017 55.5825 172 55.5401 172ZM57.4201 172.18C57.3723 172.18 57.3266 172.199 57.2928 172.233C57.259 172.267 57.2401 172.312 57.2401 172.36C57.2401 172.408 57.259 172.454 57.2928 172.487C57.3266 172.521 57.3723 172.54 57.4201 172.54C57.4678 172.54 57.5136 172.521 57.5474 172.487C57.5811 172.454 57.6001 172.408 57.6001 172.36C57.6001 172.312 57.5811 172.267 57.5474 172.233C57.5136 172.199 57.4678 172.18 57.4201 172.18ZM58.1001 171.1C58.1531 171.1 58.204 171.079 58.2415 171.041C58.279 171.004 58.3001 170.953 58.3001 170.9C58.3001 170.847 58.279 170.796 58.2415 170.759C58.204 170.721 58.1531 170.7 58.1001 170.7C58.047 170.7 57.9962 170.721 57.9587 170.759C57.9212 170.796 57.9001 170.847 57.9001 170.9C57.9001 170.953 57.9212 171.004 57.9587 171.041C57.9962 171.079 58.047 171.1 58.1001 171.1ZM54.2201 171.06C54.0801 171.06 54.0801 171.3 54.2201 171.3C54.2519 171.3 54.2824 171.287 54.3049 171.265C54.3274 171.242 54.3401 171.212 54.3401 171.18C54.3401 171.148 54.3274 171.118 54.3049 171.095C54.2824 171.073 54.2519 171.06 54.2201 171.06ZM66.5601 172.7C66.6048 172.686 66.644 172.658 66.6717 172.62C66.6995 172.583 66.7145 172.537 66.7145 172.49C66.7145 172.443 66.6995 172.397 66.6717 172.36C66.644 172.322 66.6048 172.294 66.5601 172.28C66.5271 172.27 66.4923 172.267 66.4582 172.273C66.4242 172.279 66.392 172.292 66.3642 172.313C66.3364 172.333 66.3138 172.36 66.2982 172.391C66.2826 172.422 66.2745 172.456 66.2745 172.49C66.2745 172.525 66.2826 172.559 66.2982 172.589C66.3138 172.62 66.3364 172.647 66.3642 172.667C66.392 172.688 66.4242 172.701 66.4582 172.707C66.4923 172.713 66.5271 172.71 66.5601 172.7ZM62.0001 162.1C62.0001 162.1 62.2201 160.1 62.2601 159.26C62.3001 158.42 62.2601 156.4 62.2601 156.38C59.2801 155.94 56.5801 155.76 56.4201 155.76C56.6026 157.462 56.6026 159.178 56.4201 160.88C56.5001 160.9 61.4801 161.88 62.0001 162.1ZM46.0001 158C46.0001 158 44.9601 159.08 46.2801 162C46.2801 162 46.6801 163.04 47.4601 162.84C50.1791 161.536 53.1651 160.886 56.1801 160.94C56.1801 160.94 56.0001 157.4 56.0001 155.76C54.1933 155.732 52.3872 155.852 50.6001 156.12C50.2183 157.831 50.3363 159.615 50.9401 161.26C50.9586 161.305 50.9585 161.356 50.9398 161.401C50.921 161.446 50.8852 161.481 50.8401 161.5C50.795 161.519 50.7444 161.518 50.6994 161.5C50.6544 161.481 50.6186 161.445 50.6001 161.4C50.1756 160.609 49.9209 159.738 49.852 158.842C49.7831 157.947 49.9017 157.047 50.2001 156.2C48.6549 156.379 47.1953 157.004 46.0001 158ZM66.7601 157.22C65.4601 156.9 64.0001 156.64 62.6001 156.42C62.8339 158.349 62.7392 160.303 62.3201 162.2C63.6248 162.556 64.9681 162.751 66.3201 162.78C66.7201 161 66.6601 157.26 66.7601 157.22ZM60.5401 147.88C61.5403 148.849 62.3123 150.028 62.8001 151.332C63.2878 152.636 63.4791 154.033 63.3601 155.42C65.2289 155.619 67.0491 156.14 68.7401 156.96C68.7401 156.96 70.2601 148.64 60.5401 147.88Z" fill="#171717"/>
<path d="M58.2799 148.18C58.3105 148.161 58.3466 148.153 58.3823 148.158C58.4179 148.162 58.4512 148.178 58.4766 148.203C58.502 148.229 58.5181 148.262 58.5223 148.298C58.5265 148.333 58.5186 148.369 58.4999 148.4C56.9199 150.16 57.1199 152.6 57.0599 154.82H58.5999C60.2999 154.94 61.7399 155.1 62.9399 155.3C62.7029 152.674 61.7786 150.156 60.2599 148C60.2387 147.975 60.2271 147.943 60.2271 147.91C60.2271 147.877 60.2387 147.845 60.2599 147.82H59.1399C58.2238 147.827 57.309 147.887 56.3999 148V148.18C55.4046 148.946 54.6036 149.935 54.0616 151.068C53.5195 152.2 53.2518 153.445 53.2799 154.7C53.2799 154.88 52.9999 154.92 52.9599 154.7C52.7556 153.382 52.9605 152.033 53.547 150.835C54.1335 149.637 55.0734 148.647 56.2399 148C47.8999 148.94 47.5599 154 47.6999 156.34C50.5648 155.079 53.702 154.563 56.8199 154.84C56.4976 153.695 56.4622 152.489 56.7168 151.327C56.9715 150.166 57.5083 149.085 58.2799 148.18ZM60.0999 171.62H59.9399C59.5999 172.26 59.2399 173 58.4999 173.2V173.32C59.3599 173.24 60.3599 172.58 60.0999 171.62ZM320.48 169.32C320.48 169.2 320.3 169.1 320.24 169.32C320.006 169.727 319.663 170.061 319.249 170.284C318.836 170.506 318.369 170.609 317.9 170.58V170.7C318.46 170.82 320.26 170.58 320.48 169.32Z" fill="#171717"/>
</svg>
