<svg xmlns="http://www.w3.org/2000/svg" fill="none" viewBox="0 0 400 400">
  <path fill="#171717" d="M17.82 253.42c22.14-14.44 91.76-61.06 102-67.78a1.32 1.32 0 0 0-1.48-2.16c-11.08 7.34-77.6 52-101.84 67.78a1.3 1.3 0 1 0 1.32 2.16Zm99.84 85.52c.5.24 1.16-.58.52-.92-.64-.34-23.88-13.18-27.64-15.34-18-10.34-38.32-23.44-41.84-25.04a.8.8 0 0 0-.74 1.36c3.52 2.86 52.52 32.18 69.7 39.94Zm77.5-83.26c-35.16-19.46-56.2-28.52-65.16-33.24-1.24-.64-1.84-.76-3.58.68-28.18 17.64-40.46 28-67.1 50.28a.98.98 0 0 0 0 1.4c.92.78 39.38 24.86 65.82 38.68a1.01 1.01 0 0 0 .79.07 1.01 1.01 0 0 0 .59-.53c.48-.92-2 1.46 12-10.94h.2a.3.3 0 0 0 .16-.04.32.32 0 0 0 .12-.12v-.1a.24.24 0 0 0 0-.26c23.86-20.98 26.84-22.54 43.76-36 3.88-3.15 7.99-6 12.3-8.52a.84.84 0 0 0 .1-1.36ZM98.46 244c.44.36-.12-.14 13.7 7.06a571 571 0 0 0-12.9 9.66c-4.4-2.42-8.82-4.8-13.28-7.1 4.1-3.24 8.27-6.45 12.48-9.62Zm78.24 3.66c-4.44 2.53-8.8 5.2-13.08 8l-16.34-8.2c4.84-3.04 9.58-5.82 13.44-8 5.28 2.7 10.6 5.46 15.98 8.26v-.06Zm-46.94-7 14.58 7.2a263.05 263.05 0 0 0-15.3 10.24c-4.65-2.5-9.25-4.95-13.8-7.32 5.74-4.08 9.58-6.78 14.52-10.06v-.06Zm-2.22 18.54a251.7 251.7 0 0 0-12.94 10c-4.54-2.54-9.14-5.12-13.76-7.62a482.3 482.3 0 0 1 12.9-9.7c4.7 2.5 9.3 4.97 13.8 7.38v-.06Zm-11.38 10.86c4.24-3.44 8.55-6.77 12.94-10 5.72 3.08 11.24 6 16.48 8.98-4.1 3.18-8.36 6.58-12.86 10.26-7.06-3.84-6.04-3.3-16.56-9.18v-.06Zm-2.74.12c-5.72 4.74-8 6.86-10.72 9.32a370.5 370.5 0 0 0-14-8.14c3.58-2.98 7.2-5.92 10.86-8.8l13.86 7.62Zm-9.42 10.2a417.9 417.9 0 0 1 10.92-9.28c.42.24 11.46 6.34 16.62 9.14C128 283.2 120 290 120 290a2049.3 2049.3 0 0 0-16-9.62ZM146.9 268a756.13 756.13 0 0 0-16.3-9.08 314.6 314.6 0 0 1 15.06-10.42c5.42 2.7 10.96 5.42 16.52 8.16-7.32 5.06-11.3 8.34-15.28 11.34ZM79 279.86c2.38-2.22 6-5.26 8.36-7.32a501.5 501.5 0 0 0 14 8.24 573.4 573.4 0 0 0-11.38 10.58c-4.8-2.88-9.56-5.76-14.22-8.62 1.1-.9 2.24-1.9 3.24-2.88Zm67-32.94-14.5-7.3c5.6-3.66 8.72-5.54 12.56-8.3 5.18 2.48 10.4 5.06 15.68 7.7a246.3 246.3 0 0 0-13.74 7.9Zm-16-8c-1.08-.54-13-6.54-14-7 3.84-2.54 8-5.14 12.56-8 4.84 2.24 9.78 4.58 14.76 6.98-4.6 2.36-9.06 5.02-13.32 7.96v.06Zm-15.66-6a52.19 52.19 0 0 0 6 3.1l8 4a463.64 463.64 0 0 0-14.58 10c-4.48-2.34-9.1-4.72-13.74-7.06a330.8 330.8 0 0 1 14.24-10.06l.08.02ZM102.8 281.6c3.22 1.86 15.4 9.02 16 9.4-8.88 7.6-8.8 7.22-11.72 10.32a647.8 647.8 0 0 1-15.7-9.12c3.7-3.61 7.49-7.15 11.34-10.62l.08.02Zm18.8 9.26c4-3.48 11.58-9.76 11.58-9.76 5.74 3.12 11.24 6 17.2 8.88a1469.1 1469.1 0 0 0-12.48 10.82 498.12 498.12 0 0 0-16.38-9.96l.08.02Zm29.22-1.48c-5.18-2.96-16.22-9.02-16.52-9.2 4.62-3.78 8.84-7.18 12.82-10.28 1.12.62 12.66 6.98 16.52 9.02-14.54 11.78-12.52 10.66-12.9 10.44l.08.02Zm-2.44-20.46c5.02-3.9 10.22-7.8 15.38-11.42.9.44 13.08 6.44 16.7 8.12-8.7 6.66-12.52 9.8-16.24 12.82a553.2 553.2 0 0 0-15.92-9.54l.08.02Zm-63.54-14.24a1065 1065 0 0 1 13.22 7.1c-3.18 2.46-8 6.26-11.02 8.88a.87.87 0 0 0-.64.42c-.32.68-7.58 6.16-12 10.82-2.96-1.82-12-7.56-12.82-8a869.76 869.76 0 0 1 23.18-19.24l.08.02ZM113.1 298l7.18-6.14a323.42 323.42 0 0 0 16.9 9.46c-3.58 3.2-7.4 6.72-11.08 10.36a573.64 573.64 0 0 1-17.76-9.68 41.32 41.32 0 0 0 4.76-4Zm68.22-33.14a567.05 567.05 0 0 0-16.24-8.36 436.6 436.6 0 0 1 12.52-8.32c1.68.88 7.36 3.72 15.5 8.24a122.7 122.7 0 0 0-11.78 8.46v-.02Zm-42.62-51.92c18 11.02 35.86 19.36 53.06 27.48 16.4 7.88 14.94 7.56 15.66 7.56 1.7 0-4.24 2 45.4-36.82 1.44 0 2.42-2 .88-2.76 0 0-65.68-30-67.48-30.74a5.02 5.02 0 0 0-4.84 1.1c-19.62 14.38-29.38 20.84-42.96 31.88a1.46 1.46 0 0 0 .28 2.3Zm47.1-21.24a1.76 1.76 0 0 1 2.9-1.26 41.57 41.57 0 0 1 5.18 9.88c2.54 6 2.22 5.62 2.6 5.64 24.74-2.8 23.76-2.98 27.62-2.68a3.08 3.08 0 0 1 .12 5.88c-1.46.32-2.95.52-4.44.6-2.38.26.12 0-20.98 1.8-.82 0 0 .2 5.04 15.3.84 2.54 1.34 4.52-.4 6.4a3 3 0 0 1-3.06.82c-3.18-.82-2.74-2.34-8.58-21.14a.94.94 0 0 0-.24-.68c-.26-.3-.74.14-14.42.94-5.05.55-10.13.69-15.2.4a1.38 1.38 0 0 1-.36-2.7c5.02-1.52 22.52-3.52 27.88-4.14a.3.3 0 0 0 .22-.13.3.3 0 0 0 .04-.25 73.32 73.32 0 0 1-3.92-14.68ZM112.9 73.12c-.8.28-1.57.61-2.32 1a.46.46 0 0 0 .2.84 9.82 9.82 0 0 0 2.8-1c.86-.5 1.2-1.62.44-2.2-4.52-4.32-4-4.68-4.68-4.68a.3.3 0 0 0-.3.33c0 .05.03.1.06.15 3.54 5.08 5.2 4.8 3.8 5.56Zm-6.8-4.6a.82.82 0 0 0-1.16-.74.82.82 0 0 0-.46.88c.04.58.13 1.15.26 1.72a.82.82 0 0 0 1.01.57.82.82 0 0 0 .57-1.01c-.02-.6-.32-.86-.22-1.42Z"/>
  <path fill="#171717" d="M113.22 68.64c0-1.04-.22-2.32-1.22-2-.22 0-.52.32-.52.54-.06.67 0 1.35.18 2 .32 1 1.62.52 1.54 0 .06-.36-.02-.34.02-.54Zm-7.22-3.4v-.14a.31.31 0 0 0-.03-.13.31.31 0 0 0-.33-.17c-.56.24-1.08.58-1.52 1-1.2.74-1.32.78-1.42 1.04a.46.46 0 0 0 .13.68c.08.04.16.06.25.06.35-.04.68-.2.94-.44.24-.14 1.98-1.4 1.98-1.9Zm8 .5a.5.5 0 0 0 .14-.68c-.22-.36-.96-.36-1.5-.52-.8 0-1.56-.72-1.56.24a.28.28 0 0 0 .14.26c.6.38 2.26 1.08 2.78.7Zm-3.12 14.46c1.52 0 1.58-1.88.94-1.74h-2.5c.62-.68 1.28-1.12 2-.62.72.5 1.04-.76.62-1.24a1.5 1.5 0 0 0-2-.22 8.85 8.85 0 0 0-2.26 2.36.54.54 0 0 0 0 .53.54.54 0 0 0 .46.27h.26a6 6 0 0 0 2.48.66Zm12.06 28.22c.9.5 1.54 0 3.2-.58 1.32-.62 1.7-.76 2.16-1.4.46-.64.32-1.66-1-1.58-.42 0-.54.14-2 .92-.2 0-2.1.74-2.34.9a.99.99 0 0 0-.54.86.98.98 0 0 0 .52.88Zm204.02-16.06c.28-.12.28-.4.14-.68s-1.54.24-2-.48c-.46-.72.94-1.68 2-5.6.2-.74-.56-.86-.78-.32a47.57 47.57 0 0 1-2.1 4.72c-1 1.52.78 3.26 2.74 2.36Zm4.46-5.34c.04-.6.04-1.2 0-1.8a.84.84 0 0 0-1.27-.4.84.84 0 0 0-.31.4v2a.84.84 0 0 0 1.58-.2Zm-6.96-.46v-1.5a.86.86 0 0 0-1.68 0v1.46a.83.83 0 0 0 .23.6.84.84 0 0 0 1.45-.56ZM328 94c-2-.24-2.96 2-2.52 2.3.44.3.54.18.68-.26a1.68 1.68 0 0 1 2-1.2c.75.21 1.44.6 2 1.14-1.16.03-2.32.2-3.44.5a.5.5 0 0 0 0 .96c1.34.08 2.68.02 4-.18.44 0 .76 0 .96-.32a.6.6 0 0 0 0-.72A5.22 5.22 0 0 0 328 94Zm4.56-11.2c-.62-.42-1.54-.64-2.7-1.4-.34-.24-.96.22-.7.66.26.44 1.2 1.06 1.42 1.2.7.44.96.68 1.64.62a.58.58 0 0 0 .34-1.08ZM332 172c-.2.44.48.96.9.56.29-.24.48-.57.56-.94a3.23 3.23 0 0 0-.84-2.78c-.6-.62-1.34.4-.96.84A2.73 2.73 0 0 1 332 172Zm-217.28-53.18a.92.92 0 0 0 .92-.92.92.92 0 1 0-.92.92Zm-1.88 18.08a.92.92 0 1 0 0-1.84.92.92 0 0 0 0 1.84Zm1.32 12.08a.94.94 0 0 0-.58 1.54c.15.17.36.29.58.32a.94.94 0 0 0 .58-1.54.94.94 0 0 0-.58-.32ZM94 73.44a1.04 1.04 0 0 0 0 2 1.04 1.04 0 0 0 0-2Z"/>
  <path fill="#171717" d="M389.7 324.28c-3.64-7.46-8.8-7.82-10.5-15.16a223.66 223.66 0 0 1-.92-26c.5-.39.96-.8 1.4-1.26a11.06 11.06 0 0 0 1.5-3.74c2.56-12-2.18-24.58-3.88-35.3v-.16a18.49 18.49 0 0 0 6.2-4.58 16.64 16.64 0 0 0 2.64-7.74c.36-2.1 1.8-9.58 2.68-14.54a.88.88 0 0 0-.66-1c-.3-1.26-.78-2.47-1.42-3.6-7.36-13.16-9.7-19.44-14.48-20.58a102.66 102.66 0 0 0-2.38-12.18c1.34-6.18 2.72-12.54 3.58-18.78 2.18-14 1.42-33.6-8-44.18a32.68 32.68 0 0 0-17.68-9.7 4.42 4.42 0 0 1-1.02-1.26c-.82-10-1.72-7.4.36-7.36a2 2 0 0 0 1.52-2c2.82.68 4.92-2 3.3-4a3.44 3.44 0 0 0 1.5-6 6 6 0 0 0 2.68-2.24 2.54 2.54 0 0 0-.76-3.3 2.59 2.59 0 0 0-1.48-4.48 6.52 6.52 0 0 0 1.74-3.12 3.02 3.02 0 0 0-1.56-2.9c2.38-1.76.84-6.44-5.86-5.52a5.12 5.12 0 0 0-8.54-3.6 6.44 6.44 0 0 0-6.3-2.88 4 4 0 0 0-2.96 4.2c-5.78-3.08-12.34.34-10.38 2.9a5.44 5.44 0 0 0-4.88 3.78 4 4 0 0 0 2.34 4.54c-4.34 2.24-1.22 5 3.54 6a1.66 1.66 0 0 0 .14 2c.44.32.42 0 .36.66a101.65 101.65 0 0 0-19.7 10.86c-4.66 3.5-11.06 8.26-12.22 15.16-2 11.28 13.86 17.28 25 20a39.25 39.25 0 0 0-1.1 10.98c.04 3.5.37 7 1 10.46a4 4 0 0 0 2 3.16c.75.52 1.56.96 2.4 1.32 1.68 7.1 2.64 6.58 2.12 8.22-.4 1.28-.82 2-1.16 3.1-1.48.58-2.46.72-2.6 2.44-1.3 7-6.44 10.18-4.78 35.12C243.82 170 242.66 169.06 232 164.8c-34.42-13.68-51.74.7-97.04 34.42.66-2.4 1.56-7.82 1.74-9.1a85.76 85.76 0 0 0-2-34.2c0-.22.24-.42.34-.66a8.95 8.95 0 0 0-.78-7.08 86.02 86.02 0 0 1-4.9-15.56c2.2 2.5 4.75 4.64 7.58 6.38a9.79 9.79 0 0 0 9.62-.54c9.44-5.86 19.16-19.76 25.18-29.14A8.56 8.56 0 0 0 180 104c2.46-1.58 2.18-5.36 0-4.46a1.3 1.3 0 0 0-2.2-.94c-.68.48-1.31 1.03-1.88 1.64.54-2.64-4.86-.84-7.28.32a10 10 0 0 0-2.36 1.74c-.44-.16-12 5.84-21.6 14.28-3.28-7-7.02-14.82-13.02-20.54-6-5.72-13-8.34-19.54-7.58-.64-1.88-3.56-3.16-3.58-3.44a6.54 6.54 0 0 0 6-2.2c3.84-5.22 2.4-10.52 2.26-15C119.44 62 118.9 54.46 114 50c-3.97-3.22-8.9-5-14-5.08a20.44 20.44 0 0 0-6.18-3.54 12.12 12.12 0 0 0-15.48 8.78c-.4 3.24.6 6 2 10.28-.62 3.49.05 7.09 1.88 10.12-3.26 1.2-4 6-1.6 8.86a6.38 6.38 0 0 0 8.6 0c1.54 1.62 2.52 2.9 4.9 2.36v.82a2.36 2.36 0 0 0-1.82 1.04 26.87 26.87 0 0 0-2.3 3.78 7.06 7.06 0 0 0-1.4 3.88c-17.26 5.3-22.6 25.02-24.3 36.42-1.9 13.12-.58 22.22 11.42 28.46-1.28 3.64-3.52 6.66-.62 9.2a21.46 21.46 0 0 0-.72 11.34c-5.7 3.7-38.78 25.64-46.72 30.68a68.69 68.69 0 0 0-12.9 8.92c-3.3 3.6-5.1 8.32-5.04 13.2-.1 19.58 5.36 71.44 5.36 71.66a6.8 6.8 0 0 0 1.68 4.82 2.62 2.62 0 0 0 3.76-.5c.14-.24 15.14-9.78 17.74-12-.03 3.5 1.22 6.9 3.52 9.54 12.98 11.46 61.68 42.24 81.48 53.5a19.25 19.25 0 0 0 15.44 1.78c12.7-3.54 32.88-18 44.3-26.24 16.22-11.64 7.34-3.8 40.56-27.58 17.48-12.52 35.54-25.48 55.84-33.72 6.34-2.56 8.2 0 13.5 4.32 4.12 3.4 6.52 2 9.54 0a38.56 38.56 0 0 0 9.66-7.18 57.42 57.42 0 0 0 7.12-12.84c.62 13.88-5.3 15.16 1.5 21.88.24 2.4 1.34 9.5 2 16.76 0 .2.2 4 .12 4.48a8.8 8.8 0 0 1-1.4 3.64c-5.24 5.18-10.54 4.9-11.84 8-1.64 4 5.74 4.96 9.66 4.2 0 0 10-1.16 10.34-1.18 2-.12 4.4-.28 5.32-2.16 2-5.78-.32-8.76.26-14.76.32-2.12 2.68-15.42 3.22-18.3 6-6 2.72-12.52 2.78-31.66 4.24 1.84 8.8 5.84 13.1 6.3a64.1 64.1 0 0 1 1.3 17.14c-.72 5.42 1.1 7.16 4.52 10.98 3.84 20.18 9.02 23.8 10 33.54.12 2.78-.56 5.32 1.38 7.82 5.04 6.46 6.38 9.16 10.74 10a7.59 7.59 0 0 0 6.88-1.44 6 6 0 0 0 .6-6.04ZM158.2 183.6a195.8 195.8 0 0 1 27.3-17.12 51.35 51.35 0 0 1 32-4.84c12.98 2.46 17.4 5.58 94.28 41.26a32 32 0 0 0-10.16-.98 49.87 49.87 0 0 0-18 6.26c-35.52 20-59.48 41.28-158 121.7-32.32-15.22-54.6-30.34-82.86-51.32 1.58-4.36 5.48-7.22 8.86-10.26 46.7-42.3 92.9-74.66 106.58-84.7Zm-23.58 12.14c-.3 1.42-.68 2.64-1.08 4.52L128.6 204c-.3-10.24-.66-15.72-2.12-38.26a25.79 25.79 0 0 0 7.52-8.64 89.56 89.56 0 0 1 .62 38.64Zm46-95.36c.34.42 0 1.2-.18 1.66 0-.42 0-.92-.76-1.04.32-.32.52-.68.84-.62h.1Zm-2-1.22c.44-.12.58 0 .58.34-.02.27-.1.53-.24.76a8.13 8.13 0 0 1-3.64 2.38c-.38-.4-.3-.36-.5-.4 1.78-.78 2.58-2.46 3.8-3.08Zm-.98 3.26A9.09 9.09 0 0 1 176 104a2.23 2.23 0 0 0-.34-.8c.68-.2 1.34-.47 1.98-.78Zm-11.02 1a11.2 11.2 0 0 1 6.54-3.54 4 4 0 0 1 1.92-.28c.05.16.05.32 0 .48-1.14 1.3-1.24 1.38-1.88 1.54-.64.16-.52 1.2 0 1.08l.48-.14c1.1-.18.8-.32.8 0s.76.66.76 2.18c-.34.32 0 .88.48.82 1.74-.54 2.26-2 3.12-2.92.15-.17.33-.32.52-.44.36.54-.66 4.28-4.2 5.66-1.05.38-2.13.64-3.24.78-.24-.58-.6-.16-1.62 0a3.51 3.51 0 0 1-3.68-5.22ZM111.72 92c.56-.81.82-1.8.74-2.78 22.3-.24 29.7 26.58 31.54 28.78 1.22 1.4 4.4-5.2 21.24-13.82a4.58 4.58 0 0 0 5.12 5.52c-6 8.1-20.94 30.9-30.48 29.14-4.76-.88-7.82-5.08-10.88-8.26a17.76 17.76 0 0 1 3-8.58 15.6 15.6 0 0 0 0-13.44 39.99 39.99 0 0 0-9.26-13c-.58-.54-1.4.38-.82.88a39.58 39.58 0 0 1 8.08 11.02 15.06 15.06 0 0 1 .64 14.28 16.01 16.01 0 0 0-2 13.88c4.36 14.88 6.96 15.18 5.12 19.78a.28.28 0 0 0-.14.24 24.64 24.64 0 0 1-7.3 9.14c-.78-12-.54-14-2.96-14.88-.78-.3-1.82-.6-5.38 1.24-.84-12-1.62-17.76 0-24.5 1.66-7.1 1.12-12.9-3.02-18.82.78.39 1.6.66 2.46.8a.64.64 0 0 0 .62-.52c.2-2.76-.35-5.53-1.6-8a12.78 12.78 0 0 0-6-4.74 6 6 0 0 1 1.28-3.36ZM80.64 58.6a19.32 19.32 0 0 1-1.32-7.48c.86-6.88 8.18-10.5 14.38-8.5 1.5.68 2.93 1.48 4.3 2.38-8.66.7-15.32 5.44-17.36 13.6ZM90.12 72c-.16-1.18.38-3 1.76-3.28 2.32-.24 3.68 1.84 4.18 4.12a.28.28 0 0 0 .56 0c1.58-4.42 2.92-8.92 4-13.48 2.73.9 5.52 1.64 8.34 2.2a10.2 10.2 0 0 1 6.6 4.94 22 22 0 0 0 .36 4c.16.9.26 1.82.3 2.74 0 3.18-.88 7.62-3.36 9.62a5.02 5.02 0 0 1-4.3.92c-.48 0-.8 0-.88.44-.08.44 0 3.22.14 4.92a.42.42 0 0 0 .32.4c.38.36.4.86-.92 2.24-1.56-.62-11.38-4-12.56-5.52.64-3.5.28-3.46.94-8.42 0-.54.2-2-.4-1.84-2.38.8-4.74-2.28-5.08-4Zm-25.3 60a64.64 64.64 0 0 1 6.52-24.22 32.38 32.38 0 0 1 17.32-15.62c.2.77.62 1.46 1.2 2a8.1 8.1 0 0 0 3.46 1.58c3.54.96 9.76 2.4 13.4 2-3.8 12.22-3.52 10.5 3.1 18.14a.57.57 0 0 0 .54.13.59.59 0 0 0 .4-.37 18 18 0 0 0 2-9.22c0 .24.96.84 1.18.96a22.72 22.72 0 0 1 3.8 10.2c.16 3.7-.27 7.4-1.28 10.96-.53 3.6-.61 7.26-.26 10.88.2 2.32.72 11.3.82 12.42l-4 2a10 10 0 0 0-4-.32v-.12a.52.52 0 0 0-.18-.18C82.48 136.26 86 140.4 86 137.8c6.68-21.14 6.78-21.26 6.78-21.46a.52.52 0 0 0-.89-.37c-.1.1-.15.23-.15.37 0 0-5.18 16.1-7.28 22.96-.32.94.12 0 22.78 14.3a6.18 6.18 0 0 0-2.94 8 79.1 79.1 0 0 1-14.3-1.78c-21.48-4.2-26.58-13.56-25.18-27.82Zm50.5 42.56a718.3 718.3 0 0 1-23.9 14.3c-.4-12-.54-11.68 0-12.78.71-.78 1.6-1.4 2.58-1.78 18.14-10.5 16-9.4 16.52-9.5a1.82 1.82 0 0 0 1.34-.9l.64-.38c1.08.86 2-.22 2.5-1.54 1.04-.62.7-.46.92-.4.7.16 1.02-.42 1.28-.9l1.48-.86c0 1.66-.2 10.18-.2 10.38-.04 2.08-.04 2.72-3.16 4.36Zm.68-14.3a.52.52 0 0 1-.34 0s-.2-.44-1.78-3.32a.54.54 0 0 0-.7-.16.54.54 0 0 0-.24.68c.68 1.36.99 2.87.9 4.38-.1.4-.4 1.22-.78 1.1-.38-.12-.42-.58-.6-.98a6.78 6.78 0 0 0-2-3.06.54.54 0 0 0-.76.72c.54.8.91 1.7 1.1 2.64.36 1.08-.38 2.1-1.24 1.54-.98-1.22-.58-2-1.82-2.86-.84-.6-1.82-.24-2.58-.46a5.12 5.12 0 0 1 2.9-6c2.94-.46 5.7-.22 7.4 2.26a3.5 3.5 0 0 1 .54 3.52Zm-8.56 1.74c-.48.32-.86.58-1.42.38v-.12a6 6 0 0 1-.48-.76c.76.02 1.28-.24 1.9.5Zm-30.88-5.4a70.02 70.02 0 0 0 21.28 5.4c-3.4 2.01-6.77 4.06-10.12 6.14-4.02.2-8-.93-11.32-3.2-3.2-1.7-.76-5.12.16-8.34Zm-.74 9.4c3 2.07 6.53 3.24 10.18 3.36a730.79 730.79 0 0 0-10.6 6.76 22.2 22.2 0 0 1 .42-10.12Zm-62.74 98.68c-1.08-10.68-.88-12.9-1.82-26.16-.4-4.09-.4-8.21 0-12.3.5-4.03 2.56-7.7 5.74-10.22a92.92 92.92 0 0 1 10.66-7.08c17.16-10.28 44.48-30.46 72.18-46.64.73.05 1.47.05 2.2 0 3 0 2.92.48 3.18.56.72.84 1.76.56 2.7 0 .19.48.45.93.78 1.32-17.74 10.38-16.26 9.46-17.38 10.26-2 1.54-1.44 3.14-1.02 15.46a.6.6 0 0 0 .54.64c.58 0 24.36-14.18 27.26-16.3a3.46 3.46 0 0 0 1.48-3.2v-12a.65.65 0 0 0 .12-.62.66.66 0 0 0-.46-.44c-.34 0-.42 0-1.78.78a5.69 5.69 0 0 0-3.1-4.68c6.24-3.24 6.44-3.3 7.82-3.44 1.38-.14 2 .84 2.2 2.84.16 1.34.12.8 2.12 32.8-.4.4-113.38 78.44-113.42 78.42Zm25.12 27.16c-1.06 1.3-17.1 11.62-18.3 12.42a.62.62 0 0 0-.52.42c-.52 1.22-2.16.64-2.52-.7-.62-2.24-1.74-15.78-1.88-17.68 14.89-9.6 29.25-20 43.02-31.14 6.9-5.46 14.38-11.16 22.6-17.84 43-35.04 44.58-32.82 47.06-36 0 1.02.18 2 .28 3.16-32.22 24.28-56 44-79.42 65.18-1.99 1.6-3.8 3.4-5.38 5.4a31.28 31.28 0 0 0-4.94 16.78Zm54 44.18a2810.27 2810.27 0 0 1-40.92-27c-1.58-1.16-3.08-2.56-4.6-3.78a18.14 18.14 0 0 1-5.4-5.06c-3.06-6-2-14.6.92-20.76 25 18.74 53.16 38.52 82.54 51.14-6.32 5.18-3.16 10.74-3.32 16.94a14 14 0 0 0 1.82 7.42c-3.5-2.1-12.3-6.92-31-18.92l-.04.02Zm52.46 18.6a30 30 0 0 1-11.26 3.18c-3.12 0-7.12-.8-8.94-3.38a12.42 12.42 0 0 1-1.72-6.94c0-7.24-2.46-11.58 2.64-15.76 109.72-89.6 128.14-106.12 158.9-122.32a45.53 45.53 0 0 1 17.48-6c3.64-.22 7.3.2 10.8 1.24.6 6.92 2 15.28 2.96 21.5-7.06-4-14.94-7.86-22.78-7.02a35.99 35.99 0 0 0-14.52 5.06c-25.8 13.66-43.84 30.4-79.26 58.48-12.22 9.7-45.58 36.12-56.7 48.1-.56.6-.64.56-.4 1.12 2 3.68 3.39 7.66 4.14 11.78.85 3.7.4 7.57-1.3 10.96h-.04Zm134.32-85.08c-20.22 8.2-38.44 21.2-56.28 34-31.38 22.48-24.24 16-40.38 27.46-10 7.16-23.76 16.96-35.62 22.7a17.6 17.6 0 0 0 .74-10.26 43.02 43.02 0 0 0-4-11.88c14.22-15.12 57.2-48.16 80-66.64 17.24-14.12 35.34-28.2 55.36-39.44a36 36 0 0 1 14.98-4.9c1.74 1.02 2.38 5.04 2.5 5.6a48 48 0 0 1-7.04 37.2c-1.26 1.8-2.66 3.3-4.16 5.18-2.07-.23-4.17.11-6.06.98h-.04Zm16.76 5.74c-2.84-1.3-5.68-5.24-9.38-6.46 8.56-8.8 14.66-24.96 11.32-41.4a16.76 16.76 0 0 0-2.38-6.84c7.12.32 14 4 19.24 6.88 1.5.8 1.36.96 1.66 2.8a14.8 14.8 0 0 1-.94 6c-2.04 6.9-12.32 40.12-19.48 39.02h-.04Zm19.62-15.14a25.06 25.06 0 0 1-12.42 13.06c-1.11.72-2.26 1.4-3.44 2 8-6.46 16.12-35.32 17.56-39.56.86 5.58 1.58 11.18 2 16.76-1.18 2.6-2.38 5.18-3.66 7.74h-.04Zm69.8-34.88a1697 1697 0 0 0-28.66 13.2c-.67.5-1.44.83-2.26.98-.18-1.36-.34-2.72-.52-4 2.52-.16 17.28-6.72 19.66-7.82 0 0 11.52-5.56 12.46-6l-.64 3.64h-.04Zm1.54-8.36c-.18.92-.36 1.82-.52 2.74-6.9 3.02-10.86 6-27.4 12.58-1.64.84-3.41 1.4-5.24 1.64 0-.54-.58-4.64-.58-4.64h.86a28.52 28.52 0 0 0 6.94-2 207.8 207.8 0 0 0 25.98-10.32h-.04Zm-30.26 5.52a.61.61 0 0 0-.12.47.64.64 0 0 0 .26.41c1.27.56 2.49 1.23 3.64 2a.76.76 0 0 0 1-.28 6.24 6.24 0 0 1 2.3-3.08c.29.84.34 1.75.14 2.62-2.76.96-5.64 2-8.72 2.84-.4.03-.79.03-1.18 0-.16-1.3-.4-2.56-.64-3.82a64.76 64.76 0 0 1 4.5-4.28c.47-.3 1-.48 1.54-.54a12 12 0 0 0-2.68 3.66h-.04Zm4-3.54a4 4 0 0 1 2.38 1.7 8.13 8.13 0 0 0-2.54 3c-.82-.47-1.68-.88-2.56-1.22.71-1.3 1.63-2.48 2.72-3.48Zm9.5-.5a2.9 2.9 0 0 0-2.32 1.64c-.22.65-.37 1.32-.46 2a.67.67 0 0 0 .13.59.69.69 0 0 0 .55.25h.48l-3.02 1.1a6.33 6.33 0 0 0-.6-3.26c2.94-4.16 8.44-4.94 10.5-1.62.12.28.28.56.42.84-.98.42-.82.4-.94.32a8.92 8.92 0 0 0-4.68-1.86h-.06Zm3.16 2.66-2.92 1.12a3.2 3.2 0 0 0-1.54-.66c0-.9.64-1.74 1.54-1.66 1.05.18 2.05.59 2.92 1.2Zm1.7-26.9c3.74 5.1 10.42 19.3 10.64 19.72a97.37 97.37 0 0 1-11.52-5.62c-.46-6.62-.76-10.8-1.36-15.86a6 6 0 0 1 2.24 1.76Zm-2.48 15.32a68.24 68.24 0 0 0 12.88 6.18c-2.7 1.32-5.44 2.54-8.2 3.74a5.84 5.84 0 0 0-5.26-3.74c.33-2.04.52-4.11.58-6.18Zm-1.02-.38a38.4 38.4 0 0 0-.92 6.66 8.77 8.77 0 0 0-6.18 4.26 5.1 5.1 0 0 0-8.2-1c-1.06.98-1.8 1.72-2.6 2.56-.82-.16-.68 0-.74-.3-.25-1.7-.59-3.38-1.02-5.04-.08-.56 9.22-2.46 19.66-7.14Zm-19.72 4.7a.3.3 0 0 1-.03.21.28.28 0 0 1-.17.13l-1.38.44a.26.26 0 0 1-.24 0c-.24-.14 0 .5-2.3-11.56-.58-3.02-1.12-6.12 1.84-7.36 1.85-.74 3.77-1.3 5.72-1.7 1.4-.44 2.83-.75 4.28-.94.4 0 .34.42.38.62 0 .06 0 .13-.04.18a.28.28 0 0 1-.14.12 59.27 59.27 0 0 1-8.1 2.74 3.36 3.36 0 0 0-2.3 1.64c-.34 1.44-.22 1.86 2.48 15.48Zm-1.76 2.84a18 18 0 0 0 .66 4.46 7.65 7.65 0 0 0-3.36 0 7.06 7.06 0 0 0-3.52 3.18 57.74 57.74 0 0 1-6.44-3.34c4.2-1.5 8.48-2.92 12.66-4.3Zm-8.14.78c.58-2.52 2-7.16 2.62-9.78.16.7 1.66 6.76 2 8.22l-4.62 1.56Zm6 5.16c1-.17 2-.17 3 0 0 .32.24 1.4.26 1.64-.6.76-1.16 1.56-1.72 2.36-2.84-1.18-2-.8-4.28-1.7a6 6 0 0 1 2.8-2.3h-.06Zm3.52 3.16c0 .54.2 1.06.32 1.58-.48-.1-.95-.22-1.42-.38.42-.42.8-.8 1.16-1.2h-.06Zm4.8-34.32c-7.68 2.14-10.72 1.2-11.8 3.5-.1.3-6.78 22.36-7.34 24a.32.32 0 0 1-.18.18l-.92.34a.3.3 0 0 1-.4-.34 125.8 125.8 0 0 1 2.82-9.76c4.42-13.62 4.12-13.8 4.26-14v-.12c.74-2 2-3.28 5.4-3.52 4.26-.84 6.28-1.38 8-1.52a.7.7 0 0 1 .7.54c-.06.18-.04.54-.54.7Zm-3.84 37.72c0 1.54.16 3.12.28 4.7-2.6-.22-7.56-3.28-16.22-6.98-.26-1.68-.52-3.4-.84-5.04 3.84 1.92 12.82 6.66 16.74 7.32h.04ZM354 108.9a38.28 38.28 0 0 1 8.48 5.1c20.9 20.28 5.54 63.7 5.06 72.34 0 2.94.88 6.5.14 9.22 0 .3-.28.96-.6 1.08-.32.12-.44-.24-.48-.46-.2-1.24-.16-1.76-.24-2-.08-.24-.86-.32-1 .26-.14.58-.14 2-.26 2.66-.12.66-.92.92-.96 0-.04-.92-.2-2-.28-3 0-.5-1.1-.56-1.2.2-.06.7-.27 1.39-.62 2-.58 1.2-1.12.2-1.12 0-.12-1.32 0-4 0-4.98a.62.62 0 0 0-.74-.58c-.24 0-.58.58-.76.74-.18.16-.66 0-.62-.32 0-1.3 1.76-2.84 2.2-4.28 1.52-6.2-4-18.32-4-30 0-1.12 0-2.28-.1-3.5-.38-5.9-6.52-11.8-8-26.62a.3.3 0 0 0-.05-.13.31.31 0 0 0-.1-.1.31.31 0 0 0-.27-.03l-.28.12c-.5-6.76.56-13.24 5.8-17.72Zm-31.72-18c0-2.28.14-4.56.3-6.82.5-.24.36-.1 1.52-1.2.18-.16.26-.34.4-.48a.5.5 0 0 0 0-.72c-.36-.26-.68 0-1.74.72l.12-1.22c1.93-.16 3.77-.85 5.32-2 .38.7 1.68.82 2.44.56a9.84 9.84 0 0 0 3.28-2 2.6 2.6 0 0 0 4.2.98c.16 1.28.45 2.53.88 3.74.76 4.98-.44 5.56.6 6.78a.9.9 0 0 0 .92 0c.38 1.64.34 1.64.54 1.86a.74.74 0 0 0 1.08-.16c.62-.94 0-5.88 2.74-6 2 .2 1.48 3.4.5 5.02-.36.62-1.54 1.18-1.54 1.88a8 8 0 0 0 1.32 4.16.34.34 0 0 0-.18.28c0 .62.3 5.12.3 5.32-.75.53-1.56.96-2.42 1.28a12.35 12.35 0 0 1-10.84-.46c0-.72 0-.82-.14-1.02a.5.5 0 0 0-.46-.18 8.2 8.2 0 0 1-7.02-2.18 12 12 0 0 1-2.14-8.18l.02.04Zm7.02 11.62c1.72 0 1.56-.58 1.66 1.54.14 3-.76 1.7-3.76 3.26-7.26 1.42-10.96.14-18-1.56 5.44-3.54 7.78-7.3 12-12.76.2 5.46 2.66 9.1 8.08 9.48l.02.04Zm-11.84 17.26a35.53 35.53 0 0 0-2.48 6.14 53.14 53.14 0 0 1-18.54-7.44 11.71 11.71 0 0 1-5.74-9.48c.18-6.16 5.4-10.98 11.02-15.24 6.2-4.48 12.8-8.35 19.74-11.56-.24 3.02-.4 8.48-.4 8.8-4.64 5.78-6.8 10.4-13.76 14.48a.6.6 0 0 0-.38.56.6.6 0 0 0 .38.56c6.86 1.9 12.52 3.08 18.36 2a32 32 0 0 0-8.22 11.14l.02.04Zm2.7 47.1c1.18-3.84 1.32-3.36 2-5.84.26-1.7-.62-1.66-2.26-7.48a43.74 43.74 0 0 0 18.88 2.62c4.94-.24 11.86-1.16 16.3-5.86.2.56.38 1.14.52 1.72.8 7.18-.6 7.08 1.82 18.7-1.6 1.8-3.68 3.1-6 3.74a35.54 35.54 0 0 1-26.28-2.8c-1.57-.66-3-1.62-4.2-2.82a3.42 3.42 0 0 1-.8-2.02l.02.04Zm13.4 129.7c-.3 6.34 2.18 7.02.38 13.34-.5 1.4-1.88 1.52-3.34 1.66 0 0-9.72 1.02-12.3 1.24-2.26.4-4.59.12-6.68-.82-2.72-1.52.38-3.06 3.26-4.34a29.37 29.37 0 0 0 6-3.68 7.77 7.77 0 0 0 2.74-3.68c.72-3.12-.4-2 1.72-1.88.47.02.92-.14 1.28-.44a.72.72 0 0 0-.03-1.02.72.72 0 0 0-.33-.18 7 7 0 0 1-2.24-.18c0-4.52-1.04-3.38.84-3.02 1.04.2 1.76-.5 1.38-1.14a1.04 1.04 0 0 0-.98-.42c-.72-.18-.56-.16-.76-.16-.2 0-.44-.34-.88-.4-.36-3.78-.4-3.04 0-2.86a2.48 2.48 0 0 0 2.12.2c.6 0 .56-1.32-.16-1.32-1.24 0-1.68.12-2.42-.58l-.3-2.44a2.64 2.64 0 0 0 2.78.62.7.7 0 0 0 .38-1.11.7.7 0 0 0-.38-.25c-1.66-.44-.62.32-2.44-.56-.2-.12-.38-.27-.54-.44-.16-1.24-.32-2.5-.46-3.76 4 3.6 10.2 4.5 14.2.54 0-.04-2.68 15.56-2.86 17.04l.02.04Zm2.76-68.9c4.18 2.34 8.5 4.72 12.86 6.7 1.04.57 2.18.91 3.36 1 .12 1.34.24 2.68.4 4-2.52-.56-1.8-.62-15.82-6.98-.28-1.36-.3-1.18-.82-4.76l.02.04Zm1.02 6a75.15 75.15 0 0 0 11.58 6c1.32.7 2.73 1.21 4.2 1.5.16 1.48.34 2.98.54 4.48-4-.3-10-4.14-15.28-6.66l-1.06-5.44.02.12Zm4.22 10.84a3.77 3.77 0 0 1-2.74-3.58c0-.28-.14-.6-.2-.9 3.76 2.5 10.66 6.52 15.24 7 .14 1.27.38 2.53.7 3.76-3.6-.56-9.12-4.8-13.02-6.4l.02.12Zm12.92-3.52c1.3-.2 2.55-.72 3.62-1.5 1.04-.5 24.5-11.18 26.82-12.2-.2 1.24-.44 2.48-.68 3.7-3.3 1.38-10.44 6.16-23.14 12a28.42 28.42 0 0 1-6 2.54l-.64-4.66.02.12Zm2.9 9.56c-.5.15-1.02.25-1.54.28a31.82 31.82 0 0 0-.5-4c3.82-.8 24.78-11.52 28.48-14l-.28 1.26a10.34 10.34 0 0 1-5.38 6c-1.76 1-18.72 9.52-20.8 10.34l.02.12Zm30.5 79.44a8 8 0 0 1-8.22-.78 28.64 28.64 0 0 1-4.56-5.38c-1.58-2.12-3.46-3.76-3.46-6.48.72-11.04-5.14-14.4-9.54-34.78a10.9 10.9 0 0 0 5.06 3.64c1.57.18 3.15.03 4.66-.42a12 12 0 0 0 5.2-1.82v2.66c-1.02-.64-2.36 2-6.72 2a.58.58 0 0 0-.32 1.06 7.58 7.58 0 0 0 7-1.84v3.86a12.4 12.4 0 0 1-5.36 1.22.7.7 0 0 0-.7.68.69.69 0 0 0 .22.58.68.68 0 0 0 .6.16 8.8 8.8 0 0 0 5.2-.78c0 4 .16 3.08-.18 3.28-1.12.66-2 1.78-3.82 1.5a.58.58 0 0 0-.52 1c.2.48 2.86.78 4.64-.68.14 3.04 0 2 .24 4a5.17 5.17 0 0 1-3.48.8.58.58 0 1 0-.48 1.06 4.86 4.86 0 0 0 4 0c.2 2 .44 4 .8 5.88a16 16 0 0 0 5.46 7.8 23.37 23.37 0 0 1 4.98 6c.82 1.94 1.16 4.56-.7 5.78Z"/>
</svg>
