<svg xmlns="http://www.w3.org/2000/svg" fill="none" viewBox="0 0 400 400">
  <path fill="#171717" d="m25.5 162.32-.02-.02v.02h.02Zm334.76 28.08c0-1.16-.32-1.44-.76-1.44-5.68 0-11.38.28-17.06.42-1.28 0-1.72.38-1.7 2.28 0 4 .38 16.66.5 18 .14.84 16.62.16 18.18 0 1.18 0 1.08-.66 1.06-2.7-.02-2.04-.2-12.96-.22-16.56Zm-.76-.48c-.26 2.58-.3 15.16 0 18.72-5.83.19-11.64.3-17.44.34-.18-2-.46-18.5-.8-18.6l18.24-.46ZM176.78 97.3c2.52 16.16 14.2 12.5 23.84 10.9 7.06-1.16 15.32-2.28 22.18-3.72 10.56-2.28 10-7.46 8.84-15.84-1.32-9.22-2.88-18.52-4.3-27.76-1.24-7.84-3.62-15.62-13.36-14.56-8.98.98-20.26 3.52-29.26 5.3-13.3 2.68-14.14 4.76-12.36 16.8 1.38 9.58 2.92 19.28 4.42 28.88Zm9.32-44.76 21.5-4c14-2.74 16.54.36 18.64 13.64a4420 4420 0 0 1 4.24 27.04c2 12.42-1.54 13.18-12.78 15.04-7.18 1.2-14.34 2.52-21.54 3.58-8.88 1.3-15.76 2.18-18.56-10.86-1.84-8.6-3.06-19.6-4.32-28.52-1.82-12.8-.38-13.42 12.82-15.92Z"/>
  <path fill="#171717" d="M390 207.38c0-6.5-.18-12.96-.4-19.44 0-2.96 0-5.56-3.66-6-5.7-.6-58 1.88-68.48 2.34 6.5-5.54 52.68-46 55.14-49.84 1.8-2.8-.2-5.74-2-7.88l-10.9-12.46c-2.18-2.5-4.1-3.68-7.14-1.5-2.48 1.8-33.7 32.48-37.24 36a418.58 418.58 0 0 0 20-41.76c2.76-6.4 4.4-8.2-2.5-11.76A85.3 85.3 0 0 0 318 88.86c-5.12-1.14-6.16 2-7.74 5.64-4.24-1.26-8.48-2.56-12.72-3.8-3.64-1.06-4.58.82-5.44 3.84-4.58-1.08-8.48-2.84-10 3.22-11.34-.88-10 1.6-11.2 12.88-1.79 16.57-3.3 33.17-4.56 49.8-29.14-3.52-38.1 19.42-36.72 20.74 1.88.77 3.8 1.4 5.78 1.88a65.84 65.84 0 0 0-1.38 5.08 15.59 15.59 0 0 0-3.84-.56c-.48 0-1.04 10.96-.84 12.3a2.92 2.92 0 0 0 2.34 2.36c-.1 2 0 4.01.28 6a40.5 40.5 0 0 1-12.14 9.44c-3.02 1.36 20.92 9.76 27.3 10.36 0 1.52-.18 3.04-.28 4.56-12.98 1.06-40.12 7.66-54 18a34368.4 34368.4 0 0 0-6.28-55.08c-1.8-15.32-4.54-15.78-18.2-15.86-45.36-.2-92-.74-136.46-.38-7.3 0-11.36 3.8-10.72 11.58 1.1 13.52 10.22 83.44 12 99.18 1.04 10.58 4.36 12.9 14.32 13.66 8.84.66 18.82.44 27.78.66-.88 2.34-9.04 23.78-8.58 24.4-1.14 3.74-.74 8.58 2.96 10.76H61.3a20 20 0 0 0-15.16-15.16 28 28 0 0 0-17.2 2.58c-4.64 2.4-9.66 7.34-10.62 12.7h-7.64c-1.32 0-.46 14 .44 14h294.16c27.58 0 55.18.24 82.76-.12 1.5 0 1.1-14 .34-14h-10.46c1.12-13.76 2-26.1 3.3-42.98.28-.92-.92-.76-1.56-.76.24-2.38 2-23.08 1.16-23.5A86.34 86.34 0 0 0 378 260c-.96-3.02-1.32-3.54-2.44 0l-2.28 6.92c-.26-4.1-.16-8.26-.74-12.34-.88-6-10.92-3.76-10.86-.76.14 9.62 2 20.96 2.32 42h-2.32a192.93 192.93 0 0 0-9.2-25c-.88-2.82-6.36-6.6-8.42-9.42-.14-.18-1.04-1.62-1.38-.86-.54 1.28.86 12.16 1.06 13.16-.44.26 7.54 20.4 8.3 22.32-1.24.1-2.22 0-2 1.58 1.12 6 6.56 39.6 7.4 41.82h-37.2a27.78 27.78 0 0 0 18.84-17.22c5.24-13.6-.46-31.86-6.94-44.12-10-19.14-38.52-41.08-60.28-45.48 0-.8 0-1.62-.12-2.38 4.4.96 27.08 3.36 31.74 2.42 1.24-.26.5-14.42.4-16.12 26.36-.72 52.22-1.62 78.68-2 6.34-.12 7.32-2.04 7.44-7.14ZM19.18 339.54c1.75-5.1 5.45-9.3 10.28-11.68l5-.16c-3.68 2.74-7.52 6.98-8 11.82l-7.28.02Zm8.12 0c2.8-9.08 8.32-10.72 8.96-11.72 8 .84 9.5 4.98 10.54 11.66l-19.5.06Zm32.9 0H48c-1.2-6.6-2.18-11.02-10.1-12.42-2.03-.35-4.1-.4-6.14-.14 12.36-4.84 24.54-.68 28.58 12.6l-.14-.04Zm284.22-66a60.78 60.78 0 0 0-.54-6.32c.66-.14 2.74-1.02 2.84-1.52 1.66 1.5 3.2 3.12 4.6 4.86-2.16.78-4.64 2.04-6.9 2.96v.02Zm34.3 22.22h-8l1.1-22.18c2.77.25 5.56.36 8.34.3.38.4-1.24 19.58-1.44 21.86v.02Zm-3.72-31 3.38.28 1.52 8-7.8-.18c1-2.74 1.9-5.42 2.9-8.12v.02Zm-11.88-5.14c.6 0 8.16.5 8.82 0l.24 5.12c-2.89-.23-5.8-.14-8.66.28-.14-1.82-.24-3.62-.4-5.42v.02Zm.76 11.42c-.1-1.76-.22-3.52-.34-5.3.82.1 8.24.2 8.66-.38.4 1.78.32 3.64-.24 5.38-2.68.06-5.44-.04-8.08.28v.02Zm-13 25.86c6.48.3 25.44 0 29.66 0-1.56 14-2.48 28.94-3.56 42.66H358.4c-1.36-9.9-7.52-42.64-7.52-42.68v.02Zm-68-198.56c1.28-5.66 4.34-4 9.06-2.88l-1.04 3.74c-.38 0-3.34-.78-3.8-.4-.78.66-4.18 14.16-4 16.68 0 .88 2.1 1.12 2.94 1.3l-1.02 3.62c-1.02-.16-2.9-1.06-3.18.3l-3.6 17.08c0 .46.82.68 1.66.9l-1 3.62c-.88-.18-1.24-.48-1.58 0-1.22 6.98-2 12.88-3.82 19.7l-2.24-.54c3.59-19.32 7.16-38.65 10.72-58 .32-1.7.58-3.42.96-5.1l-.06-.02Zm-10.7 9.02c.82-8.44 1.06-9.32 9.74-8.64l-.64 3.46c-.74 0-5.44-.9-5.52-.14L274 118.9c0 1.12 2.9 1.14 3.8 1.2-.22 1.16-.44 2.32-.64 3.5-.9 0-3.32-1.08-3.44.3-.56 5.48-1.54 11.76-2 17.2 0 1.02 1.28 1.12 2 1.24-.28 1.34-.52 2.66-.76 4-.72 0-1.64-.62-1.7.2-.44 4.78-.86 9.8-1.3 14.56-.94-.18-1.88-.34-2.82-.46 1.38-17.78 3.22-35.56 4.96-53.3l.08.02ZM236 183.28c7.76 1.7 20 4.72 27.52 5.86a96.41 96.41 0 0 1 10.96-10.2 47.2 47.2 0 0 0-6.86 15.24l-32.86-5.84c.28-1.7.68-3.38 1.24-5.06Zm29.58 11.7c-.54 2.24-2.22 8.98-3.58 10.5-1.36 1.52-9.16.16-10.66-.82-2-1.26-.46-10.32-2.54-12.68l16.78 3Zm-31.18-5.58 11.5 2c-2.68 1.52-3.72 8.6-5.78 10.62-1.12 1.1-6.16-.36-7.58-.64.35-4.03.97-8.03 1.86-11.98Zm-2.76 11.82c-2.56-.14-1.52-4.6-1.04-12.66 1 .32 2.03.56 3.08.7a90 90 0 0 0-2.04 11.96ZM50 302.72c-9.04-.36-14.64-1.34-15.64-11.72-4.28-33.68-8-66.54-12.34-100.16C21.06 180.3 30 180 32 180c44.44.24 88.9.82 133.34.7 9.86 0 11.8 2.4 13.1 13.04 3.77 33.5 7.63 67 11.56 100.48.8 8.56-1.6 10.44-9.28 10.38l-66.44-.6c2.48-12.13 4.95-24.29 7.42-36.46.12-.64-2.74-3.14-3.4-3.16l-25.02-.5c-.36 0-1.24-.12-1.4.32-1.12.22-14.74 35.36-16.18 39.12-8.58-.22-17.18-.5-25.7-.6Zm92.22 2.64c-2.42 5.1-2 14.88.52 19.72-10.9 0-21.82-.36-32.72-.12 1.16-6.58 2.78-13.38 4.12-20 9.32.16 18.66.3 28.02.4h.06Zm-67.6 34c-3.42-.28-6-.98-7.06-4.54-1.44-4.48 1.82-10.1 1.38-10.54 2.58-6.94 5.08-14 7.74-20.82 4.98-13.02 10.34-26 15.82-38.8 1.28.26 23.2.58 25.7.64-.7.48-13.2 61.3-13.2 61.3 0 1.84-3.52 10.26 2.72 12.86l-33.1-.1Zm94.36 0h-24c0-.84 0-6.16-.76-6.16-8.26-.32-18.48-.48-26.76 0-5.5 0-8.62-.9-7.58-7.64l64.38.48c-1.38 2.72-4.26 10.72-5.34 13.46l.06-.14Zm-25.6-14.42c-2-5.86-3.08-15.16.16-19.7 2.7 0 43.8.7 47.34 0 0 .58 15.26 7.42 17.06 8.28-4.28 4-3.88 16.98.88 21.44l-4.58.9c.42-2.12 0-1.9-4.8-3.38-2.68-.82-23.38-7.38-24.72-7.38l-31.34-.16Zm72.38-8.72a26.2 26.2 0 0 0 11 .66c-.84 4.22-4.9 3.8-7.04 4.62-.28.1-.14.48 0 .5a8.5 8.5 0 0 0 6-1.72c0 3.74-2.46 5.26-5.68 6.14a.28.28 0 0 0-.14.12.28.28 0 0 0-.04.18.26.26 0 0 0 .19.25c.03.01.07.02.11.01l1.04-.2c.16 1.1.6 2.15 1.28 3.04-3.8 4.48-8.92 4-13.7 4-5.06-7.54-2.4-18.5 0-19.82l7.7-4c1.6-.54 9.24.78 9.34.98.1.2-1.4.9-1.6.96-2.5.94-3.58 0-5.26 1.42-.34.44-3.86 2.76-3.26 3l.06-.14Zm10.98 3.08a6 6 0 0 0 1.04-2.58l1.36-.28a75.7 75.7 0 0 0 2 13.56 7.52 7.52 0 0 1-6.54-4.56 6.62 6.62 0 0 0 2.08-6l.06-.14ZM176 339.5c1.08-2.14 2.44-5.8 2.74-6.46 4.38 1.56 22.24 6.44 23.5 6.44-5.26-.08-24.52.16-26.24.02Zm27.42 0c.2-.86.38-1.74.56-2.6 2.82-.44 4.42-.64 5.26-.8.84-.16.7-.62.6-.82-.1-.2-.22-.3-.36-.5 4.6.7 10.78-.32 13.78-4a11.11 11.11 0 0 0 9.1 3.54 21.99 21.99 0 0 0 2.56 5.24l-31.5-.06ZM272 233.82c19.36 4.14 45.58 23.38 56.1 39.6 8 12.28 15.68 34.22 10 48.52a26.58 26.58 0 0 1-26.44 17.52c-21.52-1.54-40-23.6-50.24-38.12-7.46-10.7-12.8-18.38-16-28.28 5.54-.9 14.26-7.44 16.38-13.04a54.5 54.5 0 0 1 14 5.2 188.7 188.7 0 0 1 42.86 29.7c2 1.9 4 3.82 6 5.7.24.22.6-.16.4-.4-11.28-13.78-38.6-32.34-55.06-38.86a30.63 30.63 0 0 0-8.42-2.22c-.34 0-.54.32-.64.6a43.4 43.4 0 0 0-4.54-8.9c5.14-2 10.18-4.34 15.38-6.18 2.5-.9.92-6-2.46-4.92-6.34 2-12.56 4.56-18.82 6.9-2.96 1.12-.84.38-4.88.26-1.62 0-4.52 0-5.5 1.56-2.96 0-5.88 1.82-5.54 4.32l-13.32 5.46-6.46 5.76c-.24.22 0 .72.3.72 2.96-.12 6-.34 8.9-.5 0 0 10.66-4.54 11.76-4.98.54 2 3.16 7.66 6 6.98.42 2.45 1.63 4.7 3.44 6.4-.66.1-.66.44-.5.86 4.48 12.52 12.6 23.64 20.28 34.4 9.06 12.72 24.4 27.22 39.84 31.62H251.2c3.8-6.76 5.66-31.74 2.8-31.68h-21.8c-3.4 0-3.38-.42-3.26 5.14-2.5 0-8 .26-8.48 3.4l-3.04-.26c3.6-2.86 2-2 5.1-2.44 6-.96 6.72-4.32-4.72-4.5-2 0-7 2.9-8.88 4.22-.58-1.18-16-7.82-17.2-8.12 6.52-1.82 6.42-5.1 6.16-9.1-.6-6.48-2-15.04-1.72-16.32a70.89 70.89 0 0 1 9.1-15.32 56.44 56.44 0 0 1 3.3-4c.24-.28-.12-.7-.4-.44a64.43 64.43 0 0 0-12.16 17.8l-3.04-26.4c20.86-14.78 46.96-16.5 54.22-18 1.12 1.44 6.64 2.28 8.38 2.48 2.2.3 11.84.44 16.44-2.14Zm-30.52 31.5c-2.44.72-9.6-10.52-.8-11.28.68 0 1.74.94 2.42.98.16 0 1.1-.44-.6-1.2-2.18-.94-5.04-2.22-7.42-1.3 1.02-4 6.32-3.52 9.36-2.42 1.23.54 2.42 1.18 3.56 1.9 1.72.9-.58-3.08-7.02-3.5 2.98-1.68 12-.48 14.36 2.5a43.3 43.3 0 0 1 4.96 10c-2.38 4.64-9.36 9.6-14.26 11.38-5.52-5.3-2.36-7.32-4.56-12.66-.12-.3-.64-.12-.52.18.41 1.78.61 3.6.6 5.42h-.08Zm23.88-19.12-2.18.86a4.22 4.22 0 0 0-1.44-3.7l2-.72a6.14 6.14 0 0 1 1.7 3.56h-.08Zm-1-3.8 1.48-.54a4 4 0 0 1 1.7 3.48l-1.3.52a4.77 4.77 0 0 0-1.8-3.46h-.08Zm-40.56 20.98-4.44.18c-.14-1.2 0-1.02-.76-2a25.7 25.7 0 0 0 3.04-2.86 5.88 5.88 0 0 1 2.16 4.68Zm49.76-53.58c-2 4-4 14.4-2.62 23.64a33.3 33.3 0 0 1-12.88 1.7c-4.38-.12-8.86-.72-10.44-2.28.38-2.32.45-4.68.2-7.02-.22-.7-10.36-1.04-13.86-12.3a33.3 33.3 0 0 1-1.48-10.96c2.08.47 4.2.8 6.32 1 4.54.56 4.48-9.78 8.42-11.62 1 .42 1.22 1.74 1.32 2.74.96 10.96-.76 11.58 10.26 12.62 3.06.28 4.16-.8 5.18-3.56a77.93 77.93 0 0 0 2.48-8.58l.76.14c-.48 2-2.66 10 1.18 9.76.92 0 1.52-1.16 2.28-2.1 1.52-1.72 3.8-1.72 4.56.52.76 2.24-.74 4.38-1.68 6.3ZM274 162c3.42-11.32 6.48-22.78 9.66-34.14l8.5-30.24c2.38-8.52.74-7.34 17.7-2.28-.72 1.6-1.42 3.2-2.14 4.78-1.16-.38-10.58-4-10.9-2.96-1.7 5.58-5.38 16.28-5.1 16.76a58.31 58.31 0 0 0 8.6 2.84l-1.52 3.4c-2.22-.72-8.16-2.98-8.48-2-2 6.16-3.4 10.9-4.98 16.38-.46 1.54 4.8 2.92 5.66 3.2-.52 1.14-1.02 2.3-1.52 3.46-1.38-.46-5.4-2.5-6-.76-1.62 5.26-3.4 10.52-4.66 15.88-.12.54 2.72 1.44 3.14 1.6l-2.64 6A33.94 33.94 0 0 0 274 162Zm6 2.36c2.38-4.82 4.48-9.8 6.68-14.72L310.6 96c3.02-6.74 4-7.76 10.46-5.24 4.85 1.92 9.56 4.18 14.1 6.76 2.42 1.78 1.26 4.12.3 6.4a446.26 446.26 0 0 1-22.46 46.8 71.62 71.62 0 0 1-6.3 6.24c2.56-4.5 4.9-9.13 7-13.86.28-.92.16-.76-.54-1.18a107.8 107.8 0 0 0-14-6.62c-.98-.34-1.48-.86-2 .16-2.3 5.04-4.78 10-6.76 15.16-.48 1.3 13.8 6.84 15.32 7.36l-15.46 15.04a32.4 32.4 0 0 0-10.26-8.6v-.06Zm25.84-7.32c-5.62-2-9.68-4.44-14.78-6.58 2.56-4.84 4.7-10 6.98-14.92.56.34 13.72 6.8 14.96 6.92l-7.16 14.58Zm-8.48 28.64a49.82 49.82 0 0 0-6.62-12.1L321.28 144l26.98-26.22c5.42-5.26 6.76-7.62 11.02-2.74 15.08 17.28 16.22 15.78 8 23.42a1612.06 1612.06 0 0 1-46.66 41.82l-4.74 4-18.2 1.04a.38.38 0 0 0-.34.42l.02-.06Zm6.52 29.88a105 105 0 0 0-6.36-29.4l20.66-1.02c22.12-1.08 44.26-2 66.4-2.34 4.34 0 4 2 4.14 5.38.16 4.98.48 10.58.48 15.4 0 8.52-.58 9.72-6.44 9.86l-78.88 2.12Zm-95.2-126.3c3.88 1.82 7.36-2 9.02-5.1-.26 4.36 2.46 4.32 4.28 2.56 3.7-3.56 3.74-5.32 2.92-4.6-1.24 1.04-4.3 5.72-5.72 4.48-1.42-1.24.36-10.94.64-13.06a.26.26 0 0 0-.06-.21.26.26 0 0 0-.2-.09.3.3 0 0 0-.28.2l-.82 3.24c-2.7-6-14 .16-12.12 9.34a4.31 4.31 0 0 0 2.34 3.24Zm-1.3-6.32c.86-6 8.96-10.56 10.34-5.62a10.44 10.44 0 0 1-5.42 10.9c-3.08 1.36-5.56-.68-4.9-5.3l-.02.02Z"/>
  <path fill="#171717" d="M247.62 206.62c-5-1.24-4.72 1.1-1.16-11.18 0-.28-.34-.5-.48-.22a38.59 38.59 0 0 0-3.08 10c-.22 1.6 3.3 2.12 4.56 2.2a.46.46 0 0 0 .42-.28.46.46 0 0 0 .04-.18.49.49 0 0 0-.1-.2.5.5 0 0 0-.2-.14Zm135.32-1.86c-.1-3.6-.2-9.04-.22-9.4-.1-3.66 0-6.86-.4-6.82l-16.94.4c-1.42 0-1.46-.14-1.52 1.46-.16 5.28.42 11.7.54 17.16 0 1.32-.44 2 1.34 1.84l16.68-1.02c.42-.08.6-.28.52-3.62Zm-17.66 3.68c.08-6.19-.17-12.38-.76-18.54l17.18-.42.26 18-16.68.96ZM183.16 96.14c2.48.03 4.95-.4 7.28-1.26.6-.28.12-1.18-.46-.9-.38.16-.78.3-1.18.4.52-3.14.84-6.3 1.2-9.46l8.34-1.7 4.12 6.98c-.32.14-2.28.66-1.58 1.12.7.46 2.16-.76 5.02-.86.68 0 1.08-1.64-2.46-.62A318.27 318.27 0 0 1 192 68.38c2.7-.58 1.42-1.34.88-1.18-2 .56-4 1-6 1.52-.32 0-.32.64 0 .62.32-.02.82 0 1.22-.16-1.12 8.64-2.23 17.3-3.34 26-.6.07-1.2.22-1.76.44a.32.32 0 0 0-.12.42.28.28 0 0 0 .28.1ZM191.7 70c1.78 4.24 3.78 8.39 6 12.42-1.7.34-6.46 1.32-7.72 1.82l1.7-14.24h.02Zm-2.66-.96 2-.44c-.94 7.88-2.42 18.22-2.88 26l-2.68.5c1.56-7.28 2.52-17.96 3.56-26.12v.06ZM256.7 210.9a.32.32 0 0 0 0 .18c-.1.28.14 3.6-4 2.48a.25.25 0 0 0-.1 0 .26.26 0 0 0-.21.22.28.28 0 0 0 .13.28c3.56 1.62 6-2 4.88-3.2a.4.4 0 0 0-.56-.12.4.4 0 0 0-.14.16Zm85-79.04 11.32 11.86c.58.62.64 1.2 1.62.22l12-12c.2-.2 0-.36 0-.58-.14-.86-11.22-11.8-11.52-12.38-.3-.58-.4-.76-.74-.42l-12.64 11.8c-.66.64-.6.76 0 1.48l-.04.02Zm12.88-12.36c3.72 4 7.46 8 11.18 12.1L354 143.38a148.2 148.2 0 0 0-12-12.12l12.58-11.76ZM102.54 249.66c15.86 1.38 10.62-28.82-3.62-27.46-12.76 1.22-12.22 26.08 3.62 27.46ZM325.2 148c3.53 4.31 7.37 8.37 11.48 12.14.28.24.52 0 .76-.22 4.32-4.2 8.94-8 13.22-12.32a.52.52 0 0 0 0-.7c-.16-.22-8.78-10-11.6-12.42-.76-.64-1.1-.9-1.82-.22l-12 11.24a1.8 1.8 0 0 0 0 2.48l-.04.02Zm-.24-.98 13.32-12.48c3.59 4.45 7.4 8.71 11.42 12.78-4.21 4-8.47 7.95-12.78 11.86-3.66-3.36-7.1-6.95-10.3-10.74-.28-.26-1.12-1.64-1.66-1.34v-.08Zm-86.08 49.52c.98 0 1.4-2.92.66-2.86-.74.06-1.42 2.78-.66 2.86Zm62.06-64.78c3.08 1.86 13.54 6.32 14.58 6.72.36.14.48-.2.6-.46 2.26-5.18 4.74-10.28 7.12-15.44.36-.8.18-1.1-.58-1.5-2.4-1.3-11.8-5.68-14.56-6.72-.76-.28-1.16-.38-1.52.42-2.28 5.02-4.66 10-6.9 15.08-.28.64.1 1.2 1.26 1.9Zm6.68-17.1c2 1.26 12 6.3 14.94 7.44a711.06 711.06 0 0 1-7.12 15.38 116.78 116.78 0 0 1-15.08-6.96l7.26-15.86Zm2.08-3.68 14.3 6.52c1 .46 1.2 1 1.82-.5l6.18-15c.16-.36-4.24-2.42-8.34-4.48-5.42-2.72-7.42-3.64-7.64-3.16-2.33 5.07-4.67 10.15-7 15.26-.36.86-.22.96.68 1.36Zm6.98-16 14.5 7.02c-2.1 4.97-4.2 9.97-6.3 15a140.74 140.74 0 0 0-15.16-6.72c2.28-5.12 4.64-10.16 6.96-15.22v-.08Zm-63.04 104.06c.6.22 1.72-2.52.64-2.8-1.08-.28-1.44 2.52-.64 2.8ZM25.48 162.3c.52 0 4.68-5.02 5.58-5.76.9-.74.26-1.32-.2-1.86a34.02 34.02 0 0 0-2.66-2.44c12.26-16.12 45.56-42.24 66.88-39.76a4.96 4.96 0 0 0 9.34 3.28c14 9.32 2.64 30 15.48 39.38-2.18 5.8 6.82 8.86 8.7 3.38 19.84 2.98 44.9-13.3 59.52-24.9.83.88 1.71 1.7 2.64 2.48.56.46 1.04 0 1.52-.38 1.38-1.1 4.66-3.78 5.02-4.2.36-.42-3.1-4.56-4.88-6.24-.92-.88-1.1-.76-2 0-1.84 1.52-5.38 4-5.24 4.6.67 1.02 1.4 1.99 2.22 2.9-14.56 11.46-38.94 27.36-58.54 24.62a4.66 4.66 0 0 0-8.46-3.26c-11.16-8.58-2.2-26.78-12.6-37.02l21.9 9.86a4.22 4.22 0 1 0 .48-.98l-25.42-11.38a4.96 4.96 0 0 0-8.76-3.78c-8.62-3.62-17.24-7.26-26-10.42a4.32 4.32 0 1 0-8-3.28c-2.34 4.34 4.66 8.84 7.54 4l24.62 10.12c-20.76-1.52-55.4 24.26-66.46 40.46-.52-.5-3.26-2.96-3.72-2.58a76.94 76.94 0 0 0-5.26 6.34c-.62.84 6.26 6.72 6.76 6.82ZM186.32 130c.86-.96 4.6-3.68 5.24-4.3 1.71 1.7 3.33 3.5 4.84 5.38a53.82 53.82 0 0 1-5.22 4.26 61.11 61.11 0 0 1-4.86-5.34Zm-65.44 25.36a3.68 3.68 0 0 1 6.94 2.32c-1 4.7-9.16 2.64-6.94-2.32Zm9.86-28.28a3.2 3.2 0 0 1 6 1.42c-.04 5.5-8.2 3.5-6-1.42Zm-62-26.68c-1.8 3.82-7.4.12-5.88-2.74a3.24 3.24 0 1 1 5.88 2.74ZM24.3 150.1c.62.92 4.96 4.46 6 5.5-1.52 1.62-3.26 4-4.78 5.72a60.46 60.46 0 0 1-6-6c1.7-1.64 3.3-3.39 4.78-5.22Zm312.2 41.38c-.12-1.44.2-2-1.52-2-5.52 0-11.06 0-16.54.58-1.38.12 0 18 .24 19.22 0 .46.46.36.8.32 1.52-.12 12.1.68 16 .36 2-.18 1.68-1.3 1.64-2.98-.16-3.82-.32-12.14-.62-15.5Zm-16.92 17.42c-.8-6.52-.34-12-.7-18.12 5.64.2 11.28-.14 16.92-.28 0 .7 0 17.16.5 18.48l-16.72-.08Zm.18-33.84c.32.28.58 0 .8-.3 1.16-1.22 11.1-8.9 12.7-11.06.4-.58 0-.68-.38-1.22-2.62-3.26-7.7-8.38-10.52-11.28-.98-1.02-1.32-1.68-2.48-.62-3.88 3.62-7.88 7.16-11.56 10.98-.8.86-.68 1.1.18 2 3.34 3.24 8.74 9.38 11.26 11.5Zm1.22-24.24c.38.5 10.5 11.68 11.66 12.28l-12.52 11.08c-4.64-4-7.54-8-11.6-12 4.3-3.48 8.36-7.54 12.46-11.36Z"/>
</svg>
