<svg xmlns="http://www.w3.org/2000/svg" fill="none" viewBox="0 0 400 400">
  <path fill="#171717" d="M215.06 242.22c-.52-6.24-.72-12.5-.58-18.76 0-.52-.76-.66-.82 0-.65 6.27-.59 12.6.2 18.86a.6.6 0 1 0 1.2-.1Zm-9.06-2.34c.04.08.1.15.17.2.07.05.16.07.25.07s.18-.02.25-.07a.45.45 0 0 0 .17-.2l-.82-18.94a.4.4 0 1 0-.8 0c-.27 4.77-.21 9.56.16 14.32.01 1.56.22 3.11.62 4.62Zm52.42.8a26.5 26.5 0 0 1-1.02 9.16c0 .46 1.34 3 2.18-4.3.53-4.93-.5-9.9-2.94-14.22-.26-.48-.94 0-.72.42a25 25 0 0 1 2.5 8.94ZM234.18 96.1a6.5 6.5 0 0 0 1.44 4.14c1.2 1.08 3.06-3.12 8.64-3.78v-5.4a14.8 14.8 0 0 0-10.08 5.04Zm52.58 144.46c0-4.12-.36-8.22-.44-12.34 0-.56-.86-.44-.86.12 0 4.26 0 8.56.18 12.84.08 2.82 1.18 1.78 1.12-.62ZM248 90.96l.12 5.4c6.9.24 8.9 5.44 9.64 3.82.32-.74 1.62-4.44.92-5.08A16.18 16.18 0 0 0 248 90.96ZM104.46 58.5c-1.04.56 0 3.02.82 2.48s.32-3.14-.82-2.48Zm-1.32-6.02c-1.4.14-1.44 1.58 0 1.76 1.04.08 2.05.4 2.96.92.54.36 1.12-.36.8-.86a4.18 4.18 0 0 0-3.76-1.82Zm-3.58 7.04c.53 1.4.96 2.85 1.26 4.32.34 1.72.32 2.18.24 2.28-.32.01-.64.05-.96.12-.58.2-.58.94.32 1.36a1.36 1.36 0 0 0 1.52-.2c1.04-1 .6-3.82-1.28-8.38a.6.6 0 1 0-1.1.5Z"/>
  <path fill="#171717" d="M389.44 300.44h-28.38c2.62-14-12.94-23.86-22.62-18.7a20.32 20.32 0 0 0-21.48-16.18 22.97 22.97 0 0 0-11.4-16.52c-.94-11.2-.52-22.6-.5-33.66 1.7.12 5.78.5 5.12-1.12-2-4.96-5.42-13.24-8-18 1.04 0 2.22 0 2.22-1.06.32-19.2.94-59.48.94-59.48.32-23.84 1.12-51.24-15.62-70.86-.52-.62-1.24-.84-1.7-.2a76.22 76.22 0 0 0-13.08 32.4c-.68-11.4-1.58-24.28-3.34-37.02-3-21.62-10.24-36.14-22-44.76-1.12-.82-2.76-2.14-3.5-1.62-18.36 13-23.76 35.68-25.04 52.42-.46 7.12-.6 14.34-.42 21.5-2.46-9.18-10.9-27.1-14-22.78-14.44 20.68-13.22 47.4-12 70.98 2 44.92 2.6 56.5 2.86 59.52 0 .98 0 1.64 2.76 1.34-5.82 15.42-7.02 18-6.5 18.44.52.44 2.58.3 3.58.24-.14 6.74 1.46 39.5 1.24 41.24a22.01 22.01 0 0 0-3.46 5.88 24.14 24.14 0 0 0-15.6 13.22 15.3 15.3 0 0 0-7.78 1.28c-2.4-26.62-7.32-66.86-13.34-93.66 10.3 1.34 15.22-3.28 17.6-7.28 6-10.46 2-27.84-5.44-37.46A98.52 98.52 0 0 0 143.54 104c1.22-2.32-2-12.86-10.18-17.2-3.5-1.86-8.16-2-10.3-4-4.58-4.48-1.5-16.4-11.04-19.52a90.19 90.19 0 0 0-3.06-14.56c12-5.16 11.38-19.12 4.3-23.08-6.6-3.68-10.24 1.54-14.58 3-6 2-11.1-2.32-18.98-2.32-14.86 0-18.38 14.96-19.16 15.7-.78.74-1.08 4.96-7.7 7.56-7.04 2.74-16 2.9-19.82 11.18C29.78 68 36 76.84 31.72 83.54c-2.5 4-11.48 4.24-18 14.7-6.98 11.14-4.64 26.26 4.98 32.54-8.28 18.6-7.9 38.38.98 51.7 8.12 12.14 21.36 16.7 35.74 16.32-.72 33.88-.42 67.66-2.22 101.76-6.5 0-13.02.14-19.4.26a.68.68 0 0 0-.48 1.16c.13.13.3.2.48.2 5.7.12 12.44.24 19.28.24-1.1 19.86-2.58 40-4.4 59.74-.18 2 4.5 1.88 6.48 2a35.04 35.04 0 0 0-.62 8.44c-1.52 1.34-3.74 10.5-3.62 12.2 0 .36.16.58.4.62 2.2.36 35.44 2 36.98.18a.48.48 0 0 0 0-.46c-2.22-6-10-11.06-16.36-12.7l1.72-7.66c1.32 0 4 .2 4.38-.5a746.91 746.91 0 0 0 24.18-61.84h29.08a766.4 766.4 0 0 1 14.66 53.9c1.7 7.32.52 6.92 5.24 7.14a33.5 33.5 0 0 0 1.02 8.46 35.53 35.53 0 0 0-2.74 11.36.44.44 0 0 0 0 .44c1.26 1.6 37.16 2.94 39.62 1.48 2-1.28-8.96-11.9-18.68-13.86.14-2.55.08-5.12-.18-7.66 1.7 0 5.62.46 5.62-1.22 0-18.88-.64-39.1-2-60H389.5a1.02 1.02 0 0 0 .67-1.76 1 1 0 0 0-.73-.28Zm-270.9-35.68c4.98 13.7 7.64 22.22 12.14 35.86h-27.86c4.86-14.38 11.58-36 16-54.18 1.5-6 4.52-3.46 3.42 1.42-1.28 6.02-3.76 16.76-3.7 16.9ZM169 371.56c-3.42 1.56-12 1.46-15.34.5-.22-2.86-.8-5.72-.84-8.58l15.72.18c.14 2.64.3 5.26.46 7.9ZM57 198.78c16.8-.84 36.78-8.52 53.5-20.58.36-.26.68-.32.78-.66.1-.34 0-.62-.6-1.48 4.7-2.2 9.63-3.86 14.7-4.94 2-.36 7.86-1.48 8.92-4.66l4.36-.12c4.2 8.7 10.88 14.74 18.36 16.62l4 23.78c-33.04 11.38-63.2 13.8-103.9 8.26.14-5.38.16-10.84-.06-16.22H57Zm52.42-121.9c-2.8 7.26-8.64 7.56-7.7 9.28v.62c.38 3.18 1.12 9.72-4 14.34-8.64-3.44-14-7.4-18-13.16.84-1.46 0-7.84 0-7.9-1.24-6.52-6.92-7.84-5.64-13.74.18-.86.44-1.36.78-1.52 1.12-.5 4 3.36 4.6-1.12.94-6.4 2.74-11.34 9.08-13.14 5.88-1.66 11.56 1.18 19.16-1.44 1.72 7.12 4.68 20 1.72 27.78Zm-11.4 26c3.46-.86 6.42-9.36 5.7-14.12 5.4.76 10.71 2.02 15.88 3.76 18.8 6.7 35.12 21.02 46.14 40.46-7.52-7.2-17.36-11.26-26.26-10.7a88.6 88.6 0 0 0-9.74-13.08.58.58 0 0 0-.86 0 .6.6 0 0 0 0 .86 123.4 123.4 0 0 1 8.82 12.48 22 22 0 0 0-7.54 2.6c-.38.04-.75.1-1.12.2-1.1.25-2.22.4-3.34.46-4.68 0-4.86-2-6.54-1.78-3.34.34-2.36 6.94 5.32 8.34-1.38 3.86-2 12.36.58 16-3.08 0-5.06-.64-5.18 2.5-.04.57-.04 1.13 0 1.7a7.86 7.86 0 0 0-6.76-.84c-2.1.8-6.1 4.98-8.12 6.72 0-.84 0-2.12-.74-2.2-12.7-1.06-32-1.36-43.56-1.04-.63-8.16-.53-16.36.32-24.5a.64.64 0 0 0-1.26-.26c-.64 3.6-1.88 18.28-.58 24.82l-16.38 1.08a.6.6 0 0 0-.52.44.6.6 0 0 0 .22.64c.06.05.12.09.2.1a.5.5 0 0 0 .22.02c20.2-1.24 40.45-1.1 60.62.4a35.24 35.24 0 0 0 5.86 18.98c-26.68 19.22-70.58 31.78-88.5 4.54C8 162 14.4 128 38.32 107.24A82 82 0 0 1 78.5 88.56c3.62 6.9 16.9 14.92 19.5 14.28l.02.04Zm29.64 24.24a15.16 15.16 0 0 0-2.54 3.62c-3.74-.56-5.86-2.52-6.22-4.14-.28-1.12.38-1.58 1.76-.64a12.42 12.42 0 0 0 7 1.16Zm9.72 11.02a.7.7 0 0 0 .76 1.12c1.62-.64 2.38-.5 2.5-.2.12.3-.52 1.78-1.82 2.42-.84.42-2.46.8-3.7-1.46-1.02-1.84.72-3.86 0-4.28-.72-.42-2.76 2.68-1.02 5.4a2.24 2.24 0 0 1-2.5.1c-.88-.68-1.48-2.58-.46-6 .38-1.32-1.86-1.66-2.14 4-.12.78-.98 5.58-1.24 7.2s-.62 1.74-.66 1.76c-.04.02-.22 0-.38-.22-1.42-1.6-3.12-9.74-.4-16a11.66 11.66 0 0 1 10.5-7.32 8.3 8.3 0 0 1 8 11.02 4.63 4.63 0 0 1-2.82 2.94 2.88 2.88 0 0 0-4.62-.48Zm-14.72 16.94a3.22 3.22 0 0 0-1.34-1.66l.24-3.24h9.48c0 1.08.3 4.26.3 4.26-2.9.01-5.8.23-8.68.64Zm6.2-6.7c.53-2.19.9-4.4 1.14-6.64a4 4 0 0 0 5.2.6l.32.22c-.86 3.9-.96 7.94-.32 11.88h-2c.05-1.9-.15-3.78-.62-5.62-.58-.52-2.84-.44-3.72-.44Zm-15.4 4.84a7.84 7.84 0 0 1 7.56 2.18c.36.6.3.8.28.86-.02.06-1.2.22-2 .18a6 6 0 0 0-3.48.48 8.28 8.28 0 0 0-3.02 5.32c-.3 5.1 14.44 4.46 19.48 4.3-3.72 3.8-14.8 2.94-22.3 8.18a38.27 38.27 0 0 1-4.9-14.72c1.32-.6 6.26-5.86 8.38-6.78ZM176 172.24c-4.32 12.62-17.86 9.38-18.42 9.24-9.44-2.38-14.9-11.18-16.96-15.26 2.24-.52 1.6-2.72 1.38-4.84l17.44-.4c1.4 2.66 4.72 1.78 4.56-.88a2.48 2.48 0 0 0-4.76-1.06c-2.5-.22-14.8.12-17.38.4-.3-5.36 0-4.98-4.94-4.96a46.6 46.6 0 0 1 0-11.32 4.54 4.54 0 0 0 5.08-2.86c3.32-.42 6.66-6.18 3.72-12.34a8.47 8.47 0 0 0-5.34-4.22c15.26-.4 29.08 11.9 34.6 26.54.28 0 .46-.2 0 0a32.99 32.99 0 0 1 1.02 21.96ZM72 364.74a58.57 58.57 0 0 0-1.4 7.66c-4.86.5-9.77.56-14.64.16.32-2.78.62-5.54.92-8.32l15.12.5Zm266.6-81.82c4.36-3.58 23.64.98 20.76 17.58H173.74L172 278.34c10.14-3.52 17.58 1.84 20.2 8.36.46 1.22 3.04.18-.98-4.84a16.88 16.88 0 0 0-10.16-6c9.68-18.64 37.08-15.66 42.4 4.38.28 1.06 1.86.54 1.58-.52a24.34 24.34 0 0 0-28-17.54 23.19 23.19 0 0 1 38.2-4.94c1.84 2 8 13.72 10 15.1a23.15 23.15 0 0 0-3.02 9.2 18.3 18.3 0 0 0-10.84 10.74.62.62 0 0 0 1.14.5 17.57 17.57 0 0 1 30-3.8.86.86 0 0 0 1.2.2.86.86 0 0 0 .2-1.2 19.12 19.12 0 0 0-20.3-6.92 24 24 0 0 1 10.42-15.7 22.93 22.93 0 0 1 35.16 16.6.84.84 0 0 0 1.66-.14 24.74 24.74 0 0 0-15.34-20A22 22 0 0 1 292 248c11.68-1.8 21.7 7.18 23.18 17.76a20.52 20.52 0 0 0-14.62 10.34c-.36.68.74 1.28 1.12.62a19.57 19.57 0 0 1 22-8.92 19.36 19.36 0 0 1 13.48 18.86c0 .54.72 1.22 1.26.84.22-.14.86-.6.2-4.58h-.02ZM222.9 67.16c13.72-2.4 28-2.82 47.7-1.36 3.16 27.18 3.62 52.78 4.12 80.12-3.84-8.48-7.74-20.86-7.68-29.4A61.77 61.77 0 0 0 260 88c-5.48-10.46-12.9-17.86-20.98-9.18-11.2 12-10.4 26.48-10.18 42.54a96.56 96.56 0 0 1-4.58 20.98c-.7-33.34-2.64-57.9-1.36-75.18Zm80.16 127.48a14.37 14.37 0 0 0-4.44 0l.2-15.76a2.37 2.37 0 0 0-.6-2c-4.58-3.84-17.4-16.2-21.64-27.22 0-11.6-.18-23.36-.64-34.96 10.14-.3 19.62-.18 27.6 0 .8 19.5-.7 53.58-.48 79.94Zm-79.88 53.5a24.65 24.65 0 0 0-22.78 6.64c-.14-4.3-1.02-31.02-1.32-39.42l22.72-.44c-.06 4.06 1 29.3 1.38 33.22Zm44.28-117.82c3.66 15.14 10.22 31.32 29.62 47.78 0 5.4-.62 19.06-.26 24.26-.4 0-29.84.2-32 .38a644.37 644.37 0 0 0 2.64-72.42Zm-38.18.3c1.34 24.5 3.8 48.88 7.34 72.56-4.9-.12-27.88-.82-31.22-.66a1433 1433 0 0 0-.9-24 94.48 94.48 0 0 0 24.78-47.9Zm-6 84.26c1.44 0 4.62.34 4.44-1.08a46.21 46.21 0 0 0-3.66-9.02l12.76.18c.3 1.84.58 3.68.86 5.52-1.88 2-5.68 13.6-6.2 15.7a.92.92 0 0 0 .16.82c.48.6 1.74.68 3.08.68-5.82 9.22-2.66 20.62-.44 26.24a26.57 26.57 0 0 0-9.52-5.36c.46-3.66-1.22-30.32-1.46-33.68h-.02Zm10.24 21.68a24.7 24.7 0 0 1 2.96-8.78c9.23.37 18.46.27 27.68-.3 1.1 4.34 11.12 15.72-1.32 32.82a24.3 24.3 0 0 0-16.82 10.4c-7.08-10.7-14.3-21.26-12.48-34.14h-.02Zm32.18-84.44c-.3 20.16-1.54 37.82-3.02 57.14l-23.54.62c-4.44-30.74-6.34-52.74-8-78-.46-7.16-.92-14.58-.76-21.84.26-12.46 2.8-21.34 8-28 7.36-9.38 13.32-5.2 19.16 5.18 3.35 6 5.66 12.51 6.82 19.28 1.8 10.2 1.44 39.8 1.36 45.62h-.02Zm8.4 109.18a25.21 25.21 0 0 0-8.92-1.2 29.36 29.36 0 0 0 .82-32.7c1.3 0 4.76 0 4.36-1.22-.68-2.28-2.6-7.02-4.14-10.84-1-2.52-2-4.7-2-5.28l.6-5.78c1.86.3 10.76 0 13.78 0-2.54 8-2.2 7-2.74 8.38-.4 1.06-.6 1.58-.34 2 .26.42 1.32.4 4 .46 0 11.54.98 24.88 1.48 36.38a20 20 0 0 0-6.88 9.8h-.02Zm6.7-46.2 22.78.22c-.72 10.89-.69 21.82.12 32.7a21.7 21.7 0 0 0-21.28 2.18c-.42-11.7-.74-23.72-1.6-35.1h-.02ZM223 65.66c1.38-16.18 6.7-37.84 24-50.28 16.64 11.42 21.18 30.92 23.38 48.58-14.18-1.04-34.14-.9-47.36 1.7H223Zm-27 51.66c4.66 0 22-.24 26-.26l1.1 28.84c-3.7 9.6-12 24.36-19.78 31.6-.4 2 .12 14.88.22 17.2-1.46.14-2.92.28-4.28.48-.8-26.92-3.26-61.7-3.26-77.86Z"/>
  <path fill="#171717" d="M99.18 72.1c-5.42-.42-6.8-4.36-8-4-.32 0-.46.42-.54.64-1.7 3.7.46 8.3 4.24 8.3a6.46 6.46 0 0 0 5.3-4 .72.72 0 0 0-1-.94Zm-.96 1.38c-2.7 3.6-6.98 2-6.56-2.94a8.92 8.92 0 0 0 6.56 2.94ZM250 159.54a.9.9 0 0 0-1.78 0c0 3.02 1 40.28 1.56 44.32a.72.72 0 0 0 1.44 0c.9-12.72-.8-31.14-1.22-44.32ZM92 62.68c.64 0 .84-.68.7-1.38-.28-1.4-1.4-1.48-1.68-.68-.28.8.12 2.06.98 2.06Zm-2.12-8.46a4 4 0 0 0-3.22 3.88c.16 1.04 1.02 1.04 1.16.28.42-2.14 1.32-2 2.44-2.68a.78.78 0 0 0-.38-1.48Zm204.28 188c0 .38.74.26.82-.12.32-1.36-1.16-16.86-.92-21.06 0-.54-.8-.52-.84 0-.37 7.07-.06 14.17.94 21.18Zm-46 16.26c.4.3 1.02-.18.76-.62-.76-1.34-1.84-2.38-2.98-4.44a25.21 25.21 0 0 1-1.14-21.4c.22-.5-.58-.8-.82-.28a25.38 25.38 0 0 0 2.18 24.26c.53.93 1.2 1.76 2 2.48Z"/>
</svg>
