<svg width="400" height="400" viewBox="0 0 400 400" fill="none" xmlns="http://www.w3.org/2000/svg">
<path d="M87.6199 147.12L88.4199 146.64C87.7542 146.566 87.0846 146.742 86.5413 147.133C85.9979 147.525 85.6196 148.105 85.4799 148.76C85.4199 148.22 87.2199 147.38 87.6199 147.12ZM95.6799 152.52C96.9199 154.52 96.2199 155.06 94.3399 155.66C96.1599 155.9 97.0799 155 97.0599 154.06C97.0599 152.58 94.5199 149.46 93.0599 148.28C93.8549 149.74 94.7296 151.156 95.6799 152.52ZM87.9999 150.3C87.5799 150.54 87.8399 150.88 88.4199 152.2C88.441 152.262 88.4757 152.319 88.5214 152.365C88.5671 152.412 88.6228 152.448 88.6842 152.471C88.7457 152.494 88.8114 152.502 88.8767 152.496C88.9419 152.49 89.005 152.47 89.0613 152.437C89.1176 152.403 89.1657 152.357 89.2022 152.303C89.2386 152.248 89.2624 152.187 89.2718 152.122C89.2813 152.057 89.2761 151.991 89.2568 151.928C89.2374 151.866 89.2043 151.808 89.1599 151.76L88.5799 150.46C88.5528 150.411 88.5162 150.368 88.4722 150.333C88.4282 150.298 88.3777 150.273 88.3236 150.258C88.2696 150.243 88.2131 150.239 88.1575 150.246C88.1019 150.253 88.0483 150.272 87.9999 150.3ZM96.1799 149.02C96.4399 149.52 97.1799 149.02 96.9399 148.6C96.6999 148.18 96.5599 147.74 96.3399 147.34C96.1199 146.94 95.3399 147.34 95.5999 147.78C95.8599 148.22 95.9999 148.62 96.1799 149.02ZM96.4399 158C95.0342 158.689 93.4209 158.825 91.9199 158.38C92.186 158.752 92.5442 159.048 92.9593 159.24C93.3744 159.432 93.8322 159.513 94.2878 159.474C94.7435 159.436 95.1814 159.28 95.5587 159.021C95.9359 158.763 96.2396 158.411 96.4399 158ZM373.44 136.48L387.76 21.38L342.52 15.76L338 52.96L336.24 52.74L340.86 15.54L296.26 10C289.86 55.18 291.26 42.26 272.26 202.68L317.38 208.3C317.38 208.92 317.1 210.8 317.06 210.94L272 205.32C272 205.32 262 280.7 261.78 282.32C261.64 283.42 257.96 281.92 353.92 295.38L373.2 138.4L328 132.8L328.24 130.8L373.44 136.48ZM277.72 164C279.1 152.96 282.18 128.16 282.36 126.78L326.86 132.32C325.48 143.44 322.38 168.32 322.22 169.54L277.72 164ZM307.58 287.24L263.08 281.7L267.74 244.24L312.24 249.78C312.22 250 307.54 287.54 307.58 287.3V287.24ZM356.86 254.66C343.68 253.02 315.26 249.34 313.6 249.12L318.26 211.66C377.38 219.02 355.48 216.42 361.74 217.2C360.36 228.38 357.02 253.36 356.86 254.72V254.66ZM366.64 177.6C365.26 188.72 362.2 213.6 362.04 215.06C348.86 213.44 320.18 209.74 318.52 209.54C319.9 198.42 323 173.54 323.18 172.08C336.34 173.78 364.98 177.46 366.64 177.66V177.6ZM327 131.12L282.5 125.6C283.9 114.48 287 89.6 287.16 88.14L331.66 93.66C328.64 118 327.32 128.7 327 131.12ZM332 91.54L287.44 86L292 48.8L336.6 54C335.82 60.36 332 91.82 332 91.54ZM376.48 97.24C363.32 95.6 334.9 91.9 333.24 91.7L337.88 54.48L381.32 60C380 71.06 376.6 95.86 376.42 97.24H376.48ZM41.2399 151.36C41.9511 150.094 42.9266 148.996 44.0999 148.14C42.6841 151.673 42.496 155.578 43.5659 159.231C44.6359 162.883 46.9017 166.07 49.9999 168.28C50.5399 168.68 51.1399 167.94 50.8599 167.42C49.253 163.948 48.757 160.064 49.4399 156.3C51.2156 159.524 53.4225 162.492 55.9999 165.12C56.5599 165.72 57.4799 164.8 56.8999 164.22C54.4599 161.46 54.8999 155.88 55.1599 152.46C55.7399 145.06 59.9399 142.46 61.1599 138.14C61.2031 137.978 61.1813 137.806 61.099 137.66C61.0168 137.514 60.8807 137.407 60.7199 137.36C56.3075 136.866 51.8643 137.973 48.1999 140.48C44.1999 142.94 42.3199 146.76 40.1999 150.72C40.1665 150.852 40.1762 150.991 40.2275 151.118C40.2788 151.244 40.369 151.35 40.485 151.422C40.601 151.493 40.7368 151.526 40.8725 151.514C41.0083 151.503 41.137 151.449 41.2399 151.36Z" fill="#171717"/>
<path d="M267.34 51.6C266.18 47.94 262.82 38.96 258.22 38.18C254.92 37.62 254.66 41.76 254.22 43.98C250.22 62.26 233.3 70.76 220.34 81.98C211.22 89.98 206.98 100.08 203.08 111.14C201.08 110.92 199.08 112.76 197.72 114.16C190.58 121.04 184.4 128.7 177.8 136C171.52 142.96 162.28 149.08 163.04 159.3C152.74 169.08 142.58 179.14 132 190C125.4 181.14 119.08 175.78 106.94 173.4C103.126 172.621 99.2213 172.378 95.3399 172.68C94.4599 172.26 93.5999 170.56 93.1799 169.7C92.8434 168.789 92.4493 167.901 91.9999 167.04C93.7952 166.926 95.4905 166.174 96.7799 164.92C100.941 165.737 104.936 167.244 108.6 169.38C105.36 157.26 100.78 126.46 81.1999 128.4C78.8599 128.62 76.6999 130.02 74.4199 130.06C73.9274 130.054 73.4364 130.115 72.9599 130.24C58.9599 134.08 58.0999 150.76 63.7599 161.62C64.0547 162.276 64.4761 162.867 64.9999 163.36C66.6399 164.72 78.66 166.24 78.9999 167.72C80.4399 175.14 78.2999 177.48 73.3399 180.16C64.8999 184.62 57.9999 188.8 51.3199 196C38.0599 210.6 36.9399 227.86 45.8199 245.7C48.2999 250.64 53.8199 261.7 59.5399 262.24C61.5169 262.248 63.4614 261.737 65.1799 260.76C65.3599 260.76 66.5399 259.9 66.5599 259.92C67.8199 260.62 71.3999 262.56 70.5599 263.74C70.0199 264.5 68.7199 263.74 68.1799 263.24C68.1104 263.187 68.0262 263.158 67.9391 263.155C67.852 263.153 67.7662 263.177 67.6936 263.225C67.6211 263.274 67.5654 263.344 67.5343 263.425C67.5032 263.506 67.4981 263.596 67.5199 263.68L68.1799 266.36C68.3399 267.04 69.0199 268.24 68.5999 268.92C68.1799 269.6 66.3399 266.48 66.1399 266.06C66.0737 265.944 65.971 265.854 65.8479 265.804C65.7248 265.753 65.5883 265.745 65.4599 265.78C64.5799 266.04 65.4599 267.78 65.6999 268.3C65.6999 268.54 66.4799 270.3 66.16 270.48C65.84 270.66 65.4199 270.04 65.2999 269.9C64.5599 268.96 64.3799 266.7 63.4999 266.7C62.2599 266.7 63.9399 270.16 62.6799 269.54C62.2199 269.32 61.9399 268.46 61.7599 268.02C61.2235 266.184 61.0336 264.265 61.1999 262.36C60.9432 263.744 60.8425 265.153 60.8999 266.56C60.5765 266.836 60.2817 267.145 60.0199 267.48C42.5999 286.86 30.9399 299.06 20.7999 312.9C18.6199 315.88 11.0799 323.58 12.3999 327.62C14.0599 332.74 22.6799 327.62 25.1599 326.18C35.1599 320.62 43.9199 313.3 52.7999 306.18C80.7999 283.86 113.4 255.98 144.52 226.8C153.872 224.253 162.563 219.716 170 213.5C174.223 209.867 178.1 205.85 181.58 201.5C182.123 200.976 182.507 200.31 182.688 199.577C182.868 198.845 182.838 198.076 182.6 197.36H184.6C185.533 197.389 186.46 197.2 187.307 196.807C188.155 196.415 188.898 195.83 189.48 195.1C189.72 194.56 189.48 193.92 188.5 193.84C188.88 193.84 189.64 193 189.84 192.74C190.84 191.46 190.1 189.82 188.46 190.48C187.7 190.8 188.14 190.78 188.46 189.8C188.527 189.599 188.542 189.383 188.502 189.175C188.463 188.966 188.37 188.771 188.234 188.609C188.097 188.446 187.921 188.322 187.723 188.246C187.524 188.171 187.31 188.148 187.1 188.18C185.615 188.475 184.166 188.931 182.78 189.54C184.651 187.822 186.396 185.97 188 184C189.3 182.34 191.76 182.86 193.72 182C199.48 179.64 203.72 173.48 207.98 169.2C215.04 162.04 223.3 155.64 229.78 147.98C230.96 146.62 233.78 143.86 233.78 141.62C233.78 141.62 240.2 138.94 240.7 138.72C268.92 125.72 277.3 82.68 267.34 51.6ZM77.3399 160.52C76.8996 160.786 76.3947 160.927 75.8799 160.927C75.3652 160.927 74.8603 160.786 74.4199 160.52C71.3399 158.98 71.3999 154.76 74.4199 155.84C75.0599 156.06 75.7999 156.96 76.4199 156.46C77.0399 155.96 76.82 154.8 77.16 154.2C78.56 151.7 84.2399 146.58 83.4599 139.78C86.4633 139.23 89.5562 139.436 92.4599 140.38C93.9247 141.195 95.0833 142.466 95.7599 144C95.3069 143.75 94.7745 143.685 94.2748 143.82C93.775 143.954 93.3467 144.277 93.0799 144.72C93.2799 144.72 95.7599 143.98 95.8799 144.24C97.6321 147.27 98.8753 150.567 99.5599 154C100.4 161.06 95.3199 166.32 91.2599 166.28C91.1846 166.274 91.1092 166.289 91.0416 166.323C90.974 166.356 90.9167 166.408 90.8757 166.471C90.8348 166.535 90.8117 166.608 90.8089 166.683C90.8061 166.759 90.8238 166.834 90.8599 166.9L91.5199 168.16C89.0399 171.74 82.2199 172.16 80.0799 171.1C79.7799 167.02 77.74 160.16 77.2599 160.52H77.3399ZM69.7999 182.52C73.6199 180.26 78.6 178.88 79.7999 174.26C82.1027 174.822 84.49 174.951 86.8399 174.64C88.0851 174.551 89.2963 174.194 90.3906 173.593C91.4849 172.993 92.4364 172.163 93.1799 171.16C93.1897 171.06 93.1897 170.96 93.1799 170.86C93.589 171.459 94.0729 172.003 94.6199 172.48C94.7717 172.605 94.9321 172.718 95.0999 172.82C95.363 172.929 95.6451 172.986 95.9299 172.986C96.2148 172.986 96.4969 172.929 96.7599 172.82C96.3576 172.913 95.9359 172.871 95.5599 172.7C98.4865 172.58 101.417 172.781 104.3 173.3C105.081 182.56 102.496 191.791 97.0199 199.3C89.2339 192.38 80.0541 187.21 70.0999 184.14C69.1207 183.965 68.1325 183.845 67.1399 183.78C67.9999 183.4 68.9199 183.06 69.7199 182.58L69.7999 182.52ZM72.7199 253.5C71.9599 254.34 66.72 259.24 66.9799 260.04L66.5999 260C67.6537 258.696 68.3438 257.137 68.5999 255.48L80.8599 242L82.8599 242.26C80.2999 245.12 79.8199 245.62 72.6399 253.56L72.7199 253.5ZM124 198.2C122.36 193.28 117.32 183.94 116.9 184.56C116.48 185.18 121.88 193.26 123.54 198.56C112.74 209.78 86.2199 238.56 83.5399 241.46C78.8923 241.116 74.2937 240.285 69.8199 238.98C69.2645 233.863 68.0892 228.833 66.3199 224C70.0799 221.14 76.3199 215 76.0199 214.74C75.7199 214.48 69.6999 221.1 66.0199 223.76C65.9956 223.791 65.9824 223.83 65.9824 223.87C65.9824 223.91 65.9956 223.948 66.0199 223.98C68.0542 229.96 69.1997 236.207 69.4199 242.52C69.5199 246.9 69.4199 255.52 66.2799 259.06C65.3267 259.896 64.2113 260.526 63.0035 260.912C61.7956 261.297 60.5212 261.429 59.2599 261.3C56.1399 260.56 53.9999 256.8 52.3199 254.36C46.267 245.88 42.5871 235.938 41.6599 225.56C40.3999 208 51.4399 194 66.3399 184.44C69.177 184.649 71.9408 185.438 74.4599 186.76C82.8783 190.155 90.6002 195.07 97.2399 201.26C100.342 197.355 102.611 192.856 103.908 188.04C105.205 183.225 105.502 178.195 104.78 173.26C117.64 175.26 124.24 180.62 131.4 190.52C128.94 193.1 126.46 195.64 124 198.2ZM202.6 112.38C201.559 115.322 201.131 118.446 201.34 121.56C200.74 118.8 199.78 112.62 202.62 112.38H202.6ZM181.7 199.58C181.46 200.06 178.52 203.48 178.68 203.28C173.254 210.121 166.437 215.732 158.68 219.74C154.954 221.979 151.015 223.842 146.92 225.3C145.22 225.86 177.26 195.52 180.24 192.34C182 199.12 182 198.94 181.7 199.58ZM187.7 189.28C187.653 189.517 187.558 189.742 187.42 189.94C186.773 190.764 185.963 191.445 185.04 191.94C184.937 192.026 184.868 192.144 184.843 192.276C184.817 192.407 184.838 192.543 184.902 192.66C184.965 192.778 185.068 192.87 185.191 192.921C185.315 192.972 185.452 192.979 185.58 192.94C189.06 191.46 189.28 191.34 189.48 191.3C189.48 192.84 185.88 193.72 185.96 194.48C186.04 195.24 186.94 194.8 187.96 194.62C188.14 194.62 189 194.48 189.04 194.62C189.08 194.76 188.42 195.44 188.6 195.24C186.94 196.72 184.86 196.5 182.6 196.74L181.28 191.6C181.16 191.12 180.8 191.6 181.96 190.48C181.973 190.539 181.999 190.594 182.035 190.642C182.072 190.69 182.118 190.73 182.171 190.758C182.224 190.786 182.283 190.803 182.343 190.807C182.403 190.811 182.464 190.802 182.52 190.78C186.46 189.44 187.14 189.04 187.64 189.28H187.7ZM228.42 147.76C223.6 153.14 216.86 158.94 211.98 163.38C204.64 170 198.46 180.18 190.56 181.7C187.529 181.97 184.476 181.603 181.596 180.621C178.716 179.639 176.074 178.065 173.84 176C165.44 167.5 158.4 157.34 174.88 141.04C180.5 135.48 185.66 129.44 191 123.6C193.4 121 197.66 115.26 199.82 113.6C199.512 114.971 199.424 116.382 199.56 117.78C200.78 135.6 223.78 149.48 231.22 144.5C230.336 145.645 229.381 146.734 228.36 147.76H228.42ZM220.78 142.66C223.68 143.58 225.24 142.92 228.2 142.66C229.435 142.55 230.663 142.376 231.88 142.14C229.86 145.62 225.24 144.74 220.72 142.66H220.78ZM267.62 85.28C266.38 85.28 266.14 83.42 265.14 82.64C264.729 82.3984 264.254 82.2881 263.779 82.3238C263.303 82.3596 262.85 82.5396 262.48 82.84C261 83.92 259.9 87.2 255.2 90.12C253.3 91.3 251.62 91.56 250.2 89.74C247.44 86.24 249.94 81.56 249.82 77.52C249.859 76.47 249.613 75.4291 249.11 74.5069C248.607 73.5847 247.864 72.8154 246.96 72.28C244.56 71.16 240.96 72.5 239.56 70.06C238.16 67.62 241.98 65.86 243.32 64.68C249.48 59.26 254.8 52.2 255.74 44.04C255.699 43.4464 255.791 42.8512 256.008 42.2976C256.226 41.7441 256.565 41.2461 257 40.84C258.7 39.74 260.68 41.8 261.58 43.64C264.981 50.7302 267.222 58.3199 268.22 66.12C268.48 68.34 271.02 85.16 267.56 85.28H267.62Z" fill="#171717"/>
<path d="M197.44 351.74C195.491 350.794 193.437 350.082 191.32 349.62C190.04 349.3 187.84 349.24 187.2 347.9C186.32 346.06 186.92 343.16 186.86 341.16C186.38 322.64 179.62 305.46 169.94 289.88C170.001 288.617 170.155 287.36 170.4 286.12C170.2 279.1 164 275.52 159.58 271.06C153.241 264.412 147.367 257.335 142 249.88C141.2 248.8 133 240.24 133.28 239.1C131.28 241.1 96.7201 272.44 67.9401 295.78C67.9401 310.64 59.6201 321.48 64.3801 328.44C70.0201 336.7 81.3401 330.44 90.0001 327.9C92.2401 360.54 90.0001 359.34 88.9801 371.66C88.4401 377.88 86.9801 383.98 90.8601 389.54C90.9652 389.718 91.1175 389.863 91.3001 389.96C92.5308 389.903 93.7423 389.633 94.8801 389.16C94.5001 387.82 94.0601 386.48 93.7801 385.16C94.0201 386.14 100.64 386.56 101.48 386.64C103.2 386.8 114.5 386.42 111.7 382.5C110.42 380.72 103.32 378.5 102.8 378.26C111 363.84 117 344.96 120.12 329C124.61 328.73 128.891 327.011 132.32 324.1C133.24 323.24 142.8 311.7 142.96 311.82C155.44 320.22 168.68 331.2 174.18 345.2C177.6 353.92 174.44 355.68 181.98 361.68C182.7 362.24 185.84 361.3 185.24 360.14L184.28 358.28C184.8 359.24 191.28 357.24 192.14 356.94C193.933 356.35 195.636 355.516 197.2 354.46C199 353.16 198.54 352.34 197.44 351.74ZM112.04 353.74C110.814 355.396 109.09 356.616 107.12 357.22C103.02 358.6 95.2401 358.78 92.2201 354.88C92.3439 345.785 91.9566 336.691 91.0601 327.64C100.82 324.96 107.6 330.04 119.18 329.12C117.45 337.486 115.049 345.699 112 353.68L112.04 353.74ZM139.4 289.74C127.4 292.74 132.4 300.12 119.72 307.74C115.72 310.14 112.2 311.86 107.5 310.78C102.18 309.56 97.7401 306.96 92.1601 308.68C87.3001 310.18 83.1001 313.52 77.9601 314.14C72.2801 314.8 68.7801 311.46 67.1601 306.72C67.3201 305.94 67.4801 305.16 67.6201 304.38C67.8003 305.9 68.2998 307.364 69.0856 308.677C69.8715 309.991 70.926 311.123 72.1801 312C76.8201 315.02 82.5001 311.86 87.1801 309.64C94.7401 306.02 97.6001 306.52 103.66 308.6C110.24 310.84 112.38 310.86 117.92 307.62C120.004 306.469 121.979 305.13 123.82 303.62C126.98 300.84 128.16 296.84 130.78 293.62C135.28 288 143 288.36 149.24 286.86C156.78 285.04 161.44 279.86 160 272L161.24 273.2C161.51 276.313 160.691 279.423 158.921 281.999C157.152 284.575 154.543 286.455 151.54 287.32C147.6 288.5 143.42 288.66 139.4 289.66V289.74ZM178.82 334C176.203 335.579 173.135 336.241 170.1 335.88C162.809 326.138 153.802 317.808 143.52 311.3C145.493 309.144 147.828 307.35 150.42 306C157.5 302.52 166.16 300.94 169.64 290.9C175.96 301.46 182.46 314.38 184.5 326.56C183.516 329.618 181.511 332.245 178.82 334ZM182.98 64.4999C190.2 58.3399 200.4 49.1199 210.5 49.1999C200.287 45.9883 189.295 46.2698 179.26 49.9999C173.26 52.4799 157.5 62.3999 162.12 71.0199C166.36 80.3999 179.02 67.9999 182.98 64.4999ZM178.78 51.2999C188.34 47.6999 197.38 48.7599 206.78 49.1199C197.34 49.6199 189.48 56.9999 182.64 62.7999C179.1 65.7999 167.4 78.5999 162.88 70.7999C158.18 62.5199 173.06 53.4599 178.78 51.2999ZM188.64 84.8799V84.7599C181.72 87.8399 174.64 92.9999 173.36 100.96C172.92 103.7 173.24 109.14 177.36 108.24C180.46 107.56 181.88 103.54 183.1 100.96C185.42 96.0399 187.56 90.9599 189.4 85.8599H189.26C180.24 101.32 180.44 106.42 176.98 107.28C174 108 173.44 104 173.58 102C174.7 93.9999 182.82 89.2199 188.64 84.8799Z" fill="#171717"/>
</svg>
