<svg xmlns="http://www.w3.org/2000/svg" fill="none" viewBox="0 0 400 400">
  <path fill="#171717" d="M299.42 126a.54.54 0 0 0-1.08 0c0 .18-.32 2-.32 2.1a.75.75 0 0 0 .17.62.77.77 0 0 0 .9.2.77.77 0 0 0 .43-.82l-.1-2.1Zm7.78 2.52a.82.82 0 0 0 .72.9c1.18 0 .66-1.82.68-2.96a.54.54 0 0 0-1.08 0c-.02.1-.32 1.96-.32 2.06Zm-.6 10.4a6 6 0 0 0 3.78-.92c0 .3 0 .62.24.68a.4.4 0 0 0 .22-.02.4.4 0 0 0 .18-.14c.4-1.06.74-2.14 1.02-3.24.14-.68-.9-1.2-1.12-.48a4.4 4.4 0 0 1-4.4 3.22.46.46 0 0 0 .08.9Z"/>
  <path fill="#171717" d="M380.14 337.78c-1.62-.6-28-12.42-40.18-19.6 2.36-2.1 2.44-2 2.32-2.34-12.52-29.14-13.78-33.88-16-39.32-2.22-5.44-1.06-8.14.1-12.86 1.1-4.36 4.48-14.1 4.78-19.52l.28-4.7c4-7.54 17.78-34 20.18-38.58 4.12-7.6 2.48-11.3-3.62-14.72 1.54-10.42-7.42-30.72-25.86-39.34-.14-2-2.18-3.38-3.48-4-.1-.76-.15-1.53-.14-2.3.63.82 1.5 1.42 2.5 1.7a.36.36 0 0 0 .34-.12c.28-.4-1.02-1.12-1.08-3.52.92 1.52 3.02 1.54 2.9.88a32.5 32.5 0 0 1 1.22-17.2 4.87 4.87 0 0 0-.6-4.88c2.34-1.38 1.72-4.98.28-7.2-2.2-3.4-6.22-5.42-11.88-6.42a11.27 11.27 0 0 0-9.24 2c-1.8 1.08-7.5 4.98-6.34 10.3-1.42 2.12-1.48 5.68 1.02 6.56h-2.92a.9.9 0 0 0-.74.7c-.28 3 0 6.9 2.76 8.5-.46 5.2-.5 6.64-2 8.74a.28.28 0 0 0 0 .32c.26.5 2-.34 2.52-.66 1.22 1.22 0 2.3.78 2.42.8 0 1.56-.28 2.16-.8l.66.36a6 6 0 0 0-3.52 2.3c-4.28.8-8.36 2.45-12 4.84-26.14-15.46-57.82-34-59.34-34.88-3.42-1.9-8.18-2.94-11.58.38-.56.56-7.54 11.78-10.6 16.78-.6-30.16.44-96.92-20.36-114.78-4.84-3.64-54.78-3.18-65-3.3-38.62-.64-83.84-.76-90.16 2.28C10.46 24.66 10 52.16 9.7 72.24v59.82a1.58 1.58 0 0 0 .92 1.08c1.04.28.76-2.32 9.06-12.36 1.76 1.8 8.78 9 9.66 9.7 1.74 1.38 3.08-.2 4.22-2a72.25 72.25 0 0 1 6-7.4c1.14 1.06 7.02 7.8 7.86 8.64 1.52 1.48 2.82 0 4-1.68 1.36-2 6.46-7.68 6.68-7.88.22-.2.34-.22.6.14 1 1.38 4.98 7.1 6.5 9.08-2 29.46-.96 83.5 2.18 118.72-27.52 8.2-43.06 36.62-47.78 52.56-7.54 20.24-11.54 48.42-.14 66.76 6.96 11.2 18.84 17.74 35.38 19.44 200-2.74 186.56-2.4 186.56-2.86 0-50.46.1-47.24-.16-47.38-24.92-13.64-121.66-68.22-146.64-81.9a62.18 62.18 0 0 0-31.32-2.9c10.42-4 21.88-4.32 32-4.36 6 0 110.8.74 118.1 1.34a46 46 0 0 1 19.08 6c14.32 9.58 61.68 37.86 90 54.76 19.22 11.48 29.74 18.36 53.2 28.12-134 0-125.18-.16-125.18.3 0 47.82-.12 46 0 46.16.12.16 121.58-1.52 121.7-1.62a27.21 27.21 0 0 0 5.5-7.14c4.38-7.2 3.84-26.92 2.84-37.44a.32.32 0 0 0-.16-.15.32.32 0 0 0-.22-.01Zm-80.52-218a7.2 7.2 0 0 0 3.82 2.92h-4c-.06-1 0-2.01.18-3v.08Zm22-8c-.74.32.22.72.42 3.36a19.65 19.65 0 0 0-6.36-4.38.44.44 0 0 0-.4.78c3.38 1.8 6.12 4.6 7.86 8 .36.84 0 1.86-.6 4.24-2.32-5.34-8-7.66-10-8.36.23-1.27.26-2.58.1-3.86-1-.45-2.06-.72-3.14-.8a.92.92 0 0 0-.88.52c-.2.89-.32 1.8-.38 2.7-2.58-.7-7.08-1.22-9.9.58.14-4.16 4.42-6.94 8.18-8.9a13.5 13.5 0 0 1 8.34.16 14.2 14.2 0 0 1 6.88 3.48c1.42 1.44 3.04 4.56 1.76 6.16a18.78 18.78 0 0 0-1.39-3.72.44.44 0 0 0-.57-.04l.08.08Zm-10 .52c0 .18-.38 2.34-.44 2.72l-2-.7c.1-.83.26-1.65.48-2.46.64.08 1.27.2 1.9.36l.06.08Zm-4 12.6a.52.52 0 0 0 .5.28 2.2 2.2 0 0 1 1.9 1.38.4.4 0 0 0 .2.25.4.4 0 0 0 .32.03c.74-.2 0-1.76-.7-2.26h3.5c0 .68 0 1.26-.2 2-.68 4.42-5.54 5.74-7.54 1.72a8 8 0 0 1-.52-4c3.3.14 2.14-.08 2.46.52l.08.08ZM300 130c-3.46 2-5.06-3.18-4.76-6.54 1.72.1 6.68.54 6.68.54.08 2.18.08 4.82-1.92 6ZM68.84 247.66c-6.4-90.46-.58-132.74 0-160.3C69.36 62 70.16 24 43.36 15.46c25.24-.58 129.44-2 139.48 2.76 2.48 1.2 10 12 14 31.44 7.34 31.76 6 168.6 7.74 196.96-39.14-1.38-117.1-1.08-123.18-.74-4.24.17-8.44.77-12.56 1.78Zm250-77.18a122 122 0 0 0 6 13.48 60.57 60.57 0 0 1-9.82 15.28 12.62 12.62 0 0 0-6.28-3 3.8 3.8 0 0 0-3.4 1.72 101.61 101.61 0 0 0-6.66 10.46c-1.26 2.48-2.52 4.78.74 6.66 6.12 4 10.8 6.5 16 9.36 2.28 1.26 4.44 2.32 6.72.98 2.28-1.34 8.88-12.7 8.92-14.32 0-.8-1.36-2-2-2.5a24.34 24.34 0 0 0 14.28-11.38c2-2.95 3.5-6.2 4.46-9.64 4.86 2.72 6 6 2.8 12-.96 1.84-23.22 45.02-32.16 60.72l-113.38-69.02c0-2.6 0-5.24-.14-8a97.45 97.45 0 0 0 11.68 6.28 16.7 16.7 0 0 0 4.32-5.04 2.23 2.23 0 0 0-.44-3.26c-.44-.36-12.72-7.44-15.78-9.12 0-2.22-.56-28-.74-37.74 1.58-2.46 11.18-18 11.74-18.66a7.43 7.43 0 0 1 8.48-.6c2.02 1.1 94.66 55.34 94.66 55.34Zm-10.6-11.34a56.1 56.1 0 0 0 5.4-4.82 4.64 4.64 0 0 1 4.36 2.58c.52 1.36 3.8-4.64 4.28-8A45.06 45.06 0 0 1 346 179.46a17.66 17.66 0 0 1-2 13.46 31 31 0 0 1-7.2 9.82c-3.48 3.02-16.56 7.16-18.68 7.56a4 4 0 0 1-4.6-1.54c-2.9-5.6 6.68-9.68 12.2-23.38.33.5.71.97 1.14 1.4.56.5 1.62-.16 1.12-.8-2.24-2.76-8.26-16.98-9.14-20.56a.56.56 0 0 0-1.08.22c.1 1.04.3 2.07.62 3.06a3452.17 3452.17 0 0 0-31.42-18.72 31.74 31.74 0 0 1 9.42-3.82 12 12 0 0 0 .6 8.92.3.3 0 0 0 .52 0 4.25 4.25 0 0 1 4.14-1.34 73.2 73.2 0 0 0 4.42 5.14 1.66 1.66 0 0 0 2.18.26Zm21.02 52.54a71.49 71.49 0 0 1-7.46 11.88 3.2 3.2 0 0 1-2.42.8c-1.02-.14-18.4-10-19.72-11.1-1.06-.72-.76-1.5-.16-2.78a118.3 118.3 0 0 1 8-12.62c.82-.4 4.74 1.28 6.56 2.4a14.76 14.76 0 0 0-2.46 4.2c-2.36-.86-3.6-1.14-4.1-.94a1.56 1.56 0 0 0-1.06 1.52c.17.53.36 1.05.58 1.56 0 .14 0 .4-1.32.82-1.32.42-2.72.12-3.44 1.48a1.79 1.79 0 0 0 .6 2.1c.22.16.46.27.72.32a2.58 2.58 0 0 0 2.32 2 2 2 0 0 0 1.06 1.16 4.44 4.44 0 0 0 4-.86 35.02 35.02 0 0 1 3.88-1.78c1.75.35 3.55.23 5.24-.34 2.46-.66 4.86-1.48 7.14-2.26.78.18 2.26 1.86 2.04 2.44Zm-16.14-.76c-3.3 1.4-3.8 2.32-4.9 2.46a1.27 1.27 0 0 1-.98-.34 17.8 17.8 0 0 0 2.46-1.18c.05-.03.1-.07.12-.12a.44.44 0 0 0 0-.5c-.5-.6-4.16 1.66-4.68 0 .93-.2 1.82-.55 2.64-1.02.09-.03.16-.1.2-.2a.36.36 0 0 0-.46-.48c-1.15.4-2.38.5-3.58.28-.64-.42.8-.5 1.62-.76 5.44-1.66 1.74-4 2.62-4.34.32-.12.44 0 3.16.94a5.5 5.5 0 0 0 1.78 5.26Zm-108.38-36.64c2.98 1.8 14.18 7.88 15.12 8.66a23.14 23.14 0 0 1-3.32 4.82c-.22.28-.28.28-.48.18-.2-.1-8-4.34-11.18-6.3l-.14-7.36Zm101 102.98c-13.04-7.7-89.84-52-100.1-58 0-4.36-.2-9.06-.3-14l107.26 64.48a20.36 20.36 0 0 1-6.86 7.52Zm-12-5.1 11.14 6.38a21 21 0 0 0 3.44 14.12c2.36 4.26 2.76 5.56 5.14 9.68-7.72-4.64-16.3-9.84-24.88-15.02l5.16-15.16Zm-88.18-51.22c9.66 5.7 39.5 23.04 64.3 37.42l-2.94 15.82c-39.66-24.12-39.24-26.74-60.74-27.5-.04-3.72-.18-13.2-.52-25.74h-.1ZM312.6 119.42a5.62 5.62 0 0 0 1.52 3.38h-6.9a10.9 10.9 0 0 0 5.48-3.38h-.1ZM298 132c.78.11 1.58-.02 2.28-.38-.17.35-.29.73-.34 1.12a1.56 1.56 0 0 0 .68 1.22 6.5 6.5 0 0 0 3.54 0 .4.4 0 0 0 .19-.2.4.4 0 0 0-.39-.57c-.79-.08-1.56-.24-2.32-.47.66-3.78 1.86-4.2 1.56-8.58h.36c-.1 2.64.14 5.76 2.72 7.34a5.18 5.18 0 0 0 4.32.54c3.18-.94 4-4.22 3.88-7.54.46-.03.91-.08 1.36-.16.07.95-.04 1.9-.32 2.82a.3.3 0 0 0 .34.4c1.86-.28 1.72-1.58 2-1.82 1.42-.88 2.48 1.18 2 2.56a3.09 3.09 0 0 1-3.06 2 .3.3 0 0 0-.14.03.28.28 0 0 0-.16.21 15.56 15.56 0 0 1-.42 7.7c-.16.42.48.68 1.4-.16.42-.38-.6 1.28-.26 4.42a18.48 18.48 0 0 1-.88 5.42c-1.26 3.8-8.38 9.62-8.94 10-.56.38-.44 0-.88-.3-3.42-2.86-8.1-9.12-3.32-15.28a.28.28 0 0 0 0-.3c0-.26-.36-.16-.56-.18-4.22-2.52-4.94-4.72-4.64-9.84Zm-248.62-3.74c-.34.46-.66.86-1.02.56-.36-.3-7.3-8.82-8.36-9.26-1.06-.44-2 .56-2.48 1.04-.8.9-4.96 6.54-6.1 8.14-.58.78-.9.74-1.14.58-.24-.16-5.44-5.44-8.14-8.2-2.14-2.28-2.14-2.32-2.66-2.34a.78.78 0 0 0-.54.26c-3 3.55-5.67 7.36-8 11.38C12 82.8 7.42 36.32 23.6 21.16c7.58-7.1 19.02-5.8 27.24.1 16.72 12.5 16.44 41.1 16.24 62-.18 17.62-.74 21.8-2 43.86-1.48-2.16-5.84-8.38-6.84-8.38s-8 8.32-8.86 9.52Z"/>
  <path fill="#171717" d="M248.92 277.36c-9.82-6.36-34.42-20.56-37.2-21.74-.68-.32-86.42.12-87.2.14-.24 0-.76.52-.68.86.08.34 46.96 22.62 47.16 22.7.2.08 73.04-.3 77.58-.66a.7.7 0 0 0 .63-.96.7.7 0 0 0-.29-.34Zm-77.48.5c-6.38-2.96-40.62-19.36-43.44-20.66 7.82 0 80.36-.34 83.26-.32 1.02.62 31.88 18.52 35.28 20.56-4.24.12-71.9.2-75.1.42Zm-53-175.22c5.7 5.02 11.2 10.42 15.68 9.48 3.48-.72 5.2-4.12 13.18-26.12 6.42-17.74 6-18 5.52-18.14-.48-.14-.54-.24-5.6 10s-13.22 27.22-15.78 27.6c-1.02.14-8.82-5.54-12.96-8.54-6-4.34-10.98-8.2-10.9-6.4.08 1.48 5.36 7.28 10.86 12.12Z"/>
  <path fill="#171717" d="M168.9 113.32c16.32-30.56-7.18-67.62-40.12-65.04-28.42 1.36-45.02 27.72-37.52 53.54 9.34 40.3 59.72 45.04 77.64 11.5Zm-58.46-58c7.46-4.58 16.7-5.7 25.34-5.02 26.22 1.9 43.62 32.82 33.88 57.16-14 34.8-61.26 34.9-74.54.12-8.34-21.34-2.76-40.36 15.32-52.18v-.08Z"/>
  <path fill="#171717" d="M104.4 143.86a.7.7 0 0 0-.58.69.7.7 0 0 0 .58.69c5.08.22 68.2.92 74.6-1.08.36 0 .22-.64 0-.58-7.52.26-73.32.26-74.6.28Zm-18.28 2.24c.76 0 7.34-.5 8.84-.48a.6.6 0 0 0 .5-.59.6.6 0 0 0-.5-.59 75.75 75.75 0 0 0-9.04.18.76.76 0 0 0 .2 1.48Zm57 8.58c-.84.14-.64 1.3.12 1.38 2.66.36 35.04.2 40.26-1.68a.55.55 0 0 0 .27-.28.56.56 0 0 0-.6-.78c-5.07 1.26-38.39 1.1-40.05 1.36Zm-9.84 1.56c.76 0 .66-1.18 0-1.1-1.8 0-8.88 0-10.64.1a.82.82 0 0 0-.82.82.82.82 0 0 0 .82.82c1.58.06 6.28-.4 10.64-.64Zm-20.34 1.16a.6.6 0 0 0 .6-.6.6.6 0 0 0-.6-.6c-3.7 0-26.46-.32-28.88-.14a.74.74 0 1 0 0 1.48c2.5.18 26.38-.12 28.88-.14Zm53.26 12.46a.88.88 0 0 0 0 1.76c2.64 0 13.88-.92 16.52-1.08a.56.56 0 0 0 .33-.9.56.56 0 0 0-.33-.2c-2.72.08-13.78.12-16.52.42Zm-77.74 3.38c7.68.98 63.26-.7 71.02-.64a.74.74 0 0 0 .44-1.2.74.74 0 0 0-.44-.26s-65.7 1.2-71 1.5a.3.3 0 0 0-.02.6Zm93.12 15.86a.3.3 0 1 0 0-.6c-5.18-.7-90.36 2.32-95.78 2.64a.32.32 0 0 0-.28.32c.04.54 55.52.06 96.06-2.36Zm3.82 20.24a.3.3 0 0 0 .22-.29.3.3 0 0 0-.22-.29c-9.22-.82-96.84 2.18-96.64 2.18a.3.3 0 0 0-.21.51.3.3 0 0 0 .21.09c17.58 1.2 76.24-1.18 96.64-2.2Zm1.18 18.1s-94 3.38-97.54 3.82a.3.3 0 0 0-.21.51.3.3 0 0 0 .21.09c10.56.2 60.62-.88 97.5-3.3a.56.56 0 1 0 .04-1.12ZM51.42 154.38c-3.35.69-6.78.92-10.2.7-.14-4.3-.2-7.34-.2-9.02a.82.82 0 0 0-1.62 0c0 2.36-.2 6.82-.26 8.62-1.44-.46-4.52-1.54-5.74-1.88a.96.96 0 0 0-.92 1.6 22.97 22.97 0 0 0 6.62 2.86c0 1.48 0 5.86.14 6.6a1.08 1.08 0 0 0 2.1 0 43.6 43.6 0 0 0 0-6.26c2 0 7.66 0 10.72-1.62a.86.86 0 1 0-.64-1.6ZM22 199.46c-15.62 5.4-9.38 26.16 4.56 26.16 5.8 0 12.16-3.54 13.6-9.72C43 204 32.86 195.72 22 199.46Zm-3.6 3.86a14.14 14.14 0 0 1 12.9-2.5c6.18 2 8.3 8.86 7.18 14.66-1.12 5.8-6.94 8.68-12 8.56-10.48-.3-16.28-14.32-8-20.72h-.08Z"/>
  <path fill="#171717" d="M27.36 219.4a.86.86 0 0 0 1.29-.14c.09-.14.14-.3.15-.46 0-4.24.46-8.96 3.72-12.28a.44.44 0 0 0-.27-.71c-.1-.02-.2 0-.29.05-3.06 2-4.74 5.76-4.86 10.84a121.36 121.36 0 0 0-7.56-6c-.5-.34-1.08.4-.6.78 1.52 1.14 7.06 6.52 8.42 7.92ZM282.68 64a15.78 15.78 0 0 0 17.5-10.62C303.1 40 292 30.98 280 35.12 263.42 40.84 269 62 282.68 64Zm-6.86-24.76a16 16 0 0 1 14.52-2.86c6.14 2 9.88 9.5 8.2 16.56a13.54 13.54 0 0 1-13.22 9.68c-12.08.06-18.92-15.9-9.5-23.32v-.06Zm-16.24 70.92c6.38.96 12.76-2.88 14.14-8.68 2.38-10-6-18.56-16.52-14.88-13.44 4.74-8.8 21.96 2.38 23.56Zm-5.48-20A12.64 12.64 0 0 1 265.54 88c5.34 1.62 7.68 8 6.54 13.14a10.62 10.62 0 0 1-10.7 7.66c-9.38-.3-14.64-12.52-7.28-18.58v-.06Z"/>
  <path fill="#171717" d="M286 57.3a.84.84 0 0 0 1.3-.13c.1-.14.14-.3.14-.47 0-4.76.42-10.12 4.22-13.78a.44.44 0 0 0 .02-.57.44.44 0 0 0-.56-.11c-3.48 2.34-5.3 6.5-5.4 12.36-2-1.74-6.96-5.82-8.58-6.98-.5-.34-1.08.42-.6.8 1.66 1.34 7.98 7.42 9.46 8.88Zm-25.26 46.04c0 2 .42 2 .6 2 .62 0 .76-1.28.84-2 4.14-.24 5.2-4.6.48-6.34v-3.6a2.7 2.7 0 0 1 2.1 2c.14.62 1.06.36.92-.24a4.2 4.2 0 0 0-3.06-3.18c0-1.14 0-1.26-.14-1.48a.52.52 0 0 0-.57-.13.52.52 0 0 0-.33.49c0 .36 0 .72-.12 1.06-4 .58-5.18 5.72-.64 6.4 0 1.02-.1 2.82-.12 3.62-2.78-.74-3.56-2.88-4.2-2.26a.37.37 0 0 0-.08.12.37.37 0 0 0 0 .3c.02.04.04.09.08.12a8.82 8.82 0 0 0 4.24 3.12Zm.56-9.76c-.1.8-.26 2.36-.34 3.24-.5-.03-.97-.24-1.34-.58-.68-.98.58-2.24 1.68-2.66Zm1 8.62s.22-2.4.28-3.3c1.12.42 1.88 1.12 1.88 1.74 0 .62-1.32 1.48-2.16 1.56Zm-21.68-10.66a12.64 12.64 0 0 0-6-14.4c-10-5.12-23.78 4.74-17.18 16.56a12.66 12.66 0 0 0 23.18-2.16ZM221 80.24A12.68 12.68 0 0 1 232.44 78c5.26 1.6 7.62 8 6.52 13.14a10.62 10.62 0 0 1-10.44 7.66c-9.46-.06-14.98-12.42-7.52-18.56Z"/>
  <path fill="#171717" d="M227.62 93.38c0 2 .42 2 .6 2 .58 0 .74-1.14.84-2 4.16-.24 5.2-4.6.48-6.32v-3.6a2.66 2.66 0 0 1 2 2 .48.48 0 0 0 .56.28.48.48 0 0 0 .36-.52 4.21 4.21 0 0 0-3.06-3.2v-1.08a.54.54 0 0 0-1.06 0c-.02.36-.06.7-.12 1.06-4 .58-5.18 5.7-.64 6.4 0 1.02-.1 2.82-.12 3.6-2.7-.7-3.56-2.88-4.2-2.26a.4.4 0 0 0 0 .56 8.88 8.88 0 0 0 4.36 3.08Zm.56-9.76c0 .78-.26 2.36-.34 3.22a2 2 0 0 1-1.34-.58c-.68-.96.58-2.26 1.68-2.64Zm1 8.62.28-3.32c1.12.44 1.88 1.12 1.88 1.76 0 .64-1.34 1.46-2.16 1.56Zm160.3 23.58c-2.03.5-4.1.83-6.18 1a22.4 22.4 0 0 1-.18-5.22.82.82 0 0 0-1.62-.14 37.86 37.86 0 0 0-.32 5.54c-1.88.14-3.78.2-5.64.5a1.02 1.02 0 0 0-.77 1.05 1.02 1.02 0 0 0 .89.95c1.9.22 3.82.16 5.7-.18.1.82.27 1.64.5 2.44a1.15 1.15 0 0 0 2.1.29c.15-.26.2-.58.12-.87-.16-.76-.32-1.52-.44-2.28 2-.42 4-1.06 6.24-1.68a.73.73 0 0 0 .15-1.34.73.73 0 0 0-.55-.06Zm-20.66 153.56a4 4 0 0 0 5.04-1.5c1.62-3.18-.72-7.22-4-6.7-3.66.56-4.84 6.54-1.04 8.2Zm3.08-5.22c1.28 1.68.14 4-1.78 3.4a2 2 0 0 1-1.44-1.8 2.74 2.74 0 0 1 1.34-2.36 1.74 1.74 0 0 1 1.98.76h-.1Zm9.42-21.02a1.07 1.07 0 0 0-1.16-.5 1.08 1.08 0 0 0-.84.94c-3.08 9.48-3.72 9.22-3.14 10a1.02 1.02 0 0 0 .84.4c7.18-.46 7.6.34 8.1-.84.04-.3.44.38-3.8-10Zm1.2 8.62-4.12.2c.66-1.62 1.3-3.34 2-5.22.5 1.46 1.38 3.4 2.12 5.02Zm-153.84-64.08a49.4 49.4 0 0 0-3.58 6.32.83.83 0 0 0 0 .71.88.88 0 0 0 .56.45c3.54 2.72 19.44 12.72 21.42 13.78 1.98 1.06 2.22.28 5.9-4.96 1.42-1.68.9-2.58-.96-3.54-21.82-13.38-21.82-14.6-23.34-12.76Zm1.18 1.08c1.86.7 20 12 22.12 13.44-.4.74-2.52 3.6-3.02 4.3-.5.7-.54.98-1 .8-.46-.18-17-10.22-21.14-13.2.48-.84 2.54-4.66 3.04-5.34Zm49.3 38.28a.82.82 0 0 0 .98-.12 13.46 13.46 0 0 0 4.16-6.76c.32-1.5-.78-2.12-1.78-2.66l-19.62-10.74c-1.02-.62-2.28-1.4-3.4 0-1.57 1.84-3 3.79-4.28 5.84.16.7 13.12 8.24 23.94 14.44Zm-22-14.76a35.5 35.5 0 0 1 3.7-4.66c.88.3 21.88 11.24 21.9 11.82 0 1.24-2.5 4.82-3.44 5.88-6.62-3.6-14.46-7.94-22.08-13.04h-.08Zm29.86 19.26c2.66 1.68 20.4 12.58 20.72 12.78.98.62 1.8 1 2.74.22a31.26 31.26 0 0 0 3.76-5.7 2 2 0 0 0-.54-2.6c-.66-.46-20.86-12-20.86-12-.4-.3-.88-.46-1.38-.44-.74 0-4.24 4.72-4.98 6.62a.74.74 0 0 0 .54 1.12Zm1.34-1.08a30.9 30.9 0 0 1 3.14-4.96c.24-.18.64 0 1.1.32.46.32 19.64 11.2 20.16 11.54.52.34.3.26.14.68a35.89 35.89 0 0 1-3.78 5.26c-1.58-.88-16.32-10.06-20.76-12.84ZM214 151.56a9.82 9.82 0 0 0 10.86 13.5c1.68 4.34 6 7.74 10.9 6.26a9.68 9.68 0 0 0 4.84-14.92 8.95 8.95 0 0 0-8.56-3.22c-2.04-8.7-14.04-9.62-18.04-1.62Zm18.32 3.02a7.57 7.57 0 0 1 8.44 9.42c-1.1 4.8-7.04 8-11.14 4.62a11.12 11.12 0 0 1-3.12-4 9.16 9.16 0 0 0 5.9-10.04h-.08ZM48.64 172a4.26 4.26 0 1 0 8.52 0 4.26 4.26 0 0 0-8.52 0Zm4.24-2.12a2.1 2.1 0 1 1-1.5 3.58 2.13 2.13 0 0 1 1.5-3.64v.06ZM196.12 293.3l15.34-.98-11.84-6.44c-.34-.18.46-.16-14.44.26l10.94 7.16Z"/>
  <path fill="#171717" d="M195.3 295.14c-12.74-8.32-12.28-8-12.46-8.18a33.78 33.78 0 0 0 0 4c0 .76-.32.28 11.62 8 .4.26-.64.22 16.6-.82a1 1 0 0 0 .94-1v-2.86c-17.58 1.12-16.3 1.12-16.7.86Zm36.8-1.84 15.34-.98-11.84-6.44c-.36-.18.46-.16-14.44.26l10.94 7.16Z"/>
  <path fill="#171717" d="M231.28 295.14c-12.74-8.32-12.28-8-12.46-8.18a26.7 26.7 0 0 0 0 4c0 .76-.34.28 11.6 8 .4.26-.62.22 16.62-.82a1.02 1.02 0 0 0 .94-1v-2.86c-17.6 1.12-16.3 1.12-16.7.86Zm33.46-1.84 15.34-.98-11.86-6.44c-.34-.18.46-.16-14.42.26l10.94 7.16Z"/>
  <path fill="#171717" d="M264 295.14c-12.74-8.32-12.28-8-12.46-8.18a26.7 26.7 0 0 0 0 4c0 .76-.34.28 11.6 8 .4.26-.62.22 16.62-.82a1.02 1.02 0 0 0 .94-1v-2.86c-17.68 1.12-16.38 1.12-16.7.86Zm-39.9 13.96 15.36-.98-11.86-6.44c-.34-.18.5-.14-14.42.26l10.92 7.16Z"/>
  <path fill="#171717" d="M223.3 310.96c-12.76-8.32-12.3-8-12.48-8.2v4c0 .76-.34.3 11.6 8 .4.26-.64.24 16.6-.82a.98.98 0 0 0 .94-1v-2.84c-17.56 1.12-16.26 1.12-16.66.86Zm36.7-1.86 15.34-.98-11.84-6.44c-.36-.18.48-.14-14.44.26L260 309.1Z"/>
  <path fill="#171717" d="M259.26 310.96c-12.74-8.32-12.28-8-12.46-8.2a34.66 34.66 0 0 0 0 4c0 .76-.32.3 11.62 8 .4.26-.64.24 16.6-.82a.98.98 0 0 0 .94-1v-2.84c-17.58 1.12-16.3 1.12-16.7.86Zm32.74 0c-12.74-8.32-12.28-8-12.46-8.2a26.7 26.7 0 0 0 0 4c0 .76-.34.3 11.6 8 .4.26-.62.24 16.62-.82a1 1 0 0 0 .94-1v-2.84c-17.7 1.12-16.4 1.12-16.7.86Z"/>
  <path fill="#171717" d="m292.72 309.1 15.34-.98-11.84-6.44c-.36-.18.48-.14-14.44.26l10.94 7.16Zm-40.62 15.82 15.34-.98-11.86-6.44c-.34-.18.62-.16-14.42.26l10.94 7.16Z"/>
  <path fill="#171717" d="M251.28 326.76c-12.74-8.32-12.28-8-12.48-8.18v4c0 .76-.34.28 11.6 8 .4.26-.62.22 16.62-.82a1.02 1.02 0 0 0 .94-1V326c-17.58 1.02-16.28 1.02-16.68.76Zm36.72-1.84 15.36-.98-11.86-6.44c-.34-.18.62-.16-14.44.26l10.94 7.16Z"/>
  <path fill="#171717" d="M287.26 326.76c-12.76-8.32-12.3-8-12.48-8.18v4c0 .76-.32.28 11.62 8 .4.26-.64.22 16.6-.82a1 1 0 0 0 .94-1V326c-17.58 1.02-16.3 1.02-16.68.76Zm33.44-1.84L336 324l-11.84-6.44c-.34-.18.62-.16-14.44.26l10.98 7.1Z"/>
  <path fill="#171717" d="M319.88 326.76c-12.74-8.32-12.28-8-12.46-8.18v4c0 .76-.32.28 11.62 8 .4.26-.64.22 16.6-.82a1 1 0 0 0 .94-1V326c-17.6 1.02-16.3 1.02-16.7.76Z"/>
</svg>
