<svg xmlns="http://www.w3.org/2000/svg" fill="none" viewBox="0 0 400 400">
  <path fill="#171717" d="M181.14 277.78c.44 0 38.34-2.76 38.52-3.18.18-.42.92.7-13.1-13.8-.18-.2 2-.28-36.72 2.72-.06 0-.12 0-.16.04a.28.28 0 0 0-.12.12.28.28 0 0 0 .06.32c12.16 14.72 11.3 13.78 11.52 13.78Zm-8.28-12.54c2.34-.16 32.92-3.08 32.92-3.08l11.12 11.48c-4.68.38 14.86-1.18-35.26 2.72-5.4-6.7-3.4-4.14-8.78-11.12Zm176.12-48.1a1.25 1.25 0 0 0 1.26.94c.19 0 .37-.05.54-.14a58.92 58.92 0 0 0 19.74-14.2 7.68 7.68 0 0 0 2-3.86c.26-8.76-5.88-21.86-10-32.64a1 1 0 0 0-1.24-.65 1 1 0 0 0-.44.27c-4.9 6.26-12.3 9.08-19.52 12a1.19 1.19 0 0 0-1.32.12 1.18 1.18 0 0 0-.38 1.26 218.1 218.1 0 0 1 9.36 36.9Zm21.26-18.34a4 4 0 0 1-.88 2.74 39.14 39.14 0 0 1-4.92 5.06c-2-11.03-5.06-21.84-9.14-32.28a29.15 29.15 0 0 0 5.86-4.9c4.3 11.14 8.24 19.84 9.08 29.38Zm-7.62 9.2a67 67 0 0 1-11.48 7.02 228.17 228.17 0 0 0-9.04-34.96 52.5 52.5 0 0 0 12-5.04c8.16 27.56 5.78 20.86 8.52 32.98ZM270.3 377.34c5.86 2 7.5-10.62 2.72-13.84-5.14-3.06-9.02 11.78-2.72 13.84Zm1.14-12.34c1.08 0 1.84 1.64 2 2.56.43 1.75.43 3.57 0 5.32-1.14 4.68-4.5 2.66-4.3-2 .16-2.46 1.02-5.92 2.3-5.88Zm58.96-100.76a45.6 45.6 0 0 0 10.16-1.04c9.04-1.46 16.96-5.24 21.32-13.3.5-.94-.44-1.4-.96-.58-8.34 13.3-25.24 12-30.72 13.42a.76.76 0 0 0-.32 1.32c.15.12.33.19.52.18Zm-113-82.62c7.34 0 12.88-5.72 16.22-12.34a51.78 51.78 0 0 0 1.02-41.54 25.16 25.16 0 0 0-9.9-12.32c-8.72-5.54-19.06.8-23.34 10v.12c-12.7 26.66.8 56.08 16 56.08Zm-7.4-4.5c.37-2.04.61-4.1.74-6.18.34-4.48 1.22-10.96 1.82-14.86 3.16-20.74 4.36-21.1 3.8-22-.32-.52.18-.4-10.76-1.18a50.43 50.43 0 0 1 2.56-6.32c10.6-.32 10.92.22 14-1.14a6 6 0 0 0 2.92-3.82c8.18 11.16 6.18 34.14 1.7 47.56a18.16 18.16 0 0 1-9 10.52c-2.82.12-5.59-.8-7.78-2.58Zm-3.32-50.52a39.17 39.17 0 0 0-2.58 6.18h-3.72c.56-2.09 1.36-4.1 2.4-6l3.9-.18Zm24.78 12.18a37.6 37.6 0 0 0-4.24-16 16.88 16.88 0 0 0-8.24-7.42c6 .9 10.38 6 13.1 11.5a49.47 49.47 0 0 1 .78 39.58 22.16 22.16 0 0 1-11.1 12.44c9.1-7.5 10.24-27.94 9.7-40.1Zm-7.76-18.68c-.07.55-.17 1.09-.3 1.62-.96 3.2-4.9 3.2-8 3.16l-6.26.1c.36-.5.83-.93 1.36-1.24a.44.44 0 0 0 .12-.53.44.44 0 0 0-.12-.15.46.46 0 0 0-.46-.16 5.14 5.14 0 0 0-2.46 2h-4c2.72-4.62 6.82-9.02 12-9.76a16 16 0 0 1 8.12 4.96ZM200 134c.42 0 2 .32 3.6.5a38.18 38.18 0 0 0-1.16 18.18.56.56 0 0 0 .63.5.6.6 0 0 0 .27-.12c1.06-.7-1.7-6.66 1.68-18.44 3.1.28-.22 0 9.42.82a344.14 344.14 0 0 0-6.22 40.4C200.6 168.98 195 151.42 200 134ZM65.02 43.02l-.12.14c-.1.83-.1 1.67 0 2.5a1.02 1.02 0 0 0 2 0c-.05-.67-.05-1.33 0-2a1 1 0 0 0-1.88-.64Zm12.98.34a1.04 1.04 0 0 0-2 0v1.88a1.04 1.04 0 0 0 1.62 1.04c.58-.42.38-.94.38-2.92Zm-14.68-2.34h.18a5.26 5.26 0 0 1 2.62-.28c.3 0 1.3.56 2 0a1.26 1.26 0 0 0 .58-1.4c-.58-2.3-7.24-1.02-6.38 1.06a1.06 1.06 0 0 0 1 .62Zm11.98-.38a9.7 9.7 0 0 0 1.62-.34h1.4a1.04 1.04 0 0 0 .66-1.82c0-.2-.22-.28-.46-.46a6 6 0 0 0-1.78-.4c-3.98.18-3.04 3.02-1.44 3.02Zm78.52 103c-1.28.12-2.54.3-3.8.52.24-.46.5-.9.72-1.36a.78.78 0 0 0-.57-1.15.78.78 0 0 0-.49.09c-.32-.14-.42 0-2.3 2.88l-5.88.96c.46-1.06.96-2.1 1.38-3.18a.82.82 0 0 0-1.14-.96c-.4-.4-.78.4-3 4.6l-3.4.58a5.8 5.8 0 0 0-2.63.64.5.5 0 0 0-.13.26c-.22.88 1.32 1.26 2.24 1.26a20.7 20.7 0 0 0 2.58-.3c-.98 1.82-.66 1.32-2.68 4.72l-4.24.6a.73.73 0 0 0-.52.22.73.73 0 0 0-.2.54.96.96 0 0 0 .9 1l2.74-.12-1.28 2.14c-1.2 1.28-1.08 3.44.42 3.04 1.06-.3 1.42-1.16 3.82-5.34 2.64-.22 3.26-.32 4.72-.5-1.28 2.16-2.3 3-2.5 4.8a1.06 1.06 0 0 0 1.06 1.04c.8 0 1.78-1.34 2.12-2.12 4-6.38.24-2.98 8-5.16 1.32-.5 1.22-2.64-.32-2.64-1.13.13-2.25.33-3.36.58 2.64-4.46 2.34-4.22 2.54-4.24a54 54 0 0 0 5.66-.84 1.3 1.3 0 0 0 1.05-1.51 1.3 1.3 0 0 0-1.51-1.05ZM142.76 152c-2 .36-3.06.52-4.94.8.82-1.44 1.32-2.28 2.48-4.64l5.26-.68c-2.54 3.98-1.56 2.32-2.8 4.52Zm22.42-7.34c-2.92 3.26-6.26 6.2-8.96 9.66-.54.68 0 1.72.9 1.34h.12c.5.2 5.28-4.52 5.66-4.9-.96 2.5-3.66 10-4.12 11.18-.07.28-.07.58 0 .86a1 1 0 0 0 1.78.7c.7-.34.6-.5 2.22-4.88 2.58-6.98 4.24-12 4.42-12.56a1.28 1.28 0 0 0-2.02-1.4ZM100 184.86c2.89.2 5.79.2 8.68 0 24.38 0 57.04-2.72 60.66-3.36a.9.9 0 0 0-.24-1.76c-4.9 0-8.88 1.08-34.88 2.54-7.14.4-32.52 1.54-34.32 1.76-.54.06-.34.92.1.82Zm1.76 11.14a.74.74 0 0 0 0 1.48s85.6-4.9 88.78-5.36c1.08-.16.84-1.78-.22-1.82-4.32 0 2.14-.3-88.56 5.7Zm6.1-75.5a2.68 2.68 0 1 0-4.34 2.72 11 11 0 0 0-.64.98c-.34.84.64 1.52 1.28.38.64-1.14.3-.7 1.02-.7a2.74 2.74 0 0 0 2.68-3.38Zm-3.74 1.18a1.3 1.3 0 0 1 1.44-1.8 1.23 1.23 0 0 1 1.06 1.17c.01.19-.02.38-.1.55-.74 1.32-2 1.08-2.4.08Z"/>
  <path fill="#171717" d="M213.7 122a1.44 1.44 0 1 0 0-2.88 1.44 1.44 0 0 0 0 2.88Zm137.18 48.94a3.44 3.44 0 1 0 0-6.88 3.44 3.44 0 0 0 0 6.88ZM80 231.7a2.16 2.16 0 0 0-2 3.42 3.4 3.4 0 0 0 3.88 1.44c2.46-.72.84-4.7-1.88-4.86Z"/>
  <path fill="#171717" d="M377.38 351.14c-3-11.44-12.54-24-21.28-32.92a10.36 10.36 0 0 0-4.28-1.26c6.32-9.68 12.14-40.64 14.52-51.3.88-3.97 1.3-8.03 1.22-12.1a28.73 28.73 0 0 0-12-20.58 67.33 67.33 0 0 0-5.38-3.42c10.72-3.86 23.14-10.28 26.42-21.14 3.78-11.24-2.18-29.74-7.62-40.66A48.26 48.26 0 0 0 360.3 154c1.28-1.4 2.33-3 3.14-4.72a11.3 11.3 0 0 0-.96-9.82 21.65 21.65 0 0 0-11.8-8.42c0-7.5.52-10.32-.46-16-2.52-14.64-19.64-16.9-29.4-16.98-10.22 0-23.52 2.48-28.88 14.3a51.06 51.06 0 0 0-3.64 13.1c-12.46 1.48-20.66 11.62-17.28 19.26a14.66 14.66 0 0 0 2.22 3.54 92.4 92.4 0 0 0-3.2 4.18c-3.36-1.48-10.56 2.62-10.26 8.82-.32 0-2.8-1.12-4.44-1.7a11.66 11.66 0 0 0-8.4-.48V97.3c0-2.36-4-6.82-6.68-7.24L132 92a13.09 13.09 0 0 0-2-4.54c-9.3-16.18-30.78-26.5-50-25.26 2.46-4 3.52-20.56-1.24-32.8a1.42 1.42 0 0 0 1.24 0c2.48-1.08 4.78-2.48 4.98-5.22.36-4.96-1.84-8-6.94-9.82a94.65 94.65 0 0 0-15.38-3.88c-3.51-.7-7.12-.78-10.66-.26-11.62 2.82-12.62 14.3-12.76 14.5a5.88 5.88 0 0 0-3.86 2.58c-3.44 5.58-4.54 11.4-2.7 15.78a24.88 24.88 0 0 0 5.46 7.38 30.4 30.4 0 0 0 7.3-2 1 1 0 1 1 .76 1.84c-2.1.85-4.3 1.4-6.56 1.66 2.38 2.4 5.22 4.96 6 5.6.78.64 2.1 1.74 3.06 1.38A39.1 39.1 0 0 1 52 70c-22 14.24-31.02 38.16-29.58 64.38a21.82 21.82 0 0 0 4.24 13.16c5.4 6.42 15 8.22 22 9.52 2.62.5 5.24.92 7.88 1.28a53.65 53.65 0 0 0 8.5 12.7c.49.71 1.1 1.32 1.82 1.8v39.54a9.12 9.12 0 0 0 3.06 5.4c1.28 1.16 2.1 2 3.74 2l17.86-.9c0 2.96-.12 3.44.2 4L73.6 224a4.5 4.5 0 0 0-4.24 4.88c-.6 2.49-.36 5.1.68 7.44L108 295.88a5.46 5.46 0 0 0 3.5 3.04c1.16.26-10 1.22 163.36-15.84.5 1.88.98 3.7 1.46 5.42-4 .68-7.78 1.54-10.68 2.14a11.58 11.58 0 0 0-6.88 2.92c-3.62 4-2.8 5.2-4.14 51.86-.24 8 0 17.74 7.26 21.66-1.16 6.32-.78 14 3.24 19.22a8.6 8.6 0 0 0 7.5 3.84 39.8 39.8 0 0 0 12-4.78 15.17 15.17 0 0 0 3.28-3.12 86.63 86.63 0 0 0 58.38 4c14-4.16 24-12.28 29.1-22.54a20.8 20.8 0 0 0 2-12.56Zm-21.84-30.62a83.68 83.68 0 0 1 13.08 16.5 65.48 65.48 0 0 1 5.28 10c-.19.15-.31.36-.36.6-4.1 20.54-28.24 30.64-48.88 29.72a34.79 34.79 0 0 1-16.32-4.34c5.8-17.32-2.5-37.32-21.9-38.54-7.32-.46-10.24 2.24-10.24 2.24s7.66-11.56 7.86-11.76c2.9 4.12 6 5.5 11.24 7.5a53.1 53.1 0 0 0 17.32 3.76c10.26.36 22.74-1.04 32.1-5.48a24.5 24.5 0 0 0 10.82-10.2Zm-84.84 20.92c0-2.98 2-36.6 2-36.8-.34-2.38 2.26-2.32 7.04-3.88 1.4 4.44 3.54 10.94 5.36 15.26.52 1.5 1.37 2.86 2.48 4a7.55 7.55 0 0 0-3.52 1.38c-.82 1-11.88 17.66-13.36 20.04ZM346 126.42c.5.54.88 1.18 1.1 1.88a.86.86 0 0 1-1.36.82c-.66-.74-.52-.7-.64-.46-1.16 2.82-2.9 2.22-2.44.42 0-.4.14-.28.86-2.38a7 7 0 0 0-.8-.74.94.94 0 0 1-.28-1.2.98.98 0 0 1 1.24-.36c.68.48.5.56.68 0 .42-1.02.64-1.34 1.04-1.52a1.06 1.06 0 0 1 1.38.58c.28.76-.14 1.52-.78 2.96Zm-48.98-15.74a.64.64 0 0 1 .7.88c-.22.52-.92.3-1.12 1-.34 1.24 1.04 2.34 2.14 3a29.58 29.58 0 0 0 10 3.64c11.22 2.98 31.72 6 35.72-4.74.48-1.18 2.38-.98 2.26.4-1.68 15.1-34 10-47.52 2.96-2-1.08-3.78-2.26-4.12-4.14a2.66 2.66 0 0 1 1.96-3h-.02Zm-8.42 20.98a.66.66 0 0 1 1.08 0 .64.64 0 0 1 0 .7c-2 2.82-.22 6.5 2.62 8.3 8.18 4.5 23.1 6 32.44 5.76 1.06-.26 1.2 1.44.1 1.5a73.82 73.82 0 0 1-26.54-3.12 18.34 18.34 0 0 1-9.36-5.1 6.67 6.67 0 0 1-.34-8.04ZM274.84 150c13.84 13.56 50.16 21.12 77.88 9.1 2.5-.93 4.77-2.37 6.68-4.22 2.26 4.2 4.62 7.58 6.54 11.32 4.84 9.52 11.28 26.72 9.38 38-1.52 9.06-8.24 14.8-16.3 19.14a84.79 84.79 0 0 1-22.52 7.82c-16 3.52-39.74 5.58-61.1-4.64-16.76-8-18.5-18-19.26-19.14-5.88-18.32 7.14-42.38 18.7-57.38Zm45.32 93.18c3.02.17 6.04-.52 8.68-2a6.34 6.34 0 0 0 2-6.8c3.6-.53 7.16-1.26 10.68-2.18a21 21 0 0 1 6 6.34 5 5 0 0 1-1.88 5.78 22 22 0 0 1-6.48 3.08c-2.5.76-5.04 1.5-7.64 2a65.02 65.02 0 0 1-32.8-2c-2.88-.94-6.16-2-6-5.44a9.78 9.78 0 0 1 3.72-6.18c1.84-1.8-.96-.5 12 0-.08 5.74 6.44 8.22 11.72 7.42v-.02Zm-10.56-7.34a109 109 0 0 0 19.38-1.18c.56 2-.3 4.94-2.18 5.6a19.2 19.2 0 0 1-7.24 1.2 12.4 12.4 0 0 1-6.94-1.2 6 6 0 0 1-3.02-4.4v-.02Zm-141.16-8c.92 1.24 1.88 2.46 2.8 3.7l-7.6.48a53.6 53.6 0 0 0-3.54-4.02c10.64-.58 7.9-.64 8.34 0v-.16Zm17.18-.9c.84 1.18 1.76 2.34 2.68 3.52l-6.86.42c-1.08-1.4-2-2.76-2.98-4 9.28-.34 6.48-.34 7.16.18v-.12Zm-6.64 24.66a19.14 19.14 0 0 0-2.24-2.96l7.24-.6 2.86 3.62-8 .64a.52.52 0 0 0 .14-.58v-.12Zm-8 .54a94.4 94.4 0 0 0-2.1-2.84l6.42-.54c.8 1.24 1.73 2.4 2.76 3.46.18.22 1.82 0-7.26.74.34.02.36-.42.22-.7l-.04-.12Zm25.38-11.8-6.88.56-3.2-3.82 6.9-.56c1.92 2.36.96 1.2 3.22 3.94l-.04-.12Zm-1.8-4 2.66-.22v3.46c-1.02-1.12-.68-.72-2.62-3.06l-.04-.18Zm-6.56 4.8-7.46.6c-.98-1.26-2-2.54-3.06-3.82l7.32-.6c.52.68 2.42 2.86 3.2 3.82Zm-8.96.72-7.32.6-3.02-3.82 7.3-.64 3.04 3.86Zm-8.68.48c.26.32.88.14-6.56.76l-3-3.82 6.78-.56 2.78 3.62Zm-8.22.88-5.16.46-3.16-3.8 5.38-.46 2.94 3.8Zm-6.82.6-5.24.46-3.12-3.82 5.22-.44c1.06 1.26 2.28 2.74 3.14 3.8Zm-6.96.6-6.12.54-3.26-3.82 6.34-.54 1.24 1.5c.62.76 1.2 1.54 1.8 2.32Zm-8 .36c.38.48 1.38.2-7.22.96l-3.3-3.82 7.58-.64c.94 1.12 1.94 2.3 2.92 3.5h.02Zm-8.86 1.12-8 .7-3.5-3.82 8.2-.72a62.17 62.17 0 0 1 3.28 3.94l.02-.1Zm-9.62.86-7.18.64-3.24-3.88 7.02-.6a210.5 210.5 0 0 0 3.38 3.84h.02Zm1.22 1.36c.68.76 2.8 3.14 3.18 3.54l-7.4.66c-1.02-1.18-2-2.36-3.02-3.56l7.24-.64Zm1.64-.16 8-.7 2.98 3.58-7.66.68-3.32-3.56Zm9.56-.84 7.42-.66s2 2.44 2.92 3.6l-7.34.64-3-3.58Zm9.08-.82 6-.52 2.8 3.62-6 .5c-.94-1.3-1.9-2.48-2.82-3.6h.02Zm7.82-.68 5.24-.46 2.98 3.62-5.38.46a286.1 286.1 0 0 0-2.86-3.62h.02Zm6.94-.6 5.08-.44 2.78 3.64-4.86.4-3-3.6Zm6.74-.58 6.68-.58c2.14 2.72 1.68 2.14 2.82 3.68l-6.58.46-1.4-1.72c-.54-.54-1.02-1.2-1.54-1.84h.02Zm7.88-.7 7.28-.62 2.94 3.72-7.3.58c-1.26-1.54-1.14-1.42-2.94-3.68h.02Zm8.8-.74 7.48-.64c2.74 3.34 2 2.58 3.14 3.76l-7.68.6-2.94-3.72Zm9.02-.76c7.6-.64 6.78-.66 6.96-.42.13 1.33.33 2.61.6 3.84l-4.38.32-3.18-3.74Zm6.8-7.22-3.76.3c-.96-1.18-2-2.36-2.92-3.52l6.98-.48c-.16 1.56-.16.8-.32 3.7h.02Zm-5.14.4-6.92.54c-.98-1.22-2-2.44-2.84-3.6l6.86-.48c.94 1.2 1.92 2.38 2.88 3.54h.02Zm-8.48.66-7.26.58-3-3.7 7.52-.52a40.71 40.71 0 0 0 2.72 3.56l.02.08Zm-8.62.68-7.46.58c-.88-1.1-2.86-3.68-2.94-3.78l7.58-.52 2.82 3.72Zm-8.52.68-6.82.54-3.02-3.86 6.94-.48c.28.36.28.46 2.88 3.8h.02Zm-8.4.66-5.5.46c-1.1-1.3-2.18-2.6-3.26-4l5.86-.42c.94 1.4 1.92 2.68 2.88 3.96h.02Zm-7.14.58-5.2.44c-1.1-1.34-2.2-2.7-3.34-4l5.5-.36c.96 1.24 1.96 2.64 3.02 3.92h.02Zm-6.86.56-6.4.54c-4-4.62-3.02-3.42-3.66-4.12l6.74-.46 3.32 4.04Zm-8 .66-7.6.64-3.74-4.22 7.62-.54c.34.38 2.78 3.08 3.7 4.22l.02-.1Zm-9.12.76-8.26.72-3.84-4.3 8.46-.66 3.64 4.24Zm-9.82.86-6.96.62-3.66-4.4 6.9-.56c1.22 1.48 2.44 2.94 3.7 4.34h.02Zm-8.88.78-5.56.52c-1.2-1.46-2.44-2.96-3.7-4.44l5.72-.48c1.14 1.52 2.36 2.98 3.52 4.4h.02Zm1.14 1.4c1.1 1.34 2.2 2.64 3.24 3.88l-5.66.5c-.44-.54-2.54-3.14-3.16-3.88l5.58-.5Zm4.4 5.24c1 1.2 2 2.38 3.02 3.56l-6 .52-2.8-3.56 5.78-.52Zm4.18 4.94 3.06 3.54-6.38.58c-.88-1.2-1.76-2.4-2.66-3.58l5.98-.54Zm2-.18 7.46-.66c1.06 1.18 2.1 2.36 3.18 3.54l-7.56.68c-2.96-3.26-1.6-1.7-3.2-3.56h.12Zm9.2-.82 7.52-.66 2.92 3.56-7.18.64-3.26-3.54Zm9.22-.82 7.24-.62c1.62 2 .36.42 2.7 3.56l-7.06.62c-1.22-1.34-.9-1.04-2.98-3.62l.1.06Zm8.88-.78 6-.5c.92 1.2 1.84 2.38 2.78 3.56l-6 .52c-2.34-2.86-1.5-1.8-2.88-3.58h.1Zm7.76-.66 5.46-.48c.94 1.3 2.04 2.5 3.26 3.54l-6.16.52c-.12-.2-2.5-3.38-2.66-3.58h.1Zm7.28-.62 4.72-.42c.96 1.18 2 2.34 3 3.44.09.02.17.02.26 0-6.58.56-5.26.6-5.48 0a15.98 15.98 0 0 0-2.6-3.02h.1Zm23.14-2 7.78-.66c1 1.28 2.08 2.5 3.24 3.64l-8.2.64-2.82-3.62Zm9.32-.78 3.64-.3c.38 1.32.91 2.58 1.58 3.78-3.36.26-2.32.32-2.56-.22a20.67 20.67 0 0 0-2.76-3.22l.1-.04ZM197.8 230l-8.26.52a80.57 80.57 0 0 0-3.5-3.88l12.22-.64c-.26 1.32-.26 2.64-.46 4Zm-17.72 1.12-7.72.48-3.32-4 8.48-.44 2.48 3.94.08.02Zm-17.6 1.12-6.84.44-3.3-4.22 7-.4c.95 1.46 2 2.85 3.14 4.16v.02Zm-8.22.54-6 .4a93.97 93.97 0 0 1-3.28-4.3l6.24-.36c1.02 1.48 2.02 2.82 3.04 4.24v.02Zm-7.28.5-5.7.38a81.54 81.54 0 0 0-4-4.34l6.78-.38c.94 1.44 1.94 2.88 2.92 4.32v.02Zm-7.3.48-6.9.5c-1.46-1.54-2.98-3-4.56-4.42l8-.46c0 .2 3.28 4.16 3.46 4.36v.02Zm-8.68.42c.26.3 1.28 0-7.4.74-1.42-1.56-2.86-3.1-4.36-4.56l7.88-.46c1.28 1.44 2.58 2.88 3.88 4.26v.02Zm-8.8.86-8.46.66c-1.42-1.6-2.86-3.18-4.3-4.78l8.92-.52c1.2 1.6 2.52 3.12 3.84 4.62v.02Zm-9.84.78-6.88.56-4.26-5 7.1-.4 4.04 4.84Zm-8.62.7-5.8.5c-1.5-1.76-3.05-3.5-4.62-5.2l6.6-.36c1.26 1.7 2.54 3.4 3.82 5.04v.02Zm-7.38.64-6.38.56-4-5.48 6.22-.34a251.1 251.1 0 0 0 4.16 5.24v.02Zm1.12 1.38 3.64 4.44-6.84.62-3.28-4.48 6.48-.58Zm4.78 5.84c2.94 3.58 1.46 1.76 3.12 3.88-2.4.08-4.79.3-7.16.68l-2.9-4 6.94-.56Zm4.22 5.26 2.74 3.58-7.34.66-2.66-3.58 7.26-.66Zm3.8 4.98 2.66 3.56-7.24.66c-.24 0 .26.56-2.78-3.56l7.36-.66Zm3.72 4.94 2.54 3.44-7.44.62-2.5-3.38 7.4-.68Zm1.8-.16 6.6-.6c1.74 2 1.64 2 3.1 3.46l-7.3.6c-.78-1.16-1.6-2.32-2.42-3.46h.02Zm8.54-.78L132 258c1.08 1.18 2.18 2.34 3.28 3.5l-8 .68a28.96 28.96 0 0 0-2.96-3.56h.02Zm9.4-.84 7.08-.62c2 2.36 1.48 2.12 2.8 3.58l-6.68.56-3.2-3.52Zm8.74-.76 6.94-.62c1.44 2 1.22 2 2.62 3.64l-6.74.56a24.5 24.5 0 0 0-2.84-3.58h.02Zm8.6-.76c41.04-3.58 37.34-3.04 37.54-3.18l12.32-1.02a16.66 16.66 0 0 0 4.66 3.66l-52 4.24a22.28 22.28 0 0 0-2.54-3.7h.02Zm52.2-4.26c-3.46-3.24-4.42-9.14-4.36-15.34.35-7.3 1.2-14.59 2.54-21.78 1.22 2.8 6.38 6.18 12 6 4.38-.16 9.38-2.62 10.46-6.82a77.99 77.99 0 0 1 5 16.26c.84 4 2 8 2.72 11.8a13.44 13.44 0 0 1-13.66 15.78 25.04 25.04 0 0 1-14.72-5.9h.02Zm-93.7-34 90.12-4.5a24.9 24.9 0 0 0-.46 4l-89.46 4.5c.74-1.34-.16-2.64-.2-4Zm100.28-12.84a7.4 7.4 0 0 0 8.42 1.4c2.24-1.46 2.14-3.6 2.16-6.28.18.26 2 2.54 2.14 2.8.14.26 0 .46-.36 1.34-1.42 2.94-2.34 4.5-2.8 5.4-.46.9-.48 1.12 0 1.4a8.74 8.74 0 0 1-7.52 4.68c-3.24-.12-5.24-2.5-6.8-4.98a.86.86 0 0 0 0-.8s-2.36-5.42-2.52-5.76c-.82-1.8-.96-2 0-3.02a20.2 20.2 0 0 1 5.8-5.34c-.2 3.1-.6 6.72 1.48 9.14v.02ZM103.5 116.68a5.2 5.2 0 0 0 0 10.38c4.82 0-16.34.4 88.88-2.12A47.85 47.85 0 0 0 188 136.8c-3.58-.48-86.92-6.4-88.5-6.5a.78.78 0 0 0-.76.74c-.36 5.44-1.24 6.64-2.36 13.5-.67.01-1.34.07-2 .18a10 10 0 0 0-5.16 2.52c-.86-1.58-6.46-4.82-8-5.74v-31.3a2.34 2.34 0 0 1 2.28-2.2l150.18-2.3a2.4 2.4 0 0 1 2.52 2.2v16.88c-7.32-13.16-21.64-19.38-34.64-10.28-118.36 2.66-95.02 1.98-98.06 2.18Zm96.2-.82a29 29 0 0 0-6.54 7.66l-89.72 2a3.78 3.78 0 0 1 0-7.56c.56.04-7.86.18 96.26-2.1ZM89.38 148.2c1.93-1.4 4.28-2.1 6.66-2-.12.76-.24 1.54-.34 2.34-1.36-.12-2-.28-2.2.16a.64.64 0 0 0 0 .66c0 .4.28.2 2.38.66a1 1 0 0 0 .42.2c1.36 0 7.42 2.36 7.1 3.66-.14.54-1.76-.18-2-.22-3.2-.52-3.14-.62-3.52-.4a.94.94 0 0 0 0 1.6.32.32 0 0 0 .26.28c3.04.52 5.66 3 2.12 2.24-.94-.15-1.89-.24-2.84-.26-1.02 0-1.64 1.26-.64 1.78.64.34 1.52.82 1.66 1.6.14.78 0 .7-.46.8-2.52.22-8.76-2.14-11.08-3.14 1.46-6.94 2.72-8.16 2.48-9.96ZM95.5 163c.34 0 .68.16 1 .2 3.22.46 4.6-1.76 3.54-3.78h1.4a2.14 2.14 0 0 0 1.64-3.62c2.4-.22 2.88-2.34 1.04-4a16 16 0 0 0-6.92-3.06c1.68-11.7 2.42-10.52 3.02-16.84 14.32.92 82.68 6.4 87.4 6.38a46.37 46.37 0 0 0 7 35.56c-22-1.76-97.2-6.86-97.2-6.86-3.86-.02-1.88-1.6-1.92-3.98Zm99 7.48c-15.34-26.96.34-58.48 19.84-58.48 16.38 0 25.7 18.78 25.78 35.78 0 31.12-26.22 47.06-42.86 26.84a25.04 25.04 0 0 1-2.76-4.14Zm25.86 13.86a27.86 27.86 0 0 0 15.84-13.8v26.3a2.32 2.32 0 0 1-2.34 2.2l-11.18.52c-1.18-1.68-1.56-2.36-2.34-2.22.02-13.84.04-12.76.02-13Zm-9.82.52c2.47.5 5.01.5 7.48 0-.03.53-.03 1.07 0 1.6.26 15.18.2 13.36 0 16.14-.14 1.82-1.24 2.54-3.56 2.4a4 4 0 0 1-4-2.48c-1.04-4.14.54-5.62.08-17.66Zm44.24 56.98 8.38 8.94-4.98.4a191.2 191.2 0 0 0-3.42-3.58c1.4-.12 2.8-.26 4.16-.46a.3.3 0 0 0 .14-.54.33.33 0 0 0-.1-.15.33.33 0 0 0-.18-.07c-1.68 0-3.38 0-5.06.18l-3.86-3.82c4.3-.42 5.1-.44 4.92-.9Zm-18-4.54-3.44-4 5.3-.38 3.6 3.82-5.46.56Zm6.54.66 3.64 3.86-5.78.48-3.46-4 5.6-.34Zm-10.88-5.6c-1.82-2-1.28-1.08-1.8-3.44l4-.28 3 3.3-5.2.42Zm2.82 5.06-2.8.22-.9-4c.44-.14-.06-.62 3.74 3.78h-.04Zm.92 1.08 3.42 4-6 .44a24.4 24.4 0 0 0-.88-4.14l3.46-.3Zm-2.5 7.5c.92 1.2.58.76 1.6 2l-2 .14c.2-.7.33-1.42.4-2.14Zm.3-2 6.58-.48c3.26 3.76 2.24 2.56 3.3 3.86l-6.82.5-3.06-3.88Zm8.18-.6 6-.44 3.6 3.78c-1.24 0-5.32.44-6.12.5-.86-.86-2.44-2.68-3.48-3.86v.02Zm4.66 4.9c2-.14 4-.28 6-.46 1.18 1.2 2.4 2.38 3.64 3.52l-6.94.58c-3.08-4.06-3.32-3.62-2.7-3.66v.02Zm2-6.6a174.7 174.7 0 0 1-3.84-3.86c1.84-.16 3.68-.36 5.48-.6l4 4.28c-.22-.12-4.04.06-5.66.16l.02.02Zm-4.82-4.98c-1.2-1.28-2.42-2.56-3.6-3.84 1.84-.16 3.7-.34 5.52-.6l4 4.16c-2.12.02-4.08.14-5.92.28Zm-4.6-4.92-3.08-3.28c1.86-.14 3.72-.34 5.56-.56l3.36 3.58c-2.06.02-4 .12-5.94.26h.1Zm-4.12-4.38-3.42-3.42 5.9-.34 3.24 3.46c-2 .07-3.94.17-5.82.3h.1Zm-1.5.12-3.28.26a81.6 81.6 0 0 0-.92-3.66c1.7 0 1.26-.16 1.38 0 .12.16 2.1 2.7 2.72 3.4h.1Zm-.72 21.82 3.18-.26c.68.84.76.94 2.7 3.5l-6.98-.8c.4-.78.74-1.6 1-2.44h.1Zm4.94-.4c7.62-.6 6.76-.64 7.1-.22.9 1.12 1.84 2.24 2.82 3.3l-7.16.6c-.76-.94-.92-1.18-2.76-3.68Zm28 3.04c.12-.26 1.5 1.36-22.6-24.52a.32.32 0 0 0-.3-.32l-4.48-4.8c-.2-.2-.14 0-9.46.42a95.29 95.29 0 0 0-1.68-5.28l13.74-.74c.76.04 1.47.36 2 .9l28.8 30a22.41 22.41 0 0 0-1.2 3.24c-1.06.6-2 1.4-2.78 2.34-1.35.3-2.65.8-3.84 1.5-.9.54-1.76 1.13-2.58 1.78-4.83-1.28-9.75-2.2-14.72-2.76.66-.2 18.88-1.52 19.1-1.76Zm-16.1-29.62c-5.62-6-6.3-7.42-9.62-7.06-14.36.66-13.34.7-13.42.46-.4-1.25-.9-2.47-1.5-3.64l18.22-.9a3.88 3.88 0 0 0 3.68-3.86v-30.32c8.36 5.22 7.62 4.84 8 4.76-4.16 13.3-3.84 30.3 7.54 38.12 6.28 5.84 15.54 10 23.72 12.48-5.22 3.72-10.6 8-13.7 13.76l-22.92-23.8Zm12-63.32a8.62 8.62 0 0 1 4.7-4.56 4.78 4.78 0 0 1 2.46-.34 93.92 93.92 0 0 0-5.22 8.6c-.82-.36-1.66-.68-2.5-.96-.02-.95.1-1.9.38-2.82l.18.08Zm-5.84 2.88c.4-.12 4.42 2 6.9 2.44a118.95 118.95 0 0 0-6.2 13.36c-1.48 4-.92 3.2-1.22 3-7.36-4.94-6.22-4-6.34-4.4a9.56 9.56 0 0 1 6.86-14.4Zm-6.6-1.48c1.57-.07 3.13.15 4.62.64a10.55 10.55 0 0 0-7.28 13.88 7.82 7.82 0 0 1 2.48-14.6l.18.08Zm-9.02-68.94a6.58 6.58 0 0 1 3.12 2.1c-.52 0 6.38.18-169.72 2.74a3.88 3.88 0 0 0-3.8 3.86V136l-1.46-.62V96.7a2.54 2.54 0 0 1 2.5-2.54c149.36-2.42 114.66-1.98 169.18-2.72l.18.08ZM76.98 64.98c.2-.14.56-.38 1.36-1a15.32 15.32 0 0 1 3.32 11.76 9.72 9.72 0 0 0-5.08 0 9.6 9.6 0 0 0 1.54-2.4c1.58-3.52.7-5.34-1.14-8.36Zm-25.12-1.22c-2.58-7.78-3.68-3.46.9-7.06a1.44 1.44 0 0 0 .64-1.66 23.2 23.2 0 0 0-.32-2.64c.1-1.62-2-.16-4.12-3.04-1.6-2.24-2.14-6.78.52-7.08 2.66-.3 4 4.54 4.94 6.56.5 1.28 1.54 1.14 2.66.32.46-.34-.58-1-.86-4.38-.46-4.1 3.16-4 .3-6a4.52 4.52 0 0 1-1.8-3.72c-.42-3.3 1.44-6 5.78-6.34 4.16-.62 7.24-.78 10.88 1.32.46.26.46-.56 3.14-2.8.5-.36 1.12-.53 1.74-.48 2.98 9.6 5.12 17.78 3.9 28.42a.6.6 0 0 0-.46 0c-1.28.22-1.6-1.32-2.54-2.54.4-.12.79-.32 1.12-.58a1.56 1.56 0 0 0 0-1.78 75.75 75.75 0 0 0-5.84-8c-1.12 0-.84.32 4.4 8.42.16.28.16.5-.38.6-.97.22-1.96.33-2.96.32-.54 0-2-.26-2.2.7a6.9 6.9 0 0 0-4.72 1.5 5.7 5.7 0 0 0-1.56 3.64 1.18 1.18 0 0 1-1.36.58.7.7 0 0 0-.4 1.34 8.5 8.5 0 0 0 6.46 0c4.68 2.46 4.86-.72 3.52-.68a5.3 5.3 0 0 1-2.18-.2 5.74 5.74 0 0 0 1.52-2.12 5.46 5.46 0 0 0 7.32.6C79.46 60 78.6 62.76 76 64c-5.44 2.6-10.26 1.12-14.44 1.3a.72.72 0 0 0-.18 1.4c1.97.44 3.99.62 6 .52 2.97.17 5.94-.41 8.62-1.7 1.24 2.36 2.1 3.4.68 6.94a9.34 9.34 0 0 1-8.74 5.82c-5.34.16-9.88-2.46-14-5.6-.3-3.05-1-6.05-2.08-8.92Zm0 7.48c.13-.08.26-.18.38-.28 0 .4.18.78.26 1.18.14.56.43 1.07.84 1.48 5.32 4.6 12.32 8 18.84 5.32-2 4.9-1.64 4.9-2.56 6.12-.68.62-2.84 0-3.88-.42-1.5-.42-2.96-.95-4.38-1.6-3.24-1.52-9.12-5.36-9.82-8.9a6 6 0 0 1 .24-2.9h.08Zm15.1 99.14a75.35 75.35 0 0 1-8.68-11.86c2.88.38 5.78.66 8.68.86v11Zm2.9 45.2a6.8 6.8 0 0 1-1.56-3.24v-52.86l1.56.12v55.98ZM52.44 156c-13.56-2.22-26.8-4.98-28.18-18.76-2.6-25.88 4.78-48.3 25.58-64.62-1.04 4.58 6.32 9.66 10.58 11.6 1.49.69 3.03 1.24 4.62 1.66 1.09.46 2.26.7 3.44.7 1.58 0 2.32-.14 3.16-2.9.24-.82 1.3-3.74 2-5.56.43-.25.84-.52 1.24-.82a9.08 9.08 0 0 1 6.98 0 .78.78 0 0 0 1.12-.48 16.2 16.2 0 0 0-2.54-13.06 56.78 56.78 0 0 1 43.36 18.28A41.3 41.3 0 0 1 130 92l-16.7.28a33.02 33.02 0 0 0-3.3-5.34 52.4 52.4 0 0 0-14.14-14 .36.36 0 0 0-.54.4c0 .66 8.5 5.76 16.12 18.9l-40.66.68a3.74 3.74 0 0 0-3.66 3.76v38.24c-5.12-2.22-9.12-3.88-12.84-5.68 1.72-7.24 4.52-14.4 6.34-21.68a.82.82 0 0 0-.91-1.03.81.81 0 0 0-.55.32.82.82 0 0 0-.14.29c-2 7.52-4.74 14.76-6.5 22.38a.9.9 0 0 0 .42.92c7.02 3.7 14.6 6.38 21.78 9.78a76.43 76.43 0 0 1 11.02 6.26c3.7 2.38 1.42 2.5-.44 11.66-11 .37-22-.35-32.86-2.14Zm31.12 49.78a2.38 2.38 0 0 1-2.6-2.18v-43.74h4.62c2.6 1.3 5.34 2.26 8.18 2.86.08.67.03 1.35-.14 2-.88 4.32 1.34 3.74 6 4.12 42.74 3.44 24.18 1.06-.16 3.84a.54.54 0 0 0-.5.49.54.54 0 0 0 .4.57c.58.3 14.14-.36 38-1.32 1.55.14 3.12.05 4.64-.28.68 0 53.74 4.1 54.56 4a26.36 26.36 0 0 0 12.7 8.36 48.94 48.94 0 0 1-.5 5.76c-.26 3.72 0 3.24-.26 3.24-.9.14-1.72.56-2.36 1.2a24 24 0 0 0-5.38 5.58c-.48.46 6.14.02-117.2 5.58v-.08Zm25.08 14.98c0 1.4-.46 1.06-5.3 1.16-3.11-.07-6.22.03-9.32.3-1.3 0-.64-.6-.74-3.5l15.06-.76c-.04 1.12.3 2.04.3 2.88v-.08ZM112 292c-1.7-.38 1.4 4.3-40.74-62a3.02 3.02 0 0 1 2.42-4.64L199.2 219c0 .14-.46 3.84-.66 5.26-122.22 7.06-115.56 6.44-115.08 7.12 12 16.36 12.66 17.58 24.62 33.9.26.36 99.44-8.48 100.1-8.16a6.14 6.14 0 0 0 2.38 5.22 8.4 8.4 0 0 0 6 1.06 12 12 0 0 0 5.72 6c8.84 4.3 18.14 7.58 27.72 9.8C110.68 292.26 112.38 292 112 292Zm154.4-20.38c-.26 2.26-1.52 5.6-3.72 6.62a.28.28 0 0 0-.16.24c-1.46.71-3.12.9-4.7.54a138.9 138.9 0 0 1-28.6-8.34c-5.22-2.1-12-5.06-11.5-11.08a16 16 0 0 0 13.1-6.12c6.22.46 23.2 3 23.44 3.04 3.23.1 6.37 1.06 9.12 2.76 4.36 3.38 3.34 10.22 2.92 12.26l.1.08Zm.62 7.78c2.68-3.66 3-6 1.4-10.68a18 18 0 0 0-.76-6.24 10.54 10.54 0 0 0-4-5c7.24-5.56 15.26-2.14 17.32 4.98 1.48 5.14.54 12-4.6 15.12a14.5 14.5 0 0 1-9.46 1.74l.1.08Zm8.98.6a13.6 13.6 0 0 0 2.9-1.82c9.26-.44 11.54-12.6 6.88-21.56-2.36-4.86-8-8-12.9-6.72 2.38-6.96 9.3-12.66 15.1-17.06a76.6 76.6 0 0 0 7.36 1.62c-4 3.42-6.56 8.6-2.52 12a21.86 21.86 0 0 0 8 3.38 67.03 67.03 0 0 0 38.92-.6c2.52-.68 4.9-1.78 7.06-3.24a7.26 7.26 0 0 0 2.82-7.24 18.58 18.58 0 0 0-5.56-7.22c1.08-.3 2.16-.64 3.22-.98 8 4.32 14.76 9.64 17.28 18.46 1.8 6.42.36 13.04-1.04 19.44-4 18.56-7.12 35.32-13.08 46.56-3.84 7.2-13.44 9.44-21.22 10.66a67.85 67.85 0 0 1-32.64-2.98c-7.88-2.7-8.66-3.78-11.26-11.6A331.1 331.1 0 0 1 276 280Zm-19.44 72.1c-.22-4.76.74-30.62 1.12-48.78-.08-2.46.36-4.92 1.28-7.2 2-4 6-3.42 17.6-6.56.96 3.5 1.9 6.74 2.84 9.78-1.96.3-3.89.8-5.76 1.46a3.3 3.3 0 0 0-2.54 2.74c-.24 2-2.52 41.26-2.5 41.46-2.7 4.66-5.8 10.24-5.3 15.74-.45 1.4-.81 2.82-1.1 4.26-3.48-2.7-5.38-7-5.66-12.88l.02-.02Zm8.9 7.8a10.77 10.77 0 0 1 5.6-6.68 6.7 6.7 0 0 1 2 0c5.44 2 7.5 10 7.54 16.7.02 29.16-24.86 20.84-15.16-9.92l.02-.1Zm109.58-1.3c-2.74 10.4-12.46 19.48-26 24.32a83.88 83.88 0 0 1-60-2.6 15.53 15.53 0 0 0 1.74-4.98c3.16-18-4.88-25.68-12.78-25.7-2.52 0-7.5.8-9.28 2.54a.36.36 0 0 0-.26.18c-.71.52-1.38 1.1-2 1.74.96-2.84 2.3-5.53 4-8 1.34-2.42 2.82-4.8 4.34-7.14 14.48-8.72 32.3 2.22 33.26 20 .62 11.6-3.24 14.28-1.4 15.34 9.46 5.8 21.26 6 32.2 4 16.52-2.96 31.5-11.66 36.34-27.56.58 2.6.52 5.3-.18 7.88l.02-.02Z"/>
</svg>
