<svg xmlns="http://www.w3.org/2000/svg" fill="none" viewBox="0 0 400 400">
  <path fill="#171717" d="M331.02 338.94c27.16-33.42 40.32-77.38 48.78-118.94a502.25 502.25 0 0 0 8.84-137.64c-.2-2.72-.44-5.46-.68-8.2.3-1.18-1.42-.74-2.22-.74A171 171 0 0 1 263.3 25.86l-2.4-2.36c-.78-.76-27.78-.84-31.18-.76-1.08 0-3.76-.18-4.5.78C202 52.88 171.04 68 138.1 72.44a.34.34 0 0 0-.34.34.34.34 0 0 0 .34.34c19.3-1.58 40.18-9.84 56.34-20.32a124.66 124.66 0 0 0 31.72-29.12c2.92 3.06 6 5.97 9.22 8.7 19.64 17.64 60.68 48.22 110.12 44 0 12.16.62 24.32.86 36.46 1.12 57.76-1.62 116.5-24.38 170.44a214.1 214.1 0 0 1-32 53.62c-14.48 17.42-33.36 34.86-56.88 37.22-20.84-9.34-34-19.56-49.5-35.74-.26-.28-.76.12-.52.42 11.58 14.68 32.5 29.72 50.46 36.78h-38c-.88-7.08-12.72-12.64-18.8-13.84-.18-1.78-.52-4.66-.7-6.28 3.48 0 6.12-.18 6.84-.26-2.4-49.48-7.62-98.78-15.64-147.66-4.62 1.16-15.38 2.92-18.98-1.2a6.45 6.45 0 0 1-1.44-5.44c-10.86.16-22.8-1.3-30.78-7.34a14.94 14.94 0 0 1-5-5c-.38.8-.85 1.56-1.4 2.26-.64 1.86 1.32 21.32 2 25.84.46 3.14 2.64 1.78 6.62 2.46.58.1.7 1.16 0 1.16-1.55.02-3.1-.06-4.64-.24-3.28-.34-3.42-2.72-3.82-5.46a115.15 115.15 0 0 1-1.3-22.58c-5.74 5.76-18.3 9.46-33.3 10.34-.24 2.26 0 4.16-1.52 6-3.56 4.4-12.8 3.82-18.2 3.42-4.88 45.54-6.18 142.44-6 143.88 1.6.2 5 .4 9 .58-.1 2.5.04 4.99.4 7.46-7.04 2.16-15.64 5.46-19.56 12.2-9.63 0-19.25.1-28.86.32-.6 0-.66.94 0 .94 22.68.32 348.12-.74 348.12-.74.84 0 .96-1.2 0-1.2h-72c16.42-7.5 33.04-22.24 44.44-36.26ZM73.16 364.82c-4.47 0-8.93-.37-13.34-1.14 0-2.42-.1-4.82-.16-7.24 4.64.2 10 .36 14 .48-.22 2.6-.34 5.3-.5 7.9Zm87.76-.26a28 28 0 0 0-2 11.36H76a35.82 35.82 0 0 0-2.16-10.78l.96-8.18c2.84.12 5 .12 5.82.12 3.1-11.04 28-111.38 31.52-125.04-6-2.22-3.56-3.72-2.94-3.08 1.76 1.84 6.16 2 8.42 1.78 16.48 65.48 34 123.66 34.4 124.72 1.32.16 4 .24 7.4.24.58 2.96 1 5.9 1.5 8.86Zm.8-.24c-.22-2.9-.86-5.72-1.18-8.62 4.58 0 10 0 14.38-.16l.7 6a33.35 33.35 0 0 1-13.9 2.78Zm183.4-288.94c-35.48 2.9-69.2-12.12-96.68-33.52a251.93 251.93 0 0 1-19.34-16.78l-1.4-1.3c10.88 0 22 .58 32.72.46 18.38 19.44 43.74 34.26 69.18 42.28a166 166 0 0 0 42.28 7.58c-8.76.44-18.14.56-26.76 1.28ZM287.1 374l-48 .42c18-3.74 33.28-16.3 45.56-29.66 28.66-31.16 45.6-71.44 54.32-112.48 10.12-47.56 9.56-98.2 7.76-146.6-.1-3.08-.24-6-.42-9.2 12.5-.28 27.9-1.26 40.68-2a523.67 523.67 0 0 1 1.26 68.62c-2 43.26-10.28 91.86-24.66 132.76C349.56 315.84 326 354 287.1 374Z"/>
  <path fill="#171717" d="M166.52 167.7c-11.72 1.38-27.82-.48-38.46-5.36a144.52 144.52 0 0 1-18.68-11.06c1.02 8.2-.44 31.38 3.4 36.8 14 16.96 56.22 9.2 57.16 8.4.94-.8-1.34-13.62-3.42-28.78Z"/>
  <path fill="#171717" d="M166.98 205.84c-.34-2.16-.72-4.34-1.08-6.54-5.9.9-11.87 1.44-17.84 1.64a5.83 5.83 0 0 0 2 4.86c3.26 2.76 13.18.96 16.92.04Zm-111.34 4.34c4.4.36 13.42.92 16.6-2.7a9.24 9.24 0 0 0 1.52-5c-5.69.24-11.39.08-17.06-.46-.38 2.44-.7 5.2-1.06 8.16ZM232.76 341.2a115.7 115.7 0 0 1-53.04-52c-.16-.36-.74-.12-.56.24A111.46 111.46 0 0 0 232.12 342c.38.18.68.4 1.12.14 45.34-26.74 69.18-70 79.06-120.6 7.22-36.82 6.52-74.68 5.18-112-.24-6.5 0-8.4-.94-8.44-34.62-1.54-64.66-16.76-88.3-41.44-.32-.34-.62-.46-1.1 0-16.3 17.76-36.92 27.86-60.32 32a.34.34 0 0 0 0 .66 104 104 0 0 0 61.04-32c21.26 24.92 55.76 40.36 88.4 41.8-.4.58.6 25.52.66 28.38 1.02 44.74-.86 90.66-18 132.62-13.34 32.88-35.5 59.94-66.16 78.08Z"/>
  <path fill="#171717" d="M50 166.66c20.58.3 38-7.82 52.96-22 6.88-6.52 12.28-14.7 20.2-20a69.32 69.32 0 0 0-6-10.56c1.9-.56 3.86-.94 5.84-1.16a31.67 31.67 0 0 1 5.22 8.9l1.04-.42a23.13 23.13 0 0 0-4.34-7.54 20 20 0 0 1 16.24 5.52c3.06 0 6.12.17 9.16.5a56.32 56.32 0 0 0-4.32-12.5c-.3-.54.54-1.1.86-.54a63.03 63.03 0 0 1 5.46 13.14c4.92.25 9.8 1.07 14.54 2.44.5.16.22 1-.28.86a85.24 85.24 0 0 0-30.2-1.86c-9.06.96-14.74 5.62-20.94 12.34-3.78 4-7.36 8.24-11.34 12 8.98 4.88 15.26 10.88 26 15.5 9.86 4.22 29.1 6.84 39.88 4 14-3.82 23.28-15.76 20.9-31.68-3.14-21.28-28.6-48.3-54.5-55.3a52.5 52.5 0 0 1 4.24 13.02c.18.82-1.04 1.18-1.6 1.44a39.5 39.5 0 0 1-4.34 1.66 31.41 31.41 0 0 1 4 6.26c.36.68 1.16 1.76.36 2.36a43.45 43.45 0 0 1-6.94 9.46.52.52 0 0 1-.68 0 .5.5 0 0 1 0-.7 66.7 66.7 0 0 0 6.4-9.42c-.58-1-5.48-8.28-4.34-8.76 1.48-.68 4.54-2 5.6-2.66a65.21 65.21 0 0 0-4-13.02l-.42-.12c.72-.82 1.84-10.24-3.3-12.6a7.18 7.18 0 0 0-2.62-5.88c2.42-3.62 5.66-10.76 4.54-15.08a2.82 2.82 0 0 0-3.1-2c.36-2.74 5.56-1.84 4.16-2.6a9.7 9.7 0 0 0-8.34-.4 6 6 0 0 0-1.74-4.78c-3.66-3.88-9.66-2.22-14.26-1.82-12.22 1.04-13.7-4.92-14.46-3.52a7.78 7.78 0 0 0 1.28 7.42c-3.2-.54-4.96-3-5.26-1.56a8 8 0 0 0 4.84 8.88L95 50.22c-1.54 0-2.96.54-3.02 2.36-.06 1.82.1 6.32 2.34 6.94 0 .78 0 1.54.12 2.32A67.22 67.22 0 0 0 92 78.28c-3 .88-6.5 1.64-9.4 2.6a34.31 34.31 0 0 0-2.6 5.46c-.8 2-1.52 4.14-2.18 6.24a45.24 45.24 0 0 0 7.32 5.2c1.66.76 0 2.22-.72 3-1.1 1.24-2.3 2.44-3.46 3.66.74.96 5.08 6.24 7.46 8.78l8.74-1.4a212 212 0 0 0-9.78-31.32L92 79.28c.28 4.66 2.88 6.16 7.22 6.96a46 46 0 0 0 16-.56c4.98-.88 7.4-3.44 7.12-8.58 2.3.44 4.98.46 7.46.86a278.49 278.49 0 0 1-6.92 34.24 17.9 17.9 0 0 0-6 1.28c-.68-.96-1.26-1.62-1.56-1.66-9.04-1.6-49.78 6.36-62.92 12a.52.52 0 0 1-.66-.28.5.5 0 0 1 .28-.66 167.86 167.86 0 0 1 34.68-9.26c-2.1-2-8.1-8.26-6.64-9.76l4-4.64a25.62 25.62 0 0 1-7.12-6c-.8-.94 2.76-9.74 3.62-11.56-18.32 6.86-52.56 28.6-53.58 58.22C26.28 160 41.6 166.16 50 166.66ZM125.2 58c1.88-.14 3.66 1.3 2.6 1.58-.4.1-.48-.36-1.36-.58-1.24-.36-2.16-1-1.24-1ZM97.42 44.28c3.08.91 6.34 1.09 9.5.52 15.44-2 12.54-3.32 11.68 6.52-2-1.42-7.6-1.74-22.42-1.2.32-1.98.76-3.86 1.24-5.84ZM108.22 57c.38 1.16-.46 1.36-1.1.5a7.16 7.16 0 0 1-1.06-5.19.88.88 0 0 1 1.25-.44.88.88 0 0 1 .43.95 9.84 9.84 0 0 0 .48 4.18Zm-14 0a7.3 7.3 0 0 1-.64-4.46c.26-.94 1.66-1.12 1.66 0a12.8 12.8 0 0 0 .24 4c.52 2.28-.7 1.98-1.32.46h.06Zm14.62 9.62c-.2.6-1.22.46-1.12 0 .1-.46-4.86 0-6 0-.32 0-1.08-.44-.14-.72a17.38 17.38 0 0 1 6.7-.88 1.4 1.4 0 0 1 .5 1.6h.06Zm13.32-4a24.15 24.15 0 0 0-.66 8.82 96.4 96.4 0 0 1-1.82-9.44c-.18-1.6-.24-3.2-.38-4.78s-1.1.78-1.56 2.22a9.23 9.23 0 0 1-5.6 6.16c-2.66-4-4.44-4-9-4-2.68 0-6 .22-7.24 2.96l-.36-4.82c5.82.16 5.02.64 6.68-4.78.8-2.6 1.36-3.1 2.14-.1.56 2.18.8 4.76 4 5.04 6.64.62 5.68-1.58 7.06-5.34.52-1.44 1.56-2.66 3.1-2 0 1.58 1.36 3.48 3.1 2.36.26-.16 2-1.76 2.8.3.32.76.4 1.6.24 2.4a5.46 5.46 0 0 0-1.4 0c-.4-1.78-2 0-1.54 1.32.46 1.32 1.36.36 1.54-.52.4-.02.79-.02 1.18 0-.44 1.68-1.74 2.78-2.34 4.26l.06-.06Zm.84 13.54c-.44-2.99-.62-6-.54-9.02a62.79 62.79 0 0 0 5.86-7.04 6.44 6.44 0 0 1 2.16 4.76c-2.96-.62-5.68 2-4.18 4s4.36.82 5.06-2.44c4.64 2.86 2.44 10.9 2.52 11.24-3.6-.82-7.26-1.3-10.94-1.44l.06-.06ZM130.32 66c-.24 1.24-1.14 3.16-2.7 2.6-1.56-.56.24-3.36 2.7-2.6Z"/>
  <path fill="#171717" d="M103.74 59.78h-.7l.3-4.56a.3.3 0 0 0-.29-.22.3.3 0 0 0-.29.22c-.18.78-1.24 5.14-.18 5.52l2 .18c.34-.24.98-.92-.84-1.14Zm6.56 127c-2-5.32-3.16-31.82-2.12-36.34a76.99 76.99 0 0 1-4.96-3.62c-13.82 12.9-32.3 21.72-51.46 21.48-.6 10.72-.86 29.18-.74 30.44.12 1.26 46.98 5.58 59.28-11.96Z"/>
</svg>
