<svg xmlns="http://www.w3.org/2000/svg" fill="none" viewBox="0 0 400 400">
  <path fill="#171717" d="M27.62 247.22c-.36.24.3 22.52 3.34 20.72 3.04-1.8 17.38-10.7 13.5-13.34-3.88-2.64-14.46-9.08-16.84-7.38Zm24.76 89.54c-5.18.24-4.82 6.88-4.14 6.88 0 0 10 0 10.18-.5a5.52 5.52 0 0 0-6.04-6.38Zm2.24-2.14c.5-1.6.36-3.04-2-3.34 0 0-2.64 0-2.48 2.24.16 2.24 3.98 2.7 4.48 1.1Zm309.66-190.2s10 0 10.16-.5a5.53 5.53 0 0 0-6-6.38c-5.22.2-4.82 6.82-4.16 6.88Zm6.42-9.08c.54-1.58.3-3.04-2-3.34 0 0-2.64 0-2.5 2.26.14 2.26 4 2.68 4.5 1.08ZM246.72 40.22s12.86.1 13.1-.7c.24-.8.18-8.96-7.82-8.52-6.62.4-6.12 9.22-5.28 9.22Zm8.32-12c.7-2.16.4-4-2.64-4.44 0 0-3.44 0-3.24 2.98.2 2.98 5.24 3.54 5.88 1.46ZM159.56 44.3c-6.66.36-6.18 9.22-5.28 9.22 0 0 12.86 0 13.12-.7.26-.7.24-8.96-7.84-8.52Zm3-2.84c.64-2 .4-4-2.64-4.42 0 0-3.44 0-3.24 2.98.2 2.98 5.32 3.54 5.88 1.44Zm-60.74 68.12c-6.64.4-6.14 9.22-5.28 9.22 0 0 12.84.1 13.1-.7.26-.8.24-8.96-7.82-8.52Zm3.04-2.78c.64-2 .4-4-2.64-4.44 0 0-3.44 0-3.24 2.98.2 2.98 5.22 3.54 5.88 1.46ZM25.32 85.66C18.7 86 19.2 94.88 20 94.88c0 0 12.86.1 13.1-.7.24-.8.3-8.96-7.78-8.52Zm3.04-2.78c.66-2 .4-4-2.64-4.44 0 0-3.44 0-3.24 3 .2 3 5.24 3.52 5.88 1.44ZM24.44 209c-5.1.3-4.7 7.02-4 7.02 0 0 9.76 0 10-.54.24-.54.16-6.84-6-6.48Zm2.34-1.54c.5-1.66.3-3.1-2-3.4 0 0-2.58 0-2.44 2.3.14 2.3 3.94 2.68 4.44 1.1Zm323.1-155.12s12 0 12.3-.7c.3-.7.24-8.88-7.32-8.42-6.24.34-5.78 9.12-4.98 9.12Zm7.82-11.92c.64-2.14.34-4-2.5-4.44 0 0-3.18 0-3.04 3 .14 3 4.88 3.54 5.54 1.44ZM115.42 323.16s15.4.2 15.74-.6c.34-.8-.8-10.36-8.26-10.36-8.9-.06-9.38 10.56-7.48 10.96Zm8.88-12.9a3.8 3.8 0 0 0 1.88-4.94c-.7-2.34-4.14-2.54-4.14-2.54s-4.28.1-4.38 3.88c-.1 3.78 4.88 4.28 6.64 3.6Zm206.14 34.18c-11.22 0-11.76 11.9-9.42 12.36 0 0 19.3.2 19.78-.7.48-.9-1-11.66-10.36-11.66Zm1.74-2.14a4.2 4.2 0 0 0 2.4-5.6c-.9-2.58-5.24-2.84-5.24-2.84s-5.38 0-5.48 4.4c-.1 4.4 6.14 4.82 8.32 4.04ZM306 239.34c-8.58 0-9.02 10.16-7.22 10.56 0 0 14.84.2 15.2-.6.36-.8-.74-9.96-7.98-9.96Zm1.36-1.84a3.72 3.72 0 0 0 1.84-4.78c-.64-2.24-4-2.4-4-2.4s-4.14 0-4.24 3.74c-.1 3.74 4.76 4.14 6.4 3.44Zm-260.4-97.02h.84l-1-.7v-1.24c-.19.29-.35.59-.5.9a2.32 2.32 0 0 0-2.68-.76c-1.74.6-1.6 3.34-1.6 3.34a6.42 6.42 0 0 1-4.98-.9l.14 2.16-.64-.6a5.66 5.66 0 0 0 6.68 4.92c5.92-.84 3.74-7.12 3.74-7.12Zm-2.1-1h.4c.14 0 0 .54-.34.34s-.06-.34-.06-.34Zm272.28 4.78v-.04h-.08l.08.04Z"/>
  <path fill="#171717" d="M314.8 139.78c-.45.64-.85 1.3-1.2 2a5.57 5.57 0 0 0-6.28-1.74c-4 1.34-3.7 7.76-3.7 7.76-7.76 1.16-11.6-2-11.6-2l.4 4.98-1.6-1.4s1.8 13.5 15.64 11.5 8.72-16.68 8.72-16.68h1.88l-2.26-1.54v-2.88Zm-4.5 3.14a.56.56 0 0 1-.38-.46.57.57 0 0 1 .24-.54 1 1 0 0 1 .9.1c.34.36.1 1.34-.76.9ZM278.76 166c-1.97.94-3.7 2.3-5.08 4a.27.27 0 0 0-.02.18c0 .06.04.11.08.15.05.04.1.07.17.07.06 0 .12 0 .17-.04.9-.7 1.8-1.4 2.68-2 .81-.52 1.58-1.1 2.3-1.74a.35.35 0 0 0 .16-.46.35.35 0 0 0-.46-.16Zm-5.82-62.74c0 .54.88.6.88 0 0-2.8-.24-5.64-.38-8.42 1.16-.06 2.3-.26 3.42-.6 0-.16.16-.46 0-.56-.78-.64-2.88-.1-3.52 0 0-1.08 0-1.88-.16-2.98-.12-.74-.16-1.5-.14-2.24-.1-.66 1.34-3.54 3.14-2.34a.46.46 0 0 0 .54-.7 2.78 2.78 0 0 0-4.68 2c-.1 2.4 0 4.8.3 7.18.14 2.92.24 5.76.6 8.66Z"/>
  <path fill="#171717" d="M386.14 247.52a31.56 31.56 0 0 0-14.78-8.96L369 148h.66a9.64 9.64 0 0 0 8.76-11.4 8.43 8.43 0 0 0-10-6.94 10.46 10.46 0 0 0-8.76 9.32c-.02.55.02 1.1.12 1.64h-.12c-10.4 1.68-20.7 2.72-31.02 4.84a12 12 0 0 0-5.86-8.18c8-21.74 28.24-75.6 30.16-80.68 2.54.55 5.2.1 7.42-1.24a11.28 11.28 0 0 0 5.88-7.08c.58-3.3-.06-6.7-1.8-9.56a11.72 11.72 0 0 0-16.84-3.04 12 12 0 0 0-1.78 16.58c-19.54 10.94-38.74 22.52-57.88 34.2a12.2 12.2 0 0 0-9.62-6.46c-3.1-.34-6.25-.05-9.24.84-4.18-12.18-7.4-24.74-11.86-36.82a9.2 9.2 0 0 0 2.8-1.2c10.96-6.88 3.5-23.82-8.72-22a12.24 12.24 0 0 0-10 12.88c-1.3.3-63.16 10.3-69.48 11.5a12.12 12.12 0 0 0-.98-4.42A11.76 11.76 0 0 0 158 34.54c-4.68.9-9.66 5.18-10.26 10.12a12.22 12.22 0 0 0 7.82 12.46c.48.16.98.28 1.48.38-3.2 6.8-14.74 31.5-17.86 38.96a9.22 9.22 0 0 0-.36-1.52c-.74-1.28-5.38-1.22-8.12-.96-4.76-5-21.18-21.86-26.24-26.38a20.68 20.68 0 0 0 4-17.72c-2.7-10.8-12-16-22.28-14.34a19.74 19.74 0 0 0-17 17.24A20 20 0 0 0 71.5 64a735 735 0 0 1-36.46 16.9c-.18-.26-.34-.54-.54-.8a12 12 0 0 0-12.86-3.14 11.76 11.76 0 0 0-7.88 9.08 11.48 11.48 0 0 0 7.14 12.2c1.72.65 3.54.97 5.38.96a268.02 268.02 0 0 0 12.82 36 9.56 9.56 0 0 0-4.7 9.6 8.7 8.7 0 0 0 5.4 6.52c-3 8.26-5.22 16.56-7.6 25.02A542.57 542.57 0 0 0 25.44 202a8.72 8.72 0 0 0-9.44 7.54 9.02 9.02 0 0 0 8 10c2.46 6.16 5.34 12.46 8 18.54-.68 0-1.36.12-2 .24-7.82 1.36-16.74 6.78-19.14 14.8a16.8 16.8 0 0 0 .76 11.16c1.5 3.54 4.27 6.4 7.76 8a30.7 30.7 0 0 0 14.22 3.44v.16a540.7 540.7 0 0 0 16 54 8.58 8.58 0 0 0-6 5.78 10.36 10.36 0 0 0 6.34 11.52c4.52 1.58 10.86-.6 12.26-5.58.35-1.12.54-2.29.56-3.46 8.2-2.34 15.84-5.12 23.84-8 7.66-2.76 15.34-5.54 22.8-8.82.11.22.24.43.38.64 7.12 10.72 24.42 8.52 28.36-3.84 2.24-7.02-1.8-15.44-8.62-17.44a16.46 16.46 0 0 0-19.6 6.68c-10.32-6-20.78-11.76-31.24-17.54-10.46-5.78-20.8-11.82-31.1-17.42 8.24-4 13.4-12.88 10.26-21.04 2.68-.34 5.4-.72 8-1.24.26 0 .2-.44 0-.44a18.9 18.9 0 0 0-8.12 1.26 16.35 16.35 0 0 0-2.24-3.76A23 23 0 0 0 44.12 240a39.31 39.31 0 0 0-4.12-1.2c8.52-11.8 16.22-24 24.3-36.24 8.08-12.24 16.42-24.12 24-36.56l.8.3a37.27 37.27 0 0 0 19.48.62c-5.1 11.8-8.6 24.22-10.42 36.94a6.6 6.6 0 0 0 2.4 4.78c.2 3.4.5 6.84.9 10.18a55.3 55.3 0 0 1-6.68 4c-.7.66-.3 2 1.54 2.3 1.84.3 14.26-1.2 15.06-2.24.8-1.04-.76-7.48-.76-8.88 1.26.3 2 .4 2 .4A234.4 234.4 0 0 1 116 188c1-5.75 2.7-11.36 5.04-16.7 5.58-11.26 16.54-8.92 23.26-4.88 7.08 4.18 23.32 20 23.22 20.98a2.14 2.14 0 0 1-1.2 1.5S149 168.54 140 166c-9-2.54-15.68-2.6-20.28 13.2-3.7 12.74-6 50-6.66 63.74-2.56.3-5.1.8-7.58 1.48-.3 0-.26.46 0 .46 2.51-.16 5-.48 7.48-.96-.14 2.62-.2 4.2-.2 4.2a8.64 8.64 0 0 0 3.24 2.48c0 1.8.1 3.64 0 5.48a19.28 19.28 0 0 1-7.32 4.24c-2 .44-3.3 2.14-2 3.44 1.3 1.3 16.34 1.54 18 1.2.9-.2 1.58-3.4 2-6.4 8.72 11.2 21.46 18.48 34.7 22.98a107.37 107.37 0 0 0 41.62 5.42v.16c.53 2.09.8 4.23.84 6.38 0 .26.4.36.46.1.44-2.22.26-4.53-.5-6.66 1.42 0 2.84-.2 4.26-.36a103.2 103.2 0 0 0 41.56-14c10.36-6.32 20-15.5 22.52-27.76 3.18-14.94-4.72-30.42-17.62-38a61.99 61.99 0 0 0 6.8-20.6c.38-2.52.72-5.08.96-7.64a36.5 36.5 0 0 0 4.3-3.08c1.4-.82 2.7-1.8 3.88-2.9.2-.2 0-.64-.3-.54a14.5 14.5 0 0 0-3.78 2.64 29.1 29.1 0 0 0-4.14 3.52c.47-4.6.41-9.22-.16-13.8a75.65 75.65 0 0 0-4-16.18c8 0 16 .38 24 0a17.93 17.93 0 0 0-.26 3.18 14.77 14.77 0 0 0 3.22 9.26c-.63.36-1.21.8-1.74 1.3-.8.66-1.54 1.3-2.34 2-.3.16 0 .6.3.4l2.74-1.78c.63-.38 1.2-.83 1.72-1.36a20.18 20.18 0 0 0 10.98 6.4 45.4 45.4 0 0 0 16 .3 23.1 23.1 0 0 0 5.12-1.26c13.62 24.2 42 72 42 72-1.36.28-2.7.64-4 1.1a32.7 32.7 0 0 0-13.66 8.52c-.45.49-.87 1-1.26 1.54a3.3 3.3 0 0 0-1.18 0c-.2 0-.24.36 0 .4.3.08.6.14.9.18a14.4 14.4 0 0 0-2.4 11.14 16.36 16.36 0 0 0 7.52 12c.9.64 1.82 1.22 2.76 1.76-14.94 8.94-29.36 20.18-43.36 30.48-14.5 10.66-29.3 20.88-44 31.24-8.36 5.9-17.12 12-25.26 18.16a18 18 0 0 0-3.2-6.46c-6.52-8.46-19.32-10.26-29.18-8-7.08 1.56-14.34 6.14-17.38 12.88-8.32-5.18-16.74-10.22-25.06-15.4s-16.44-10.76-24.9-15.64a.2.2 0 0 0-.3.05.2.2 0 0 0 .1.29c8 5.74 16.44 10.72 24.76 15.9s16.64 10.42 25.06 15.4h.18a16.46 16.46 0 0 0-1.18 4.66c-.9 8.72 5.34 15.16 13 18.14a34.56 34.56 0 0 0 14 2.34c5.82-.24 11.5-1 17.24-5.22a18 18 0 0 0 7.1-18c14.7-10.42 73.2-52.42 87.56-62.9 8-5.88 25.6-17.34 25.62-17.38a31.56 31.56 0 0 0 9.12 3.34 26 26 0 0 0 5.6.64c-3.72 9.22-7.12 18.76-10.98 28-3.5 8.28-7.12 16.34-10.72 24.58-5.04-4.3-12.32-4.3-18.4-2.32a18.92 18.92 0 0 0-12.84 18.4 17.6 17.6 0 0 0 4.26 11.32c-26.38 1.72-53.24 3.04-79.56 5.06-.2 0-.2.36 0 .36 26.52-.58 53.64-3.3 80.14-4.74a20 20 0 0 0 8.4 5.54 18.92 18.92 0 0 0 22.58-10 22 22 0 0 0-1.8-20.72 12 12 0 0 0-1.78-2c3.56-8.12 7.08-16.28 10.46-24.48 3.82-9.34 8.24-19.22 11.18-28.84 6.45.2 12.76-1.85 17.86-5.8 7.02-6.2 10.3-19.16 3.32-26.68Zm-260.76 10c-4.14 2.9-8.46-.98-8.86-1.78.14-1.54.24-3.14.3-4.74a57.8 57.8 0 0 0 9.82 2.34c-.4 1.5-.8 2.9-1.26 4.28v-.1Zm102.42 115.6a33.84 33.84 0 0 1-25.08 4.2c-7-1.5-14.48-5.48-16.62-12.8-2.74-9.3 4-17.7 12.18-21.32 8.8-4 20.78-3.58 28.88 1.86a18.13 18.13 0 0 1 8.18 14c.28 5.8-3.18 10.68-7.54 14.16v-.1Zm118-17.8a18.28 18.28 0 0 1-34-4 18.66 18.66 0 0 1 10-19.82c6.42-3 16.3-2.94 21.38 2.64a19.7 19.7 0 0 1 2.82 21.28l-.2-.1Zm22-225.3a8.1 8.1 0 0 1 10 5.78c2 6-4.24 11.6-8.16 11.66a8.88 8.88 0 0 1-9.48-8.38 10 10 0 0 1 7.64-8.96v-.1Zm-22.42-79.78a11.3 11.3 0 0 1 2.7-14 11.4 11.4 0 0 1 16.14 2.74 15.26 15.26 0 0 1 1.9 8.86 11.32 11.32 0 0 1-20.74 2.5v-.1Zm-67.16 30.34a13.7 13.7 0 0 1 11.2 16.7 15.32 15.32 0 0 1-17.24 12.16 15.54 15.54 0 0 1-12.76-17.4c1.4-8.62 11.22-12.6 18.8-11.46Zm-24.82-59.5a12.24 12.24 0 0 1 11.12 15.26c-1.9 6-8.14 8.16-13.76 7.26-5.18-.84-8.38-3.48-8.98-9.66a11.56 11.56 0 0 1 11.62-12.86Zm-97.76 35.68c-5.28-1.84-9.28-8.86-6.64-14.54a12.8 12.8 0 0 1 15-6.84 10.66 10.66 0 0 1 7.08 7.04 14.2 14.2 0 0 1-1.08 9.86c-2.8 4.68-9.64 6.08-14.36 4.48ZM137.3 94.48c1.24.4 1.24 2 1.44 3.04.5 2.8 1 5.58 1.44 8.38.3 1.7 2 6.18 0 7.52-1.3-6-2-17.38-2.48-18.14-.48-.76-6.54-.2-9.72.16 1.44-1.26 8.32-1.26 9.32-.96Zm59.8-28.8c.77 0 1.54.18 2.24.5 0 0 .2-.1.2-.14 2.58 4.6 6.61 8.2 11.46 10.26 0 0 0 2.78-1.28 22.34-8.38 5.56-15.2 1.56-16.78-7.7 1.45-.1 2.9-.1 4.36 0 .58 0 .94-6 .38-6.92-.56-.92-4.82-1.7-6.56-5.82-1.74-4.12-.86-15.86-.56-16.5.3-.64 1.6-.3 3.34-.56a7.82 7.82 0 0 0 3.44-2 19.3 19.3 0 0 0 2 6.38 2.34 2.34 0 0 0-2.24 0v.16Zm-4.58 25.3a14.92 14.92 0 0 0 6.56 10.18c3.66 1.6 7.42.22 10.62-2a18.8 18.8 0 0 0 1.54 8.94 24.4 24.4 0 0 1-30.84-12.92c.56-.34 1.16-.64 1.76-.98l4.26-1.76c1.95-.78 4-1.28 6.1-1.46Zm19.16 18c5.5 10 20.68 9.72 25.38 2.18l.2-.4a31.08 31.08 0 0 1 3.78 8.32 41.02 41.02 0 0 0-25.22 3.1v-6.68h-.2v4c-16 4.62-35.22-1.46-44-16.26a31.17 31.17 0 0 1 8.48-8A25.86 25.86 0 0 0 211.68 109v-.02Zm-30.18 59.5c-.96.8-.72 2.1-.6 3.2.18.6.18 1.24 0 1.84-.26.84-1 .9-2.2.14a2.55 2.55 0 0 1-.3-.8c-.2-.84-.1-1.78-.3-2.64h-.14c-.05 1.27.08 2.55.4 3.78-2.9-.46-1.56-4.98-.96-6.48.76-1.9 2.1-3.5 3.84-4.58 2.64-1.8 5.24-3.7 8-5.48a60.55 60.55 0 0 1 21.52-8.86c1.43-.35 2.78-.94 4-1.76.84-.72.88-3 1.04-4 .44-4 .9-7.8 1.66-11.68 8 .93 16 1.85 24 2.74-.92 7-3.3 13.71-7 19.72-18.46 24.48-48.04 7.64-52.92 18.38a5.18 5.18 0 0 1 .2-3.24c.1-.22-.1-.38-.24-.28Zm4.5-19.72a28.38 28.38 0 0 0 14 2.24 66.42 66.42 0 0 0-12.62 7c-.32.16-.6.34-.92.52-1.76-.78-7.1-3.04-14.14-5.44 1.24-4.32 2.4-8.68 3.4-13.12a19.78 19.78 0 0 0 10.28 8.8Zm-10-9.28c.8-3.58 1.54-7.22 2.18-10.82 8.7 9.72 28.04 11.34 37.82 7.74-.4 2.14-.7 4.28-1 6.42-.14 1.3 0 3.24-1.04 3.88-3.74 1.16-8.22 2.2-12.12 3.7-4.96.6-9.99.05-14.7-1.6a20.7 20.7 0 0 1-11.14-9.32Zm64.52-6.22c-.82-.02-1.64-.12-2.44-.3l-18-2c-1.54-.2-3.68.1-4.14-1.66-.17-1.4-.17-2.82 0-4.22v-2.4c8.36-3.04 16.5-4.78 25.36-2.84v.24a36.83 36.83 0 0 1 .78 11.44c-.24 1.18-.24 1.62-1.64 1.74h.08Zm-49.76-13.86c7.72 2.44 17.04 3.68 24.86.64l-.3 10.62c0 .07.03.13.08.18a.3.3 0 0 0 .18.08c.5 0 1.04.1 1.6.2-.46 1.54-.76 3.14-1.1 4.72h-.2c-12.16 4.64-31 .3-37.72-7.46.7-3.8 1.24-7.54 1.74-11.32 0-.1-.2-.16-.2 0-.6 3-1.08 5.66-1.62 8.66-4.14-3.8-12.32-6-12.58-6.2-.74-.86 0-2.2.2-3.2a38.1 38.1 0 0 1 2.44-6.78 37.12 37.12 0 0 1 3.38-5.88 34.68 34.68 0 0 0 19.24 15.74ZM178 126.18c-.76 4-3.8 17.74-4.54 20.68-23.46 7.48-32.1-15.88-38.34-32.86 0-.2 4.96-.3 4.96-.38.33-.16.62-.39.84-.68a120.22 120.22 0 0 1 22.14 15.6h.6a59.9 59.9 0 0 1 3.64-8c3.8 1.38 7.4 3.28 10.7 5.64Zm-45.58-17.14c2.74-.7 2 2 .24 2.28a9.8 9.8 0 0 1-1.84.3c-.4 0-2.34.7-2.64-.84-.66-1.8 3.28-1.5 4.24-1.74Zm-.6-2.54c.54 0 2.24-.46 2 .8-.2 1.72-3.82 2.12-5.18 1.44-.76-.26-1.78-1.62 3.18-2.24Zm1.28 5.08c.32-.02.64-.02.96 0 .5.66.5 1.2 0 1.66-.5.46-2.26 1.74-3.14.94-.5-.36-2.04-2.3 2.18-2.6Zm1.86.9c0-.9-.7-1.16-1.36-1.16a2 2 0 0 0 .9-.98c.38-.9-.3-2-1.24-1.7.74-.4 1.34-1.1.84-2a1.32 1.32 0 0 0-1.34-.56c-.9.04-1.78.15-2.66.32 0 0-2.18-10.18-1.62-10.58l1.78-.14c1.8-.33 3.62-.43 5.44-.3 1.8.3 1.6.8 1.7 2.48 0 .96 2 15.06 2 15.56-.2 0-3.52.12-5.36.3.45-.28.78-.73.92-1.24ZM69.68 55.66c-.66-9.6 6.88-17.78 16-19.58a18.26 18.26 0 0 1 21.16 11.66 19.88 19.88 0 0 1-4.18 20.88 18.7 18.7 0 0 1-21.32 4 20.66 20.66 0 0 1-11.66-16.96ZM15.8 93.34a10.76 10.76 0 0 1 3.6-14.74c4.68-3 11.86-1.8 14.74 1.84 3.7 4.72 4.24 11.7-.8 16-5.04 4.3-14.2 2.38-17.54-3.1Zm10.8 6a11.1 11.1 0 0 0 8.54-3.8 12.16 12.16 0 0 0 0-14.4C47.7 76.96 60 70.38 71.8 64.56A22 22 0 0 0 78.7 72a19.24 19.24 0 0 0 25.54-4.16c4.88 4.82 20.48 20.78 26.14 26.16-.57.04-1.14.14-1.7.28-.6.35-1.07.87-1.36 1.5.54 2.68 1.16 5.36 1.82 8-4.9 1.82-10 3-14.98 4.46-.36-1.26-.9-2.46-1.58-3.58-3.44-5.48-12.9-6.32-17.78-2.74a11.58 11.58 0 0 0-2.16 16 13.1 13.1 0 0 0 9.52 5.32c.1 2.66.1 6 .28 8.8-3.9.12-7.75.98-11.34 2.52-6.32 2.7-13.54 7.56-14.4 14.82-8.56-1.22-16.66-3.14-25.24-4.12a8.36 8.36 0 0 0-.18-4.42 8.84 8.84 0 0 0-10-6.28c-.7.12-1.37.34-2 .66A362.34 362.34 0 0 1 26.6 99.28v.06Zm82.64 21.5a11.85 11.85 0 0 1-16.7-4 11.04 11.04 0 0 1 2.6-14.36c4.84-3.58 13.66-2 16.74 2a11.32 11.32 0 0 1-2.64 16.36Zm-74.4 23.28a8.28 8.28 0 1 1 16.47-1.74 8.28 8.28 0 0 1-16.47 1.74Zm-17.88 63.52c2.84-7.82 14.2-6.46 16 .96a8.36 8.36 0 0 1-15.24 6.44 8.52 8.52 0 0 1-.76-7.4Zm44.44 134a9.1 9.1 0 0 1-11.06 5.08A9.74 9.74 0 0 1 43.76 336c1-5.02 7.58-7.12 12-6a8.7 8.7 0 0 1 5.64 11.64Zm55.12-40a15 15 0 0 1 12.96-.54 13.84 13.84 0 0 1 6.72 19.28 15.1 15.1 0 0 1-18 7.1c-7.56-2.38-12.54-10-9.16-17.66a18 18 0 0 1 7.48-8.2v.02ZM78 290.32c10.48 5.78 20.94 11.5 31.26 17.48a12.86 12.86 0 0 0-.4 13.06c-7.72 2.9-15.4 6-23.16 8.8-7.76 2.8-15.4 5-23.3 7.72a8 8 0 0 0-5.86-7.56 10 10 0 0 0-6.68-.2c-5.66-18-11.38-35.76-16-54a32 32 0 0 0 13.26-3.04C57 279.08 67.6 284.62 78 290.32Zm-23.02-42.9c6.28 8.16 2.64 18.38-5.88 23.36a31.25 31.25 0 0 1-26.32 2.3 18.16 18.16 0 0 1-10-7.32c-1.83-3.24-2.53-7-2-10.68 1.24-8 9.32-13.64 16.58-15.58 9.38-2.5 23.18 2.14 27.62 7.92Zm8.66-45.26c-8.1 12.16-16.48 24.2-24.44 36.44a23.05 23.05 0 0 0-6.52-.54 427.66 427.66 0 0 0-8.44-18.46 8.7 8.7 0 0 0 9.16-10.9 8.38 8.38 0 0 0-7.58-6.7c2.2-8.46 4.64-16.88 7.1-25.3 2.46-8.42 4.76-16.7 7.24-25.12 1.9.67 3.98.62 5.84-.14a8.52 8.52 0 0 0 5.46-5.78 888.49 888.49 0 0 0 25.3 4.12 11 11 0 0 0 0 1.16 16.8 16.8 0 0 0 11 14.8c-8.42 11.94-16.04 24.36-24.12 36.42Zm38.22 16.16c.18-2.84.18-5.68 0-8.52a53.16 53.16 0 0 0 7.62 4c0 1.26.1 2.5.2 3.7-2.94 2.16-7.68.72-7.82.82Zm7.38-52.84a34.96 34.96 0 0 1-19.14.16c-8.52-2.54-16.34-12.2-10.9-21.08a26.36 26.36 0 0 1 11.5-9.12 29.77 29.77 0 0 1 14.6-2.84c4.75.37 9.27 2.18 12.96 5.18 2.96 2.46 5.88 6.28 6 10.28-6.26 2.82-11.18 9.56-15.02 17.42Zm15.54-17.62c-.12-5.56-5.78-10.86-10.3-13.22a24 24 0 0 0-11.66-2.64c0-2.7 0-6.12-.2-8.78 2.7.18 5.38-.64 7.52-2.3a11.54 11.54 0 0 0 4-12.44 72.36 72.36 0 0 0 15-4.32c.18.74.54 2.36.6 2.36-1.62.32-2.86 1.26-1.9 2.28l.3.26c-.8.44-1.1 3.32 2 3.18-.54.56-.16 1.56.3 2 .8 1 1.88.56 2.96-.12h1.26c2.7 9.48 7.74 21.58 15.34 29.06 5.82 5.72 16.74 7.42 23.22 4.22-.46 1.82-.96 3.62-1.44 5.42-14.22-4.82-34.92-10.04-47-4.96ZM147.22 200a68.87 68.87 0 0 0 1.84 4.6 17.96 17.96 0 0 0-3.26 2.3c.54-2.62 1.02-4.9 1.42-6.9ZM272 242c-1.44 12.8-11.44 22.12-21.86 28.8-24.36 15.68-54.78 19.06-82.48 11.34-15.46-4.3-30.66-11.68-40.82-24.32.36-2.2.54-3.76.7-4.36a28.6 28.6 0 0 0 4.54-.26S136 247.66 140 232c2-7.56 4-16.64 5.54-24a20.42 20.42 0 0 1 3.78-2.68 61.74 61.74 0 0 0 6 10.48c-.9 5.18-4.72 28.32-3.48 28.5 1.24.18 6.72-19.14 7.86-23.22a53.94 53.94 0 0 0 3.64 3.44c-.64 3.48-.44 7.16-.84 10.7-.5 4.54-.94 9.02-1.3 13.62-.2 2.54-.44 5.02-.64 7.56a43.14 43.14 0 0 0-.3 7.38c.2 2 1.44 2 2.44.44v-.1a28.12 28.12 0 0 0 2.3-7.36c.74-3.4 5.64-26.26 5.88-27.46 10 6.58 23.12 9.02 34.94 8.42a58.32 58.32 0 0 0 14.6-2.64c.38 3.08 2.24 17.18 3.48 17.38 1.24.2 2-17.04 2.14-19.62a38.5 38.5 0 0 0 10-6.78c.74 2.2 1.6 4.34 2.34 6.42 1.7 4.7 3.48 9.32 5.28 14 1.44 3.7 2.6 7.48 4.24 11.12.73 1.67 1.58 3.3 2.54 4.84.54.84 1.6 2.84 2.68 3.14 2.4.64 1.4-4 1.26-4.9a92.76 92.76 0 0 0-2.84-13.24c-2.54-9.12-5.44-18.14-8.22-27.16a43.26 43.26 0 0 0 10.92-12.8A36.4 36.4 0 0 1 272 242Zm-108.42-14c.17-1.8.43-3.58.8-5.34a7.18 7.18 0 0 1 1.28-2.8c3.9-3.72 4.84-.14 5.1 2 .26 2.14-1.84 10.66-2.2 12.5-.8 4-1.54 8.3-2.44 12.34l-2 9.46a34.7 34.7 0 0 1-1.76 7.76c-1 1.26-1.7 0-1.6-1.4v-1.4c0-1.08 0-2.18.14-3.28 0-1.9.26-3.78.46-5.68.4-4 .74-8.18 1.18-12.26.44-4.08.92-7.9 1.12-11.9h-.08Zm71.32-8.32c.16-2.74.72-7.58 4.6-5.52 2.12 1.16 2.5 4.36 3.12 6.42l3.88 12.8c2.68 8.68 5.76 17.4 6.9 26.4.1.72 1.02 4.18-1.1 3.7-.58-.14-1.78-2.36-2-2.92a36.24 36.24 0 0 1-2.64-5.38c-1.44-3.44-2.58-7-4-10.48-1.62-4.18-3.26-8.4-4.8-12.62-.72-2.08-3.88-11.56-3.88-12.46l-.08.06Zm23.4-69.32a63.81 63.81 0 0 1 3.5 25.4 86.7 86.7 0 0 1-4.9 24.62 50 50 0 0 1-13.74 19.54c-.16-.5-.3-1.04-.5-1.6-.8-2.68-1.8-6.38-5.34-6-3.54.38-3.54 4-3.38 6.68.38 2.24.97 4.44 1.74 6.58a55.5 55.5 0 0 1-14 8.32 53.64 53.64 0 0 1-17.04 3.34 62.74 62.74 0 0 1-34-8.22c.57-2.63.68-5.33.34-8-.3-1.8-1.44-4-3.58-3.5-2.54.5-3.74 4-4.24 6.28a47.88 47.88 0 0 1-3.54-3.44l-.36-.34a49.5 49.5 0 0 1-3.78-4.68 2.3 2.3 0 0 1-.24-.56v.16a69.46 69.46 0 0 1-8-15.74l1.04-5.24s5.28 1 14.24-2.14c8.28-2.9 12.94-16.56 13.62-18.64a2.97 2.97 0 0 0 2 1.4 3.5 3.5 0 0 0 1.7.34 2 2 0 0 0 1.38-1.74c2-7.08 15.66-4.14 20.98-4.48 12.56 0 26.62-4.54 33.34-16a45.88 45.88 0 0 0 5.72-18.78.76.76 0 0 1 .36 0s.24-.1.24-.2c.28-1.53.46-3.08.52-4.64 9.04 3.54 13.18 12.72 16 21.22l-.08.06Zm-.3-2.82c-.46-1.24-.8-2.14-1.32-3.38-2.82-6.58-7.04-13.06-14.14-15.5a33.9 33.9 0 0 0-.92-9.16.2.2 0 0 0 0-.14 30.91 30.91 0 0 0-4-9.28c4.78-9.42-.78-20.86-9.5-29.54-9.08-9.02-3-24.12-13.06-30-10.06-5.88-14.94.3-14.94.3a6.5 6.5 0 0 0-3.8-1.74c-2.88-.54-8.26.7-8.16 12.96.1 12.26-.86 13.7-4.54 18.34-3.04 3.82-2.7 11-2.48 13.42-9.16 5.06-14.74 15.68-16.8 25.64a.28.28 0 0 0 .02.22.28.28 0 0 0 .18.14c.78.18 1.58.44 2.34.68-1.4 1.7-3 7.5-4 7.38-.74-.5-1.4-1.08-2-1.74a92.01 92.01 0 0 0-19.82-13.3c1.14-1.5 0-3.8-.26-5.58-.26-1.78-1.12-7.32-1.68-10.34 1.86-3.84 15.04-32 18-39.32a13.6 13.6 0 0 0 11.32-2.82 12 12 0 0 0 3.4-9.26c11.1-1.46 22-3.54 33.08-5.34 10.22-1.7 34.48-5.6 36.42-6 .6 4.54 2.44 7.76 6.48 9.32a15.3 15.3 0 0 0 8.94.72c3.42 12.42 8 24.52 11.78 36.84a14.72 14.72 0 0 0-7.62 5.84 15.2 15.2 0 0 0 1.14 17.44 15.82 15.82 0 0 0 28.26-9.76c.1-2.57-.52-5.11-1.8-7.34a1924.47 1924.47 0 0 1 58-34.46 10.82 10.82 0 0 0 6.12 3.62c-9.12 21.42-16.8 43.46-24.9 65.28-1.86 5-3.74 10-5.52 15.04l-.2-.14c-14.9-8-36.6-4.74-39.54 10.86-.1-.04-16.48-.56-24.48.1Zm41.38 20c-8.16-1.04-16.2-6.12-16.84-15.04-.64-8.92 5.72-15.44 13.5-18 8.38-2.8 20.34-.7 25.82 2.84a14.85 14.85 0 0 1 6.58 10.22 20.9 20.9 0 0 1-2.7 12.2c-4.82 8.24-17.74 8.82-26.3 7.72l-.06.06Zm40.76 35.74c-7.6-12-14.86-24.3-21.78-36.84 2.6-.98 4.91-2.59 6.74-4.68a15.08 15.08 0 0 0 2.84-6 20 20 0 0 0 1.3-7.52c-.07-.63-.18-1.26-.32-1.88 10.46-1.48 20.48-3.52 30.9-5.26a9.1 9.1 0 0 0 8.4 6.9c-.3 15.1.64 30 1 45.12.36 15.12.74 30.24 1.34 45.38-3.3-.67-6.71-.63-10 .12 0 0-13.14-23.94-20.36-35.4l-.06.06ZM382.98 272c-5.48 5.32-13.64 7.14-21.12 6.54a29.54 29.54 0 0 1-11.04-2.98c-4.5-2.24-9.14-5.28-10.8-10.26-1.56-4.68-1.9-9.76.98-14a28.72 28.72 0 0 1 12.12-9.4 29.3 29.3 0 0 1 17.6-2.48 30.98 30.98 0 0 1 14.64 8.54c5.68 7.06 3.78 18.04-2.38 24.04Z"/>
  <path fill="#171717" d="M378.6 256c-2.96-6.54-14-6.38-18.9-5.28-2.92.68-9.76 3.46-11.02 7.36a4.44 4.44 0 0 0 1.18 4.46c2.16 2.46 6 3.38 9 3.72 1.13.15 2.28.2 3.42.16.33-.03.66-.08.98-.14a5.13 5.13 0 0 1 1.58-.16 10 10 0 0 1 4.52 3.24l1.14 1.12c.08.06.18.1.28.1.05 0 .1 0 .14-.03a.4.4 0 0 0 .12-.61c-.23-1.14-.5-2.27-.78-3.4l-.1-.38c-.34-1.34-.4-1.58.94-2 .71-.23 1.44-.4 2.18-.52a8.99 8.99 0 0 0 3.18-.98 4.93 4.93 0 0 0 2.14-6.66Zm-9.64 8.22.24 1.02c.3 1.24.62 2.54.96 3.8a36.1 36.1 0 0 0-1.82-1.62l-.48-.42-.54-.54c-.43-.54-.96-1-1.56-1.34h-.42c-.46.02-.92.1-1.36.22-.3.08-.61.14-.92.18-1.65.15-3.3.08-4.94-.2-4-.62-6.66-1.82-7.82-3.52a4 4 0 0 1-.64-3.3c.7-2.58 4-4.46 5.46-5.16a23.02 23.02 0 0 1 16.48-1.28c2.68.64 5 2.32 6.44 4.66a4.26 4.26 0 0 1-.2 3.64c-1.12 2.22-4 2.68-6.72 3.08-.68.1-1.32.2-2 .34a.4.4 0 0 0-.14.19.41.41 0 0 0-.02.23v.02Z"/>
  <path fill="#171717" d="M370.1 256.84a.84.84 0 0 0-.34.98.96.96 0 0 0 1.74-.2.88.88 0 0 0-1.4-.78Zm-5.38.2s-.16 0-.2-.1a.85.85 0 0 0-1 .24.9.9 0 0 0 0 1 .86.86 0 0 0 1.2 0c.4-.3.5-.84 0-1.14Zm-8.72.44a.9.9 0 0 0 0 1.04 1.16 1.16 0 0 0 1.1.36.92.92 0 0 0 .44-1.2.92.92 0 0 0-1.54-.2Zm-18.28-7.88c.14 0 .24-.24 0-.3a28.94 28.94 0 0 0-6.44-1.24c-.2 0-.3.26-.1.3 2.12.7 4.31 1.11 6.54 1.24ZM318 232.32a14.17 14.17 0 0 0-10.66-5.24c-6.68-.7-15.04 3-16.58 10.22-.2.85-.3 1.72-.34 2.6-2-.58-4.06-.92-6.14-1-.2 0-.26.3 0 .34 2.02.6 4.1 1 6.2 1.18a15.7 15.7 0 0 0 7.76 14c8.18 4.4 20 .5 22.86-8.26a59 59 0 0 1 7.34 1.52c.14 0 .24-.2 0-.24a12.98 12.98 0 0 0-7.32-1.64c.36-1.3.52-2.65.48-4a16.48 16.48 0 0 0-3.6-9.48Zm2.54 12.96a14.82 14.82 0 0 1-13.46 10.56 14.55 14.55 0 0 1-15.42-11.2 13.34 13.34 0 0 1 2.7-12.48 16.69 16.69 0 0 1 12.86-4.52 14.75 14.75 0 0 1 13.32 17.64Zm-46.36-7.88c2.2.24 4.37.7 6.48 1.34.24 0 .34-.3 0-.4a24.6 24.6 0 0 0-6.58-1.74c-.4-.04-.4.74.1.8ZM222.7 348.12c-2.74-.8-25.5-.6-25.8 1.24-.26 1.36-.46 13.56-.46 15.86 0 2.3-.24 4.72 1.6 6.18a9.85 9.85 0 0 0 5.82 1.08c4 0 8.22-.3 12.32-.5 3.04-.14 9.56.2 9.76-4.12-.13-5.49-.57-10.96-1.34-16.4-.3-2.44-.6-2.98-1.9-3.34Zm-2.94 3.34a2 2 0 0 1 3 1.6c0 .84-2 2.44-3.34 1.14-1.34-1.3.34-2.74.34-2.74Zm-16.34 7.08a6.34 6.34 0 0 1 6.42-4.24 7.75 7.75 0 0 1 6.24 3.08 7.4 7.4 0 0 1 .94 6 6.71 6.71 0 0 1-5.68 4.9 6.9 6.9 0 0 1-7.38-3.4 9.18 9.18 0 0 1-.54-6.34Zm21.58 6.32c.15.97.22 1.96.2 2.94-.26 1.84-1.84 2.54-3.44 2.94-1.98.34-3.99.5-6 .5-3 .16-6 .3-8.98.4-2.35.3-4.75.2-7.06-.34-3-1.26-2.4-4.7-2.5-7.34v-4.12c.54 0 5.58.24 5.58.18a8.8 8.8 0 0 0 1.44 6.68 8 8 0 0 0 13.86-6.92c2.26.2 4.53.15 6.78-.14.02 1.74.06 3.48.12 5.22Zm-16.24-25.46c0 .34.54.24.54 0 .02-2.83-.3-5.66-.94-8.42a.26.26 0 0 0-.4-.14.26.26 0 0 0-.1.14c.04 2.83.34 5.65.9 8.42Zm-2.16-19.94c.1 1.39.3 2.77.56 4.14.14 1.4.2 2.8.2 4.2a.2.2 0 1 0 .4 0c.53-2.84.27-5.78-.76-8.48a.22.22 0 0 0-.11-.08.22.22 0 0 0-.25.08.22.22 0 0 0-.04.14Zm-1.14-11.1a34 34 0 0 0 1 8.22c0 .24.34.2.34 0a32.4 32.4 0 0 0-.88-8.22.24.24 0 0 0-.23-.17c-.05 0-.1.01-.14.05a.24.24 0 0 0-.09.12Zm-.04-3.34c0-1.4-.2-2.74-.36-4a13.7 13.7 0 0 0-.6-3.6.26.26 0 0 0-.4-.14.26.26 0 0 0-.1.14c-.03 1.34.1 2.69.4 4a29.1 29.1 0 0 0 .7 3.69.2.2 0 0 0 .28.04.2.2 0 0 0 .08-.13ZM68.64 250c3.8-.03 7.59-.47 11.3-1.3.26 0 .2-.4 0-.44-3.8 0-7.6.42-11.32 1.24-.28.16-.24.6.02.5Zm18.02-2.94c-.3 0-.2.5 0 .5 4.28-.18 8.53-.76 12.7-1.74.26 0 .2-.5 0-.5-4.27.3-8.5.88-12.7 1.74ZM104 149.84a9.13 9.13 0 0 0-2.44.2h-2.18c-.2-3.74-.96-10.96 3.88-10.22.5 0 .84-.54.36-.84-3.74-2.14-5.62 3.14-5.62 5.78a113.1 113.1 0 0 0 .6 17.84c0 .3.5.2.5 0 .27-3.85.32-7.7.16-11.56 1.6.38 3.27.2 4.74-.54a.38.38 0 0 0 0-.66Zm-25.5-86.2a6 6 0 0 0 4.44 1.1c2.88 0 5.78-.16 8.62-.36 2.43-.1 4.86-.34 7.26-.74a2.18 2.18 0 0 0 2.1-1.9c.5-5.66.32-11.36-.54-16.98a1.5 1.5 0 0 0-1.5-1.06c-2.3-.64-21.44-.48-21.74 1.06-.3 1.54 0 12.76.2 14.7a5.84 5.84 0 0 0 1.16 4.18ZM96.38 46.5a1.76 1.76 0 0 1 2.54 1.34c0 .7-1.72 2-2.78 1-1.06-1 .24-2.34.24-2.34Zm-13.7 6a5.44 5.44 0 0 1 5.44-3.54 4.74 4.74 0 0 1 4.92 2.28 6.84 6.84 0 0 1 .66 5.78 6 6 0 0 1-5.7 4.32A5.62 5.62 0 0 1 82.88 58a9.5 9.5 0 0 1-.2-5.56v.06Zm-1 1.34a7.24 7.24 0 0 0 1 5.78 6.54 6.54 0 0 0 6 2.74 7.46 7.46 0 0 0 6.12-8.82c1.78.09 3.56.09 5.34 0v4.78c-.1 2.4.24 3.88-2.9 4.64-1.8.44-15.8 1.24-17.48.64-2.26-.8-1.7-8.86-1.8-9.76h3.72Zm121.14 23.8c0-.14-.24-.24-.34-.14-.9 1.14-1.8 2.24-3.4 2-.14 0-.2.16 0 .2 1.4.3 3.64-.32 3.74-2.06Zm-8.96-4.14c0-.4.7-2.84.88-3.68h-.1c-.52 1.43-.95 2.9-1.28 4.38 0 .8.84 1.04 1.54.9.14 0 .14-.26 0-.26s-1.3-.84-1.04-1.34ZM192 68c-.15.8-.2 1.6-.16 2.4.01.03.03.06.06.08l.09.02a.16.16 0 0 0 .15-.1c.2-.78.28-1.6.26-2.4-.04-.32-.4-.32-.4 0Zm6.28 2.42c.2-.26 0-1.74 0-2.14 0-.4-.4-.3-.46 0s-.24 2 0 2.24c.01.06.05.11.1.15a.23.23 0 0 0 .33-.07.24.24 0 0 0 .03-.18Zm-7.42-4.08a4.64 4.64 0 0 1 1.64-.84c.16 0 0-.2 0-.26-.64-.2-1.34.54-1.64 1.1ZM132.22 98a1.3 1.3 0 0 0-1.4 1.1 1.42 1.42 0 0 0 2.78 0 1.28 1.28 0 0 0-1.38-1.1Z"/>
</svg>
